<?xml version="1.0" encoding="UTF-8"?>
<!--
************* Copyright (c) 2017 Pareto Softare, LLC DBA Simplemaps.com *******************		
************* Free for Commercial Use, full terms at  http://simplemaps.com/resources/svg-license ************
************* Attribution is appreciated! http://simplemaps.com ***************************
-->
<svg width="1e3" height="2201" fill="#7c7c7c" stroke="#ffffff" stroke-linecap="round" stroke-linejoin="round" stroke-width="2" baseprofile="tiny" version="1.2" viewbox="0 0 1000 2201" xmlns="http://www.w3.org/2000/svg">
 <path id="Santa_Cruz" d="m301.8 1483.7-1.6 5.2-0.4 2-0.1 2.2 0.1 2.4 2.4 11.5 1.7 5.7 1.1 2.7 4.8 9.4 4.3 4.2 4 1.4 0.5 0.6 0.7 1.4 2 1.4 2 0.5 1.1 0.7 0.8 2.1 1.6 1.6 1.8 2.8 0.7 1.7 0.5 0.1 0.7 0.1 0.5 0.2 0.4 1.1 0.4 0.2 0.6 0.4 4.4 5.2 2.9 4.6 2 1.8 4.3 2.3 1.9-0.1 1.6 1.1 2.1-0.7 1 0.5 1-0.1 1.1-0.3 1-0.1 0.8 0.3 1.7 1 0.8 0.2 2.7-0.3 0.9 0.3 0.5 0.4 2.7 0.5 5.2 1.1 5.7-0.5 2.9-1.1 1.3-0.3 1.2 0.2 3 2.1 1.9 0.2 1.1 1.2 0.6 1.9 1.2 1 0.9 1.1 0.4 0.5 2.6 2.2-0.5 1.4 0.9 4 0.6 2.4 0.6 2.3-0.7 5-0.4 7.5-2.8 9.1-2.7 8.2-1 0.5-1.5 0.1-1.3-0.3-2.6-0.4-3-0.1-1.5 1.4-1.6 2.1-1.4 1-1.3 0.5-3.1 1.6-3.2 2.3-1.1 0.3-3.9-0.2-0.8 0.2 2.5 0.9 2-0.2 3.8-2.2 1.2-0.4 2.8-0.7 4.8-2.7 1.3-1.6 2.4-0.5 2.3 0.3 1.4 0.1 0.8 1.1 0.9 3.8 0.7 3.3 1.3 1.4 1.8 0.5 1.5 0.5-1.3 1-0.4 0.8 1.7 1-1.3 0.3-1.3 0.6-1.2 0.2-0.5-1.4-2.6-0.9-1.4 0.6-1 1.6-0.3 1.4 1.1 0.7-0.3 1.9-0.5 0.8-0.1 0.9-1 0.7 0.2 0.7 1.4 1.1 1.7 0.5 0.3 1.2-1 1.5-1.4 0.3-0.4-1-0.9-0.4-1 0.6-1.2-0.1-2.3 0.3-1.5 0.4-0.9 0.6-1.2 0.9-0.4 1.8-0.6 1.1-0.4 0.8-2 1-1.9 0.8-1.3 2.5-1.8 0.7-0.8 1-1 1.6-0.9 2.6 0.7 2.4-0.6 0.3-1.7-0.4-1.7-0.1h-1.4l-0.2 0.4-0.9 0.7 0.3 1.1-0.2 1.6-1.7 1-2.2 0.8h-1.5l-3.8 0.5-2.1 1.8-2.8 1.6-1.2 1.4-1.8 1.4-1.4 2-1 0.7-0.2 1.6-0.3 1.5-1.1 0.5-1.3 0.6-3.6 0.6-2.9 2.5-3.5 2.2-1.1 1.4-0.4 3.8-2 2.2-0.4 1.9-0.3 1.7-2.5 2.1-3.7 1.6-4.2 2.8-7.5 8.5-0.9 2.5-0.8 2.8-0.3 1.7-1 0.9-0.8 0.9-0.2 1.9 1 0.5 0.3 1.3-0.7 0.5-0.4 0.4-0.9 0.4-0.3 0.6-0.2 0.8-0.4 0.8-0.4 1.9-1.3 1.4-1.5 0.6 0.5 0.7 0.6 0.7 0.3 0.8-0.4 0.9-0.7 0.2-0.7 0.7-0.9 0.6 0.6 0.6v1l-1.4 1.4-2.9 0.4v0.5l0.9 0.4 1 0.1 3.4-0.1 1.4-1.5 0.8-2.7-0.1-2 0.7-1.1 0.3-2.2 0.9-1.2 0.5-0.3 0.7 0.2 0.7 1.1v1.5l-0.2 3-2.1 4.1-0.1 1.4-1 5.2-1.2 5.6-0.3 2.1v3.4l-0.4 1.8-0.2 3.2 0.3 1.2-1 7.4-1.6 5.2-0.4 1.7-0.8 1.7-0.3 1-0.3 0.4-1.7 3.4-3.1 3.3-4.3 3.7-4.8 3.4-4.6 2.1-4.5 0.8-3.5-0.3-0.7-0.2-0.5-0.6-1.2-2.1-1.1-0.6-1.2-1.9-0.7-1.6-0.4-2-0.9-1.9-1.2-1.7-1.7-1.5-1.1-1.9-0.3-1.7-1-2.7-1.3-1.9-3-5.9-0.9-1-1.2-0.8-1.2-0.5-1-0.1 3.2 2.2 0.6 0.9 0.3 1.2 1.4 2.7 1.7 3.2 0.9 3.4 0.1 1.9-0.8 0.8-1.7 1.2-1.2 0.4-1.2 0.8-1.4 0.2-2-0.5-3.1 0.3-3.6-0.4-1.9 1.4-1.6 0.8h-1.5l-1.9 1.3v0.6h1l1.2-0.1 2.7-0.2 1.7-1.5 1.3-0.7 0.7-0.2h0.7l1.4 0.3 1.6-0.2 2.5 0.6 2.4 0.4 1.6-0.8 1.9-1 0.8-0.1 0.8 0.3 0.4 0.4 0.4 1.6 1 0.6 0.7 0.6v1.9l0.4 1.6 0.8 1.5 1.4 1.6 1.1 0.7 1.3 0.2 0.8 0.4 0.6 1 1.4 0.4 0.6 1.1-0.6 1.6-1.7 0.7-1.1 1.1-1 0.7-8.8 4-6.1 3.1-1.6-0.3-1.2 1.2-0.1 1.1-1.6 0.5-0.7 0.2-0.8-0.3-1 0.6-0.2 1.8-1 0.7-2.3 3.3-1.5 2-0.7 1.7-1 2.1-1.7 3-0.8 2-0.8 1.5-0.2 3.5-2.2 6-0.9 3.1-0.4 1.8 0.1 1.3 0.7 2 0.3 5v2.5l-0.5 2-1.1 0.9-2.3 1.6-2.8 3.1-4.3 3.5-2.2 2.4-1 2.8 1.5-1.5 2.9-2.6 1.8-1.3 3-1.9 1.5-0.9 1.5-0.2 0.4 1.5 0.1 1.5 0.6 3.3 1.1 6.2 0.8 4 0.2 2.4 0.8 1.6 0.4 3.4 0.8 3.5 5 14.4 0.4 1.8 0.1 1.6-0.4 1.4-1 0.9-0.9-0.1-1-0.5h-1.4l-1.1 0.7-1.6 2.2-0.9 0.4-1.4-0.1-1.2-0.3-5.7-3.2-3.7-0.3-0.9 0.1-0.6 0.2-1.5 0.9-2.8 0.3-1.2 0.4-2.3 2.1-2.5 0.9-1.1 0.7 10.9-2.7 2.3-0.3 2.4 0.4 5.2 2.2 2.2 1.1-0.4 1.4-2.7 2.3v0.5h1l0.9-0.4 4.2-2.3 2.1-1.9 1.3-1.2 1.5-0.3 1.3 0.7 1.9 2.1 3.1 9.2 2.4 3.6 3.7 9 3.4 7.3 8.1 13 6.2 9.1 1.7 2.5 0.5 1.6-0.4 1.1-1.4 1.6-0.8 1.1-0.6 1.2-0.8 0.4-0.4-1 0.3-1-0.6-1.6v-3l-0.3-0.9-1.2-0.3-3.9-1-0.8-0.3-1.6-1-0.9-0.3-9.9-1.7-1.9-0.8-7.5-4.5-10.2-3.3-13.7-0.5-17.4-7.6-6-2.6h-4.1l-56.5-0.8-11.2-0.2-26.6-0.4-2.4-1.6 0.2-3.4 0.6-2.6-0.5-2.3-1.1-1.9-1.5-1.4-3.1-3.9-3.5-3.2-2.2-1.5-4.7-1.6-1-0.8-0.7-1.6-0.4-4.5-0.4-1.3-1.1-1.3-1.2-0.3h-1.3l-1.4-0.3-1-1.9 1.4-2.4 3.5-3.8 0.2-0.6-0.2-2.2 0.2-0.8 0.7-1.2 0.3-0.6 0.2-1.4v-4.5l0.2-1.8 0.3-1.1 2.2-3.1 0.6-1.2v-1.1l-0.8-1.2-3.8-2.6-1.6-1.8-1.1-2.8v-1.6l0.4-1.1 1.4-2 0.9-1.6 0.6-0.8 0.8-0.3 1.4-0.3 0.9-1.8 0.5-3.7 0.5-6.8-0.4-3.1-1-2-1.3-1.7-1.4-2.3-0.5-1.3v-1.2l0.4-1.1 1.8-3.9 0.1-1.3-1-0.6-1.2-0.3-1.9-1.4-6.1-1.5-2.2 1.1-3.4 4.1-2.3 0.1-1-0.7-2.5-2.7-1.1-0.7-1.2 0.3-6.2 3.7-1.8 1.5-3.6 4-2 1.7-2.3 1h-2.1l-1.9-1.6-0.5-2.6 0.1-3.1-0.4-2.9-0.5-1.2-2.1-2.9-0.7-1.3-0.2-1.3v-4.5l-0.6-4.3-0.1-1.5 0.2-3.2-0.1-1.6-0.5-2.5-0.8-2.6-1.1-2.4-1.2-2-0.9-0.9-2.1-1.2-6.2-5.9-0.6-2.1 0.5-2.4 2.6-4.7 0.1-1.1-0.5-1.4-0.6-1-2.7-2.4-0.9-1.2 0.2-0.9 0.7-1 0.6-1 0.2-1.4v-1.2l0.2-1.1 2.6-2.8 1-1.9-0.1-2.1-1.4-2.5-1.6-1.7-0.8-1-0.3-1.2 0.3-1.4 0.6-1.1 0.5-1.3-0.1-1.5-0.6-1.1-1.5-1.7-0.7-1-0.6-1.5 0.1-0.8 1.5-1.7 0.7-1.3-0.1-1-0.3-1.1-0.1-1.5 0.6-1.3 0.9-0.8 1.9-1.2 0.9-1.1 0.2-0.9-0.4-2.5v-2l0.6-0.7 15.7-0.3 0.2-1.4 0.5-0.5 1.6-0.5 0.1-0.5-3.3-0.6-1-1.5-0.1-1.9 0.7-1.9 3.2-4.2 0.5-1 0.1-1v-0.9l0.1-1.2 0.7-1.7 3.5-5.2 2-2 2.3-0.9 4.9-0.6 2.2-0.8 1.9-1.5 3.6-3.9 2.6-3.3 1.4-2.2 0.5-2.3 0.2-2.9-0.3-8.1-1.1-4.1-0.5-3.9 1.9-4.4 2-1.6 2.1-1.2 3.1-1.1 0.9-0.7 1.4-2 0.5-1.1 0.3-0.3 0.7-0.2h0.7l1.4 0.5 0.7-0.2 0.4-1-0.5-1.3-0.7-1.3-0.4-1 0.1-1.3 0.6-2.8 0.1-1.5-1.2-9.1-0.4-1.5-1.7-0.6-0.6-0.3-0.4-0.6-0.1-1.3-0.2-0.7-0.9-1.1-0.8-0.4-1-0.2-1.1-0.5-1.6-1.6-1.3-2-0.4-2.4 1-2.4 1.2-2.2 1.3-5.2 0.8-2.5 4.8-8.5 0.5-1.3 0.4-1.1 0.2-1.3 0.1-1.5 0.9-4v-1l-0.9-0.7-1-0.4-0.6-0.6 0.4-1.8 0.8-1.1 0.9-0.7 2-0.8 1.3-0.1 2.7 0.5 1.1-0.3 0.8-0.7 1.3-1.9 4.3-5.2 1-1.8 0.5-1.3-0.1-0.7-0.3-0.8-0.3-1.2-0.1-1.3 0.2-0.8 0.5-0.5h1l3.2 2.2 1.7 0.5 1.6-0.9 0.9-1.9v-2l-0.6-2-0.9-1.5-1.4-1.1-3.2-1.9-1-1.4 0.2-1.4 3.3-2.1 1-1.2-0.6-1-1.7-1.6-0.5-1 0.1-1.1 0.8-4.3 0.2-0.6 0.6-0.9 0.1-0.6-0.3-0.6-0.3-0.5-0.2-0.6v-0.7l0.8-1 1.4-0.4h2.6l1-0.4 0.8-0.7 1.3-2.1 0.9-0.9 2.7-1.7 1.7-1.8 0.4-2.3-0.8-5.3 0.1-1.3 0.4-1.1 0.2-1.1-0.2-1.4-3.3-9.2-0.5-2.5-0.1-2.9 0.2-3.3-0.2-2.1-1-1.4-3-2.1-2.4-2.4-0.5-0.2-0.4-0.2-0.3-0.3 0.1-0.8 0.4-0.4 0.7-0.2 3.7-0.5 1.2-0.3 1.1-0.7 0.8-0.9 1-2.1 0.6-1 3.7-4.2h101 63.4l39.2 0.1h0.1z" name="Santa Cruz">
  <title>Santa Cruz</title>
 </path>
 <path id="Tierra_del_Fuego__Antartida_e_Islas_del_Atlantico_Sur" d="m248.1 2185.5 0.6-2.8v-4.7l0.5 0.5 1.2 2.3 0.4 0.8 1 1.2 0.4 0.7 0.2 1.3-0.9 0.7h-3.4zm216.1-14.8 0.8 0.6 0.9-0.6 0.3 0.5 0.7 0.1 0.7 0.4 1.5-0.5 0.9 0.1 0.6 0.7 0.6 0.8 0.6 0.6h0.6l0.3-0.8-0.2-0.9v-0.7l0.8-0.3 0.3 0.2 0.7 0.9 0.5 0.1 0.4-0.2 0.8-1h0.5l0.3 0.5 0.6 1.9 0.5 0.6 0.6-0.1 1.5-1.3 5.5-1.6 1.7 0.6-0.4 0.6 1 0.3 1.1-0.9 1-0.7 0.7 1.3-1.1 0.9-0.4 0.5-0.4 0.7-0.6 1.8-0.4 0.6-0.7 0.3-1 0.1-0.6 0.3-2.5 2.2-0.6 0.1-0.6-0.4 0.3-0.8 0.9-1.9 0.2-0.5-0.3-1.3-0.6-0.2-0.7 0.6-0.7 0.9-0.7 0.7-0.7 0.2-1.8-0.1-0.5-0.2-0.6 0.3-0.2 0.3-0.4 1.4-1.3 0.7-4.6 0.8-0.3 0.9-0.7 0.5-0.8-0.2-0.6-0.9 0.1-1 0.3-1.2 0.6-2-0.9 0.1-0.4 0.2-0.4 0.4-0.7-0.7-0.6 0.1-1.1 1.1-2.7 1.8-0.6 0.6-0.9 1.2-0.6 0.6-0.8 0.4-0.9 0.2h-1.7l0.4-0.9 0.3-0.3v-0.6h-0.6l-0.6 0.2-0.5 0.4-0.4 0.6 0.7 0.6-0.7 0.6-2.4 1.2-0.5 0.7-0.8 1.7-0.4 0.6-0.9 0.3-2.6-0.1-0.6-0.2-0.3-0.8 0.3-0.6 0.5-0.7 0.5-0.9-4.5-3 0.3-1.6 1.1-1 1.2-0.9 0.5-0.9 0.7-1 1.5 0.7 2.5 1.8 1-0.2 3-1.3 0.9-0.9-2.7-2.9-0.5-1.3 1.3-0.6 0.4 0.4 1.3 1.9 0.6 0.7 1.7 0.6 0.5-0.2 1-0.8 0.4-0.2h0.9l0.4 0.5 0.2 1 0.1 1.3 0.1 0.6 0.4 0.2 0.5-0.2 0.1-0.4-0.1-1.1v-1.5l-0.2-1.2 0.1-1.1 0.6-1.3 0.5 0.1 0.7 0.7zm-215.5 5.8 0.3-69.1 0.1-22.8 0.2-45.1 0.1-22.3v-22.1l1.7 1.2 0.4 0.7 1 2.6 0.4 0.8 3.3 4.9 3.2 5.9 0.9 1.2 3.4 3.1 1.6 2.1 1.3 2.6 1 3.1 1.8 8.9 0.2 1.3-0.3 1.3-0.5-0.8-0.6-1.8-1.4-6-1.2-0.7-1 0.1-1.2 0.7-1.6 1.2-1.5 1.5-2.5 3.1-3 2.9-1.7 3.9-0.5 2.9 0.7 3.1 2.1 2.4 2.9 2.5 2 0.2 2.3 0.8 3.4 0.9 5.4-0.5 3.9 2.5 1 2.6 0.7 1.7-0.3 2.9 0.2 0.7 0.7 1.6 0.5 3.9 0.4 1.7 2.8 5.5 0.4 1.1 9.5 10.6 3.5 2.7 1.1 1.3 0.2 1.3-0.5 1.3 1.3-0.2 1.1-0.2 1.5 1.1 3.6 1.9 0.4 1-1.3 0.4-0.6 1.5 0.2 2 0.6 1.2 13.7 12.5 7.9 5.9 5.7 2.8 3.3 2.2 0.9 1.6 1.8 1.1 7 3.1 3.3 3.3 2.4 5 5 5 1.3 2.2 1.8 1 0.5 2.1 1.7 0.7 1.5 0.3 2.1 0.7 4.4 2.9 17.2 8.7 0.7 0.2 1.4 0.2 0.7 0.2 1.7 1.6 0.5 0.2 3.9 0.3 3.5 1 12-1.9 2.6 0.4h1.3l3.5-1.6 7.7 1.2 0.7 0.5-0.4 1.3-1 1.2-0.8 0.5-0.4 0.8-1.5 4.6 0.2 0.5 0.3 0.9 0.2 0.5-1.7 1.6-0.4 0.6 0.1 0.8 0.3 1v0.9l-1.1 0.6-1.6 1.5-0.4 0.6-1.3 5.3-0.6 0.7-0.8 0.5-0.6 0.1-1.1-0.3-0.1-0.7v-0.9l-0.3-1.1-1.3-0.9-1.8 0.1-1.1 0.9 0.4 1.7-1.1 1.6-4.1-0.4-1.7 0.5-0.4 0.7-0.2 0.9-0.4 0.8-0.7 0.6-1 0.3-0.8-0.2-0.7-0.7-0.5-1.1-0.1-0.5 0.1-1.2v-0.7l-0.5-1.1-0.6-0.1-1.9-0.2-2.1 0.9-3.3-1.4-1.2 1-3.3-0.8-1 0.8 0.7 1.3 1.1 1.2-0.9 1.5-1.2 1.3-3.4 1.1-2.8 1-4-0.3-6 0.2-2.8 0.9 0.2 1.5-0.2 1.4-2.6 0.7-1.3 0.5-4.5-0.1-4.5-1.7-1.5-0.9-1-1.2-0.9-1.4-0.8-1-4.5-3.3-1.4-0.5-5.7-0.7-4.3-2-15.1-1.1-10.4-1.6-6.4 0.5-13.2-1.5-7.3-1.5-2.3-1.9-4.8-0.5-2.7-1.7-1.5-0.6-0.6 0.8 0.2 2-0.2 0.8-0.7 0.8-9.6 0.9-1.3-0.4-0.9-0.8-1.5-2.4-2.1-2.3-0.3-0.2z" name="Tierra del Fuego">
  <title>Tierra del Fuego, Antártida e Islas del Atlántico Sur</title>
 </path>
 <path id="San_Juan" d="m344.5 568.6-12.8 0.7-1.9-0.4-0.8-0.4-0.6-0.6-1.1-0.4-1.1-0.3h-1.1l-1.7 0.5-4.2 0.3-1.1-0.1-0.7-0.1-1.6-0.5-2.1-0.5-1.1 0.7-0.5 0.5-0.4 0.7-0.1 0.4-0.1 0.7 0.3 2.1 0.1 0.6-0.1 1.1 0.3 0.9 0.1 1-0.9 2.9-0.2 1.2 0.1 1.4 0.1 0.9v3.6l0.1 1.9-0.1 4-3.7-2.6-1.3-0.3-0.5 0.5-0.6 0.2-0.7 0.1h-3.3l-3 0.7-1.4 0.2-0.4-0.1-0.8 0.4-0.5-0.1-1.2 0.4-4.6-0.8-0.4-0.2-1.1-1.8-1.4-1.2-1.9-0.9-0.6-0.6-0.5-2-0.5-0.8-1.3-1.4-1.8-1.1-1.7-0.1-5.6 1.5-0.5 0.3-1.9 1.6-1.8 0.8-1.1 0.3-6 0.4-0.7 0.4-0.4 0.5-0.7 1.2-1.7 1.3-8.8 6.1-2.6 1.4-9.8 0.1-0.5-0.2-0.3-0.4-1-14.8-0.4-0.3h-0.7l-2.4 0.5-1.7-0.1-0.7-0.4-0.9-1-0.7-1-0.5-1-2.1-2.5-1.1-1-0.7-0.2-0.8-0.1h-0.4l-0.6 0.3-0.8 1.4-0.7 0.4-0.6 0.1-0.6 0.2-0.3 0.3-0.3 0.5-0.6 1.7-0.6 0.7-0.8 0.3-0.8 0.2-2.5-0.5-2.7-0.1-1.3 0.2-0.3 0.1-1 0.6-1.3 1-0.5 0.4-1.1 0.5-3.1 1-1 0.6-0.4 0.4-0.3 0.6-0.2 0.7 0.2 3.4-0.2 1.4-0.4 0.6-0.6 0.5-1 0.5-5.8 0.3-9.8 2.4-2.2-0.5-1.2-0.5h-2.1l-7.6 1.2-0.6 0.3-0.7-0.9-1.1-0.5-0.9-0.2-0.6-0.4-0.4-1.5v-0.5l0.1-1.1v-0.5l-0.2-0.7-0.6-1.3-0.1-0.7 0.1-0.5 0.3-1 0.1-0.5-0.2-0.4-0.8-0.7-0.2-0.5v-1.2l-0.1-0.4-0.3-0.6-0.9-0.9-0.2-0.5 0.1-0.7 0.7-0.6 1.1 0.2 2.1 0.8 1.2-0.1 0.5-0.5 0.4-2.2 0.5-0.8 0.5-0.7 0.3-0.8-0.1-1.1-0.6-1-1-1.1-1-1-0.9-0.5-2.2-0.3-1.8 0.1-1.7-0.5-1.8-1.9-0.6-1-0.4-1.4-0.3-1.4 0.1-2.5-0.5-1-1.5-1.7-2.7-5.4-0.4-1.5-0.1-1.1 0.5-2.5 0.2-2.2-0.1-2.2 0.2-1.1 0.9-1.8 0.1-1.1-0.2-1.3-0.4-1.1-0.1-1.1 1.1-2.3 0.2-1v-2.3l0.1-1.2 0.3-0.9 2.8-4.4 0.6-0.5 1 0.5 0.6 2.6 0.6 0.7 0.7-0.2 0.8-0.7 0.6-1 0.5-1.7 0.4-1.1 1.2-1.8 0.9-0.5 2.2 0.3 0.6-0.1-0.1-0.8-0.6-0.8-1.5-1.3-0.8-0.9-0.5-0.9-0.2-1.1 1-8 0.7-2.1 1.2-1.6 0.3-0.7-0.2-1.2v-0.7l0.2-1.2 0.3-0.9 0.9-1.8 0.8-2 0.9-4.4 1-1.7 0.9-0.6 0.8-0.4 0.6-0.6 0.4-1.1-0.2-1.2-1.3-2.2v-1l1.3-0.6 4.2 2 1.7 0.5 1.8-0.5 1.5-0.8 1.3-1.1 1.3-1.5 0.5-1 0.1-1.1 0.1-2.2 0.2-1 0.4-1 0.5-0.5 0.9-0.4 0.5-0.4 0.6-2.2-0.7-2-1.5-1.5-1.9-0.7-2 0.2-0.8-0.1-0.3-1 0.2-0.8 1.7-2.7 0.7-2.1 0.3-2.1 0.3-7.8-0.6-5-0.5-0.8-1.3-1.1-0.5-1.1 0.1-1.3 0.2-1.8v-1.7l-1.2-5.5-0.2-0.6-0.3-0.7-0.4-0.5-0.5-3-0.3-0.8-0.5-0.8-0.3-0.8-0.1-0.9 0.2-2.8 0.4-1.2 1.1-0.6 0.5-0.2 0.5-0.3 0.5-0.5 0.3-0.5-0.1-0.4-0.6-0.8-0.1-0.3 0.3-0.3 0.5-0.3 0.7-0.7 1.4-0.8 0.5-0.6 0.3-0.6 0.1-0.5 0.2-0.3 0.8-0.3 2.5-0.5 1.1-0.5 0.9-1.2 0.4-1.3v-1.5l-0.3-2.9-0.2-1.1v-1.2l0.2-1.1 0.4-1.1 0.5-0.9 0.6-0.7 0.3-0.5v-1l0.1-0.5 1.4-2.6 0.2-1.1-0.2-1.2-0.7-2.4-0.3-1.3 0.2-2 0.6-1.8 0.9-1.7 1.1-1.5 0.4-0.3 0.7-0.3 0.2-0.7 0.1-6 0.9-3.2 3.4 0.9 0.4 0.2 1 0.6 0.8 0.4h0.7 0.6l1.3-0.5 0.9-0.2 0.7 0.6 0.8 1.4 0.5 0.6 0.6 0.3 0.9 0.3 2.5-0.2 0.8 0.4 7.4 6.2 1.4 1.6 0.7 2 0.7 1.3 0.6 1.8 0.4 2.2 0.5 1.6 3.4 3 0.8 1 0.6 1 0.5 1.9 0.8 2.1 0.4 0.6 0.5 0.6 1.3 0.9 0.5 0.6 0.3 0.4 0.4 0.7 0.3 0.7v0.5l-0.1 0.6-0.5 0.9-0.5 0.4-1.2 0.4-0.5 0.4-0.5 0.5-1.3 2.3-0.2 1.8-0.1 2.6 0.3 2.2 0.7 0.9 0.9 0.8 0.4 1.1 0.5 0.9 0.3 0.4 0.1 0.7-0.3 0.5-0.6 0.3-0.5 0.2-0.3 0.5-0.2 0.8-0.3 3.4 0.3 1.6v0.5l-0.3 0.9-0.7 1-0.7 1.1-0.3 1-0.3 2.9 0.1 1.6 0.1 0.7 0.4 0.6 1.8 0.8 1.2-0.1 2.8-0.9 1 0.1 1.4 0.6 0.6 0.1h0.7l0.9-0.2 2.6-1.1 1.4-0.3 1.3-0.2 1 0.3 2.9 1.9 0.9 0.3 1.3 0.1h0.7l1.2-0.2 0.7-0.1 1.5 0.2 6.2 2.1 1.5 0.1 0.4 0.2 0.3 0.3 1.2 1.9 0.8 0.8 2 1.4 2.9 1.9 0.6 0.6 0.4 0.6 0.7 1.9 0.7 0.4 2.2 0.7 1.1 0.8 2.5 2.5 0.2 0.9 0.4 1.1 0.6 0.6 1.8 1.1 0.7 0.7 1.3 2.1 0.7 0.7 1.3 1.1 0.7 0.4 2.5 1 0.7 0.7 1.3 2.1 0.5 0.6 7 5.5 0.4 0.5 1.5 2.5 0.7 1.4 0.5 2.4 0.3 0.9 0.6 0.7 3.3 2.1 0.6 0.7 1.3 2.5 0.3 0.5 0.7 0.7 2 1.8 1.1 0.7 0.5 0.4 0.8 0.8 2.3 3.8 0.4 0.5 1.3 2 0.7 0.7 2.1 1 0.7 0.5 0.5 0.7 2 4.9 0.6 0.9 0.6 1 0.8 1.5 1 1.4 0.1 0.8-1.9 6.1 0.2 1.7 2.8 2.5-2.2 16 0.5 1.4 1.7 3.5 0.4 1.2v3.2l0.1 0.6 0.6 1 4.1 4.1 0.5 0.3 1 0.4 2.9 0.3 0.4 0.2 0.2 0.3 0.2 0.8v1.3l0.6 2.4v1.7l0.4 0.8 0.5 0.4 0.4 0.2 0.7-0.1 0.4 0.2 0.5 0.5 1.3 2.4 1.3 3.6z" name="San Juan">
  <title>San Juan</title>
 </path>
 <path id="Chubut" d="m381.4 1418.6 0.4 0.6 0.8-0.1 0.4 0.4 0.8 0.5-0.2 0.6-1-0.5-1.1-0.1-1-1-0.5-0.8 1.4 0.4zm20.6-2.6 0.7 0.6h-0.7l-1-0.1-0.6 0.2-0.6-0.7 0.6-0.6h0.6l1 0.6zm26.4-210.4 2.5 5.6 1.6 2.3 1.9 1.8 3.9 2.7 0.6 0.1h1.1 0.6l0.4 0.3 0.8 0.7 1.2 0.6 1.3 0.5 1 0.2 2.5 0.1 1.1 0.3 1 0.8 1.1 0.8 1.2-0.2 1.2-0.5 1.2-0.3 1.4 0.1 0.6 0.2 0.5 0.4 0.7 1 0.2 0.4-1.4 0.6-1 1-3.8 5.6-0.3 0.7-0.5 2.1 0.4 0.5 1.4 0.4 4.1-0.3 2 1h1.7l1.8-0.3 1.1-0.4 1.1-0.6 0.8-0.3 9.4 0.7 1.2-0.3 0.5-1.1 0.3-0.2 1.4-1.4 0.3-0.7 0.1-0.4-0.1-1.6-0.2-0.4-0.1-0.4 0.1-0.2 0.5-0.4 0.1-0.4-0.1-0.8-0.5-1.3-0.1-0.6-0.4-0.9-1.1-0.4-2.2-0.3-5.5 0.2-2.6-0.3-2.2-1.3 1.7-0.9 7.2-1 6.2-3.5 4-3 4.4-2 3-0.9 2.1 0.5 1.8 1.8 1.2 2 1.5 4.1 0.2 1.2 0.3 1.1 0.8 0.9 1.6 1.5 1.1 2.4 0.4 2.8-0.3 6.8 0.9 10.3-0.7 2.7-1.2 2.9-0.8 2.7 0.6 2.5-2.5 3.4-3.3 1.6-10.3 2.4h-3.1l-1.1 0.1-2.2 1.2-1.9 0.3-1.5-1.1-1.2-1.4-1.7-2.6-0.9-1.1-1-0.5-0.9-0.7v-1.6l0.4-1.6 0.3-0.8 1-4.1 0.5-0.6 0.6-0.2-0.3-0.6-1.1-1-1-0.5-0.3-0.3-0.4-0.6-1.8-1-0.7-0.8-0.2-1.2-0.6-1-1.1-0.7-2.1-1-2.5-0.7h-5.2l-3.7 0.6-1.2 0.4-1.2 0.6-1.3 1.2-1.7 0.3-0.6 0.4-0.4 0.4-2.2 3-0.9 0.9-0.9 0.4-2.5 0.3-2.5 0.7-1.2 0.9-0.6 1-0.4 1.2-0.7 1.3-1.6 1.7-0.3 1.1 0.3 1.6 0.8 1 2 0.5 1.6 1.3 3.2 1 6.2 3.1 1.6 1.1 2 1.9 1 0.7 1.6 0.4 1.1 0.6 0.6 0.2h0.7l1.3-0.4 1.3-0.1 0.5 0.1 0.4 0.2 0.8 0.9 0.9 0.5 0.4 0.4 1 0.7 1.3-0.1 4-1.6 0.6-0.1v0.3l0.7 1.8-0.3 0.8-1 1.2-6 4-5.9 2.4-10 3-9 6.3-1.5 2.1-1 0.9-1 0.8-0.9 0.3-0.5 1.6v1.2l0.3 1.2 0.2 1.5-0.3 1.2-0.8 0.7-1 0.7-4.1 4.3-1.8 3.5-0.9 1.2-2.7 2.4-0.6 0.4-1.9 3.5-0.1 0.7-0.7 1.1-0.2 0.6 0.1 4 0.2 1.1 1.1 2.3-0.3 0.9-0.3 1.4v1.4l0.4 0.6 0.7 0.5 0.4 1.2 0.3 1.3 0.6 2-0.3 2.6 0.2 0.9 0.7 0.3 0.9-0.3 0.6 0.8-1.2 0.9 0.5 1.6v1.1l1 0.7 1.8-0.1-1.3 1.1-1 1.1-0.3 1.2 0.2 2.1 0.6 0.3 0.4 1.3-0.8 0.4-1.6 0.4-1 0.4-0.8 0.9-0.5 2.3 0.1 1.7 0.1 1.1 1 1.5 0.4 0.3 0.4 0.5-0.2 0.7 0.3 1.3 0.7 0.4-0.2 0.5-0.1 0.6 0.6 0.8h0.8l0.4 0.3 0.1 1.2 0.2 0.7-0.6 0.3-0.3 0.6-0.1 0.6-1.2 0.1-0.3 0.5-0.2 0.7-0.5 0.1-0.3 0.4 0.3 0.3 0.1 0.3-0.5 0.2 0.3 0.4-0.2 0.2-0.5-0.1-0.4-0.4-0.3 0.2-0.1 0.4 0.3 0.4-0.2 0.3-0.3 0.2-0.2 0.3-0.4 0.2-0.2 0.5 0.3 0.2 0.5 0.1 0.2 0.4-0.5 1.2 0.4 0.4 0.9-0.3 0.7 0.2v0.4l-0.3 0.3v0.4l0.4 0.2v0.4l-0.5 0.1-0.7-0.2-0.3 0.3-0.2 0.8-0.3 0.1-0.2-0.4 0.2-0.7-0.3-0.6-0.6-0.1-0.5 0.2-0.2 0.4-0.7-0.2-0.4 0.3v0.3l0.2 0.6 0.4 0.3v0.5l-0.4 0.2-0.6-0.2-0.3 0.3-0.3 0.5 0.2 0.6 0.5 0.4 0.4 0.1 0.3 0.3 0.5 0.1-0.1 0.5-0.5 0.4-0.3-0.1-0.1-0.6h-0.3l-0.3 0.3-0.3 0.9-0.3-0.3-0.4-0.3-0.1-0.6-0.4-0.2-0.2 0.1-0.4-0.4-0.4 0.3-0.6 0.2h-0.6l-0.2 0.4v0.6l0.2 0.7h-0.7l-0.2 0.3h-1l-2.2 1-1.7 2-1.1-0.3-2.2 1.7-0.9 1.1-0.5 1-0.7 1.1-0.5 1.5 0.1 2-0.1 1.1-0.2 1-0.2 0.6-0.7 0.2-0.5 0.4v1.5l0.4 0.4-0.3 0.2-0.1 0.6 0.6 1.6 0.9 0.3 0.6-0.1 0.2 0.3 0.4 0.1 0.4 0.8h0.9l0.7-0.4 0.8 0.3 1 0.8 1.2-0.3 1 1.1 0.9 0.3 0.7 1.2-0.6 0.1-0.7 0.8-0.6 0.4-0.3 0.4-0.4 0.4-0.7-0.3-0.4 0.6-0.5 0.5 0.3 0.8 0.6 0.7 0.2 0.9-0.9-0.2-0.5-0.4-0.5 0.6 0.2 0.4 0.7 1.1-2 1.4-1.1-0.4-1 0.1-0.3 1.3-2.2-1.9-0.8-0.8-1.7 0.2h-0.9l-0.7 0.9-0.7-0.3 0.1-1.3-0.6-1-0.8 0.1-0.8-0.1-0.8 0.4-0.1 1.3 0.2 0.9h-1.1l-1.4 0.6-1.4-0.4-1-1.4-1.6-1.4-1.4 0.1-3.3-1.1-2.9 0.5-1.6-0.2-1 1.6-2 1.7-1.1 1.3-0.9-0.7-0.8-0.3h-1.7l-0.8 0.2-0.3 0.6-1.1-0.2-0.5 0.8-3.2 1-1.4 0.8-1.4 1.4-0.1 1.6 2.5 0.8 1.1 0.5-1 1.4-4.9-2-0.8-0.1v1.9l2.2 0.6 1.1 1.3-0.1 1.6h-1.9l-5.4-0.1-5.8 1.1-4.2 0.4-3 1.5-1.6 1.5-2.4 1.9-2.8 3.3-1.6 2.9-1.9 2.5-1.6 2.5-1.7 2.9-1.1 1.9-2.4 2.3-1.2 2.1-0.7 0.8-1.2 0.9-0.6 1.4-0.6 1.9v2.2l0.1 1.1 1 0.9-0.3 0.8-0.3 0.3-0.9 0.2v1l-0.3 0.9 0.1 0.4 0.4 0.6-0.2 0.7-0.6 0.6-1-0.3-1.6 1.3-0.7 0.7-0.7 0.5-0.9 2.6-1.5 1.2-0.5 1.4-1.1 1.3-0.6 1.3 0.8 1.8-1.3 0.6-1 1.9-0.2 0.5h-0.1l-39.2-0.1h-63.4-101l1.9-2.1-0.7-2.6-0.8-2-1.2-1.6-1.8-1.1-2.1-0.8-0.8-0.7-0.3-1.2 0.3-1.1 0.4-1 0.1-1.1-0.7-1.3-1.3-1.3-0.5-0.7-0.1-1.2 0.1-0.5 0.8-1.3 0.1-0.7-0.3-0.9v-0.5l0.1-1.2 0.1-0.8 0.9-1.8 1-1.1 0.1-0.5-0.2-0.5-0.7-0.8-0.2-0.2 0.8-1.7 1.8-1.1 2.1-0.7 1.6-0.3 3.9 0.3 1.8-0.4 1.8-1.4 0.6-1.2-0.2-1-1-2.1-0.4-1.5 0.1-0.7 5-2.1 0.9-0.6 0.8-0.8 1.2-1.9 0.8-0.7 1.1-1.6-0.3-2.3-1-2.4-1.3-1.8-1.6-1.6-2.7-1.9-1.9-2.6-0.5-0.8-0.9-3.2-2-4.3-1.7-2-1.7-0.2-1.9 0.3-2.1-0.4-0.8-0.6-1.3-1.7-0.7-0.6-1.2-0.3-1.1 0.1-1.2 0.4-1 0.6-2 0.3-2-1-2-1.3-2.1-0.8-2.1 0.2-1-0.3-0.4-1.1 0.3-2.4v-1.1l-0.7-3.9 0.6-1.5 1.4-0.4 1.9 0.7 1.2 0.5 6.6 1.3 1.2-0.2 0.9-0.7 0.6-0.8 0.7-0.7 1.2-0.2 1.2 0.3 3.3 1.4 2.1 0.1 4.6-2.1 2.1-0.5 2 0.7 3.9 2.8 2.2 0.7 1.9-0.5 1.8-1.3 1.2-2 0.3-2.7-0.4-2.5v-1.2l0.3-1.3 1-2.3 0.7-1 0.6-0.5 1-0.1 1-0.2 0.8-0.7 0.5-1.5v-1.4l-0.4-0.6-0.6-0.6-0.7-1-0.3-1.2-0.2-1-0.3-1-0.7-1-1.2-0.8-1.3-0.2-2.5-0.1-7.6-1.5-10.3 0.1-2.6-0.7h-2.1l-2.2 0.7h-2.1l-1.9-1.8-0.2-1.3 0.9-0.7 1.1-0.6 0.7-0.5 0.4-1.3-0.4-1-0.6-0.9-0.4-1.2 0.2-1.3 1-2 0.1-1.2-0.4-1.3-1.6-2.9-0.7-2.6 1.2-1 2-0.6 1.6-1.5 4.7-7.3 0.5-1.3v-1l-2.8-4.7-0.7-0.9-0.4-0.3-0.9-0.5-0.3-0.4-0.2-0.8 0.2-0.5 0.3-0.5 0.1-0.6-0.1-1.5-0.3-0.2-0.7 0.4-1.1 0.4-0.9-0.4-0.2-1.2 0.3-1.3 0.5-0.9 0.8-0.6 2.1-0.8 1-0.6 0.8-0.9 0.3-0.9-0.4-3.9-0.2-0.9-0.4-0.5-2.2-1.6-0.3-0.3-0.8-1.2-0.6-0.4-1.1-0.1h-1.4l-1.1-0.2-0.4-1 0.1-0.4 1-1.4v-1.5l-0.5-1-0.9-0.7-1-0.2-0.5 0.1-1 0.4-0.5-0.3-0.4-0.6 0.2-0.4 0.4-0.3 0.3-0.5-0.2-1.9v-0.5l0.3-0.6 0.8-0.6 0.3-0.5 0.2-0.5 0.1-2.1 0.3-0.5 0.6-0.2 1.2-0.1 2-1 1-0.2 2.2 0.5 0.5-0.8 0.1-1.3v-1.2l-0.1-0.6-0.3-1.1v-0.7l0.1-0.6 0.5-1.2 0.1-0.6-0.4-1.2-1-0.8-4.5-1.9-7.5-0.9-2.2-1-2.1-1.8-1.6-2.5-1-3 0.3-2.4 1.2-4.5 0.3-2.3-0.4-9.9-0.3-1.1-0.7-2.3v-0.9l0.4-1.7v-0.5l-0.1-0.6-0.5-1-0.2-0.5 0.3-2.5 1-1.8 1.5-1.3 2.5-1.3 0.2-0.7-0.4-0.8-1.4-2.4-0.1-0.7 0.8-3.7-0.5-1.3-2.6-2.5-0.6-1.7 0.5-1.7 1.1-1.5 1.3-1.3 0.9-1.6 0.4-1.9 0.5-1.7 1.5-1.4 1.7 0.1 0.8 1.3 0.6 1.5 1.3 0.7 0.7-0.4 0.4-0.6 0.4-0.7 0.4-0.5 0.7-0.4 3.5-0.6 1.4-0.7 1.2-1 0.6-1.4-0.1-3.5-0.2-0.5-1-1.2-0.3-0.5h26.9 91.8 5.6 42.8 17.6 60 42.6 15 30.4l3.2 0.7h0.4z" name="Chubut">
  <title>Chubut</title>
 </path>
 <path id="Mendoza" d="m311.3 591.4 0.1 2.5 1.4 5.5 1.2 0.8 0.5 0.5 0.4 0.7 0.1 0.5-0.1 0.9 0.2 0.4 0.6 1 0.2 0.5 0.2 1.6 0.7 1.8 0.1 0.8 0.1 0.9 1 4.8 0.3 0.8 0.4 0.7 0.6 0.7 0.6 0.4 0.3 0.5 0.4 2 0.5 0.7 0.2 0.6-0.8 1.9-0.3 1.6-0.2 0.5 0.6 2.5v1.4l-0.7 0.7-0.3 0.7 0.4 1.6 1 2.6v0.7l-0.2 1.1-0.1 0.6 0.2 0.7 0.4 1.2 0.4 5.4-0.3 4.8 0.4 1.6 0.3 0.5v2.2l1.2 2.8 0.2 1.1-0.2 2.6v1.2l0.5 1.4 4.8 8.2 1 1.1 0.4 0.5 0.6 2.2 0.2 0.5 0.7 2.7 1.2 2 1.2 4.1 0.2 1.1 0.4 0.8 0.9 0.7 1.8 1.2 0.8 0.7 0.8 0.9 0.6 1.1 0.5 2.7 0.6 0.9 0.8 0.5 0.7 0.7 0.4 0.9 0.4 1.8 0.8 1.6 0.1 0.9-0.3 1.8-0.2 3.2-0.2 1.3-0.7 0.9h-0.4l-0.6-0.4h-0.3l-0.2 0.2-0.2 0.9-0.7 1.1-0.1 0.8 0.5 1.6 0.1 4.7 0.6 1.1-0.7 1.3 0.5 0.7 0.8 0.7 0.4 1.2 0.3 5.2 1.2 3.9 0.2 1.3 0.4 1 2.3 2.6 6 11.9 1.3 4.4 0.1 1.2-0.5 3.2 0.2 0.8 0.7 2.3 0.1 1.1 0.2 0.8 1 1.8 0.2 1v1l-1 3.6 0.6 0.7 0.3 0.5 0.1 0.5v0.8l-0.6 1.4 0.6 3.9v1l-0.6 3.8-0.2 5.5-0.2 1.2-1.5 3.5-0.6 6.2-2 9.8-0.4 4.4-0.7 3v1l0.3 2 0.3 0.1-22.2-0.1-3.7 0.1h-55.7l-1 0.4-0.8 0.9-0.4 4.1-0.1 2.6 0.1 0.9 0.3 0.8 1.4 7.5 0.4 34.7v45.5l-8.9-1.2-0.8-0.5-1-1.1-1.5-3.3-0.7-0.8-1-0.4h-3.3l-0.5-0.2-1.1-0.6-0.6-0.1h-1.6-0.5l-1-0.8-1.9-2.2-1-0.5-6.4 0.6-2.6-0.3-2.5-0.8-1.7-1.2-1-2-1.1-4.8-1.3-1.9-1-0.5-2.4-1-2-0.4-3.3-1.5-2.1-0.2-8.8 1.7-2.6-0.2-2.5-0.5-2.1-0.8-4-2.5-1.8-1.6-3.6-4.8-0.3-0.8 0.2-0.7 0.9-1 0.3-0.7 0.1-0.7v-1.2l0.3-0.6-0.4-0.9-0.1-2.6-0.8-1-0.7-0.3-0.9-0.6-1.5-0.7-1.9-1.7-0.5-0.5-0.3-0.5-0.7-2.5-0.4-1.2-0.6-0.9-1.7-1.5-0.9-0.5-0.5-0.5-0.7-1.4-1.1-1.1-0.7-0.9-0.3-0.1-3.7-1.2-0.5-0.3-0.9-1.1-1.1-2.2-1.4-3.9-0.2-1-1.1-4.3-0.4-0.8-0.6-0.5-0.8-0.3-0.7 0.1-0.2 0.1-0.6 0.8-0.5 0.3-0.4-0.1-0.6-0.3-0.4-0.5-0.5-0.9-0.6-1.6-0.2-1.2-0.1-1 0.1-0.6 0.2-0.4 0.6-0.6 0.3-0.7 0.1-0.8v-1.8l-0.2-1.1-0.3-1-0.2-0.3-0.8-0.8-1.9-1.5-0.3-0.4 0.4-0.8 0.6-2 0.4-0.6 0.8-1 0.4-0.7-0.2-1-1.5-3.8v-0.7l0.4-1.2 0.3-0.4 0.7-0.7 0.1-0.5-0.4-0.4-1 0.1-0.5-0.2 0.1-2.2 3.1-3.3-0.2-2-0.7-1.3-2.3-6.3-0.1-1 0.6-2.2v-1.3l-0.3-2.4 0.5-2.6-0.5-0.9-0.7-0.8-0.7-1.1-1.2-4-0.1-1 0.5-0.5 1-0.3 0.6-0.5-0.5-1.6-1.8-1.1-2.3-0.3-2-0.7-0.9-2.3 1.8-3.1 7.8-2.6 0.9-4.3-0.2-4.4 1-4.4 3.8-9.5-0.2-0.7-0.6-0.5-0.7-0.9-0.4-1.1 0.3-0.3 0.8-0.2 1-0.6 1.1-1.9 0.5-4.7 0.7-2 0.9-1.1 2.1-1.8 0.9-1.2 1.1-3 0.7-1.3 2.3-2 0.5-1.2-0.1-1.3-0.2-1.8v-1.8l0.3-1.4 0.9-0.9 2.5-0.4h1.1l1 0.2 1.8 0.7 0.3-0.2 0.2-0.8 3.5-1.5 0.2-0.6-0.4-1.5-1.3-2.3-0.3-0.8-0.2-1.1v-0.5l0.2-0.5 0.2-0.9 0.4-4.6v-2.9l-0.5-1.6-0.9-0.2-0.8 0.3-0.5-0.2 0.1-1.7 0.5-2.3v-1.1l-0.8-4.7v-1.3l0.4-0.7 1.7-1.4 0.6-0.6v-0.9l-1.3-2-0.5-1 0.1-1.2 1.1-3.4-0.1-0.6-0.2-1.1 0.1-0.6 0.4-0.3 1-0.4 0.3-0.2 0.2-0.7 0.2-2.8 0.2-1 0.5-0.9 1.3-1.7 0.4-0.9-0.1-1.2-0.9-2.1-0.4-3.3-1.1-1.4-1.7-1-1.8-0.7-1.7 0.3-2.2 3.1-1.3 0.3-1.6-3.6-0.5-0.8-1.7-1.5-0.7-0.8-0.5-1.1v-1.2l0.9-3.4-0.2-1.2-0.5-1-0.3-1 0.4-1.2 0.8-0.6 1.6-0.4 0.7-0.5 0.4-1 0.5-2.5 0.3-1.1 0.9-1.6v-0.8l-0.7-0.5-1.1-0.5-0.9-0.5-1.7-1.7-2.6-3.2-0.8-1.8-1.2-6.5-0.1-1.3 0.2-1.1 0.1-0.5 0.3-0.5h1.1l0.5-0.2-1-1.6-0.1-1 0.1-1.1-0.2-1.3-0.5-1.2-0.8-0.7-2-1.1-0.9-1.8 0.2-4.4-0.7-0.9 0.6-0.3 7.6-1.2h2.1l1.2 0.5 2.2 0.5 9.8-2.4 5.8-0.3 1-0.5 0.6-0.5 0.4-0.6 0.2-1.4-0.2-3.4 0.2-0.7 0.3-0.6 0.4-0.4 1-0.6 3.1-1 1.1-0.5 0.5-0.4 1.3-1 1-0.6 0.3-0.1 1.3-0.2 2.7 0.1 2.5 0.5 0.8-0.2 0.8-0.3 0.6-0.7 0.6-1.7 0.3-0.5 0.3-0.3 0.6-0.2 0.6-0.1 0.7-0.4 0.8-1.4 0.6-0.3h0.4l0.8 0.1 0.7 0.2 1.1 1 2.1 2.5 0.5 1 0.7 1 0.9 1 0.7 0.4 1.7 0.1 2.4-0.5h0.7l0.4 0.3 1 14.8 0.3 0.4 0.5 0.2 9.8-0.1 2.6-1.4 8.8-6.1 1.7-1.3 0.7-1.2 0.4-0.5 0.7-0.4 6-0.4 1.1-0.3 1.8-0.8 1.9-1.6 0.5-0.3 5.6-1.5 1.7 0.1 1.8 1.1 1.3 1.4 0.5 0.8 0.5 2 0.6 0.6 1.9 0.9 1.4 1.2 1.1 1.8 0.4 0.2 4.6 0.8 1.2-0.4 0.5 0.1 0.8-0.4 0.4 0.1 1.4-0.2 3-0.7h3.3l0.7-0.1 0.6-0.2 0.5-0.5 1.3 0.3 3.7 2.6z" name="Mendoza">
  <title>Mendoza</title>
 </path>
 <path id="Neuquen" d="m268.4 915.1-0.1 10.6-0.1 59.6 0.3 1.4 1.1 1 2.3 3 6.5 10.3 0.6 1.5 0.1 1.2-0.1 0.9 0.3 0.7 1.1 0.3-5.4 1.4h-1.7l-2.3-0.8-0.9-0.1-0.8 0.2-0.7 0.5-0.7 0.2-1.4-0.8-1.1-1.4-0.6-0.1-2.1 2-0.8 0.2-1.7 1-3.2 4-1.7 0.9-1.6 0.4-1.6 0.9-1.5 1.5-1.3 1.7-1.5 2.8-0.6 0.9-0.7 0.8-0.9 0.6-2.2 0.9-0.6 1.1-0.5 0.6-1.4 1.2-0.5 0.9-0.8 3.3-0.6 1-2.6 1.6-0.5 0.5-0.3 0.4-2 3.6-0.5 0.8-0.4 0.5-0.6 0.3-2.3 1.1-1.3 0.8-0.3 0.1-1.4 0.2h-1.5l-0.6 0.2-0.7 0.3-2.4 1.8-0.3 0.2-1.1 0.4-1.7 0.9-1 0.8-0.8 1.1-1.1 1.7-0.2 0.3-0.1 0.8-2.7 3.9-0.9 0.8-2 1.6-3.5 3.6-1.3 0.8-1.2 0.3-4.5-0.6-1.7 0.2-0.8 0.2-12.1 7.2-1.1 0.9-0.9 1.1-0.2 0.6-0.1 0.5v1.1l-0.1 0.7-0.7 1.6-0.4 1.3-0.3 3.9-0.1 0.7-0.5 1.4-0.1 0.7 0.1 2.1v0.7l-0.4 1.1-1.1 1.9-1.8 5.1-0.3 1.5v3.3l-0.1 1.7-0.6 1.4-0.5 0.5-0.6 0.5-1.2 0.6h-0.5l-1-0.1-0.4 0.1-0.6 0.8-0.6 2.8-0.5 1.2-1.3 0.7-4.3-0.1-3.9 1.2-2.1 0.1-1.7-1.3-0.8-1.1-1-0.8-1.1-0.4-1.1 0.2-0.8 0.5-2.1 2.3-1.4 1.2-1.8 0.9-1.8 0.5-1.7-0.2-0.7-0.3-1.6-0.3h-0.8l-0.8 0.2-1.3 1.1-0.7 0.4v0.2l-1.2 0.1-1.4 0.4-2.6 1.2-0.5 0.4-0.4 0.5-0.5 0.6-0.3 0.7-0.3 1.5-0.2 0.4-0.6 0.7-1.7 0.4-0.8 0.5-0.3 0.3-0.5 1.2-0.4 0.3-0.8 0.7-0.3 0.4-0.3 0.6-0.1 0.6v0.7l0.1 0.6 0.6 1 0.9 0.7 1 0.5 0.9 0.7 0.8 1 0.7 1.3 0.3 1.3-0.2 1.5-0.6 1.2-0.7 1-3.2 3.7-0.6 1.4-0.3 0.4-0.5 0.4-1.9 1.2-1.5 0.8-2.8 0.8-1.3 0.1-3.1-0.3-9.7-3.9-1.8-0.1h-3.8l-3.4-0.8-6.3-0.4-0.4-0.1v-0.7l0.8-2.8v-1.3l-0.4-1.6-0.6-1.2-2-3-0.5-1.5-1.7-7.1 0.3-0.7 3.8-4.1 1-2.1 0.3-2.4-0.2-0.6-0.5-0.7v-0.7l0.1-0.4 0.9-1.8 1.8-5.9 0.4-0.8 0.6-0.2 2.1 0.6 0.7 0.1 0.5-0.6 2-4.8 0.3-1v-0.7l-0.1-0.6-0.2-0.6-0.4-0.5-0.6-0.3-0.3-0.1-0.7 0.3-0.2 0.2-0.3 0.6-0.7-0.1-0.3-0.4-1.1-1.6-1.5-1.6-0.7-1-0.4-1.1v-0.5l0.5-1.2-0.2-0.6v-0.7l0.4-2 0.2-0.6 0.1-0.6-0.2-0.5-0.4-0.5v-0.5l0.7-0.9 1.7-0.1 2.3 1.1 1.9 0.3 0.6-2.5-0.1-0.7-0.4-1.4-0.1-0.7 0.1-0.5 0.7-0.6 0.3-0.4 1.8-4.2 0.4-1.4-0.2-0.9-0.7-0.8-1.7-1.6-0.5-0.7-0.3-0.9-0.1-1.5-0.2-1.4-1-2.7-0.2-1.4 0.3-1.2 0.5-1.2 0.3-1.1-1.1-1.8-0.2-1.4 0.2-1.5 0.5-1.1 0.8-1h0.6l2.2 2.5 0.8 0.6 0.8 0.2 1.2-0.3 1.1-0.1 0.9 0.2 0.9-0.1 0.8-0.8 0.4-2.4-2.3-2.1 1.3-2.1 0.7-0.8 1-1.8 0.6-0.7 0.4-1-0.8-2.1 0.1-1.2 0.8-1.1 1-0.7 1-0.9 0.4-1.6 0.5-5.3-0.5-8.7-1-4.8 0.1-1.8 0.7-4.1 0.8-1.6 1.5-1.4 4.5-2.4 1.3-1.2 0.9-1.3 0.4-0.2 3.8-0.6 0.8-0.5 2.9-2.2 1.5-0.7h1.9l2.2 0.3 1.1-0.3 0.8-0.7 0.7-1.5 0.2-0.4 1.6-0.7 0.2-0.2 0.1-0.7-0.5-0.8-0.2-0.5 0.2-1.1 0.5-1 1.2-1.8 0.6-1 0.1-1.3-0.7-2.3-1.6-1.6-1.8-1.3-1.7-1.5-1.2-2.2-2.1-10.3-0.2-1.9 0.1-1.9 0.5-2.2v-0.3l-0.7-2.7-0.1-1.2 0.7-1 0.1-0.4v-0.7l-0.1-0.3-1.4-1.9-0.4-1-0.3-1.4-0.4-1.3-1.4-2.4-0.3-2.7-2-3.8-2.5-8.4-0.4-2.8 0.1-1.3 0.3-0.9 0.6-0.8 0.7-0.7 1.3-0.8 0.2-0.4v-0.7l-0.6-1.1-0.1-0.7 0.3-1.3 0.8-2.4 0.1-1.2-0.2-1.5-0.7-1.1-1.6-2.1-1.3-3.1-0.5-1.7-0.1-1.5 0.4-1.1 2-2.5 0.6-1.3v-1.2l-0.1-1.2v-1.3l0.4-1.4 0.8-0.8 1.8-1.1-1.9-1.6-0.7-1-0.4-3-0.4-0.7-1.6-1-1-0.9 0.4-0.1 0.9 0.3h1l0.9-0.6 0.4-0.9-0.2-0.9-1.4-1v-0.4l0.4-1 0.1-1-0.4-0.7-0.3-0.4-1-0.4-0.2-0.7v-0.5l1-1.6 1.2-3.4 0.3-1.2-0.1-2.3 0.1-1 0.8-0.7 1 0.1 1 0.7 0.9 0.5 0.7-0.6 0.1-1-0.7-4.3 0.1-2.3 0.3-2.9 1-2.2 1.6-0.4 1 0.3 1 0.2 0.9-0.2 0.9-0.6 0.6-1 0.3-2.4 0.4-0.8 0.9-0.3 1.1 0.2 2 1 0.7 0.6 0.4 0.2 4.4-1.2 0.5-0.7v-1.4l-0.2-0.7-0.8-1.4-0.2-0.7 0.2-0.6 0.8-1.6 0.1-0.5-0.2-1 0.2-0.6 0.4-0.4 0.5-0.2 0.9-0.2 0.7-0.5 1.8-2.5 0.8-0.4 0.2-0.2 0.2-0.4v-0.8l0.6-1.6 0.4-0.4 0.6-0.3 1.2 0.3 2.3 1.3 1.4-0.1 1-0.7 0.8-0.9 0.2-0.5 0.3 0.4 1.9 1.5 0.8 0.8 0.2 0.3 0.3 1 0.2 1.1v1.8l-0.1 0.8-0.3 0.7-0.6 0.6-0.2 0.4-0.1 0.6 0.1 1 0.2 1.2 0.6 1.6 0.5 0.9 0.4 0.5 0.6 0.3 0.4 0.1 0.5-0.3 0.6-0.8 0.2-0.1 0.7-0.1 0.8 0.3 0.6 0.5 0.4 0.8 1.1 4.3 0.2 1 1.4 3.9 1.1 2.2 0.9 1.1 0.5 0.3 3.7 1.2 0.3 0.1 0.7 0.9 1.1 1.1 0.7 1.4 0.5 0.5 0.9 0.5 1.7 1.5 0.6 0.9 0.4 1.2 0.7 2.5 0.3 0.5 0.5 0.5 1.9 1.7 1.5 0.7 0.9 0.6 0.7 0.3 0.8 1 0.1 2.6 0.4 0.9-0.3 0.6v1.2l-0.1 0.7-0.3 0.7-0.9 1-0.2 0.7 0.3 0.8 3.6 4.8 1.8 1.6 4 2.5 2.1 0.8 2.5 0.5 2.6 0.2 8.8-1.7 2.1 0.2 3.3 1.5 2 0.4 2.4 1 1 0.5 1.3 1.9 1.1 4.8 1 2 1.7 1.2 2.5 0.8 2.6 0.3 6.4-0.6 1 0.5 1.9 2.2 1 0.8h0.5 1.6l0.6 0.1 1.1 0.6 0.5 0.2h3.3l1 0.4 0.7 0.8 1.5 3.3 1 1.1 0.8 0.5 8.9 1.2z" name="Neuquén">
  <title>Neuquén</title>
 </path>
 <path id="Buenos_Aires" d="m579.5 1103.9-1.5 1.8-0.9 2.1-1.2 1.4h-1.4l-1.2-0.5 0.3-2-0.5-1.1-1.4 0.8h-1.4l-0.8-0.8 0.9-1.2 1-1.8 0.3-2.7 1-3.2h0.9l1.3 0.2h1.8l1.3 1.4 0.9 1.9 1 1.8-0.4 1.9zm1.1-10.2-0.3 1-0.5-1.4-0.5-1.7-1.2-1.6-2.3-3.5-1.1-2.5 0.7-3.3 1-0.1 1.5 0.5 1.4 0.6 1.3 1.9-0.2 2.8-0.1 3.6 0.3 3.7zm4.8-76.7 0.3 0.1 0.2-0.4 0.1-0.7 0.2-0.3 0.4 0.5 0.8 1.4 0.9 3.2 0.1 0.9-0.4 1h-1l-1.1-0.4-0.7-0.6-0.9-0.8-3.1-1.2-1.2-0.7-0.9-0.9-2-3-0.6-1.2v-1l0.9-0.2 1.9 0.9 5 1.2 1 1.7 0.1 0.5zm-4.2-8.8 1.6 1.2 0.2 0.8-0.4 0.7-0.8 0.4-0.9 0.1-1-0.5-2.8-2.2-0.8 0.8-0.9-0.2-0.6-0.8 0.6-1.2 4 0.3 1.8 0.6zm186.3-299.6 0.1 1.1-0.1 1.3-0.2 0.2-0.5-1.5-0.7-0.5-0.8 1.3-0.4-0.5-0.5-1 0.9-1v-1l-0.3-1.3-0.5-1.4 0.3-0.7 0.3 0.5 0.3 1.2 0.5 0.8 0.4 0.8 1 0.7 0.2 1zm-8.2-12.8v0.2l1 0.4 1.2 0.5 0.4 0.4 0.4 0.9 0.2 1.2-0.1 2.6-0.3 2v0.7l0.5 1.4 0.2 0.7-1.7 1.8-0.2 0.4-0.3 0.9-0.2 0.4-0.8 0.9-0.9 0.7-1 0.3-0.9-0.4-0.5-0.1-1.8-0.1-0.3 0.3-0.5 0.7-0.6 0.2 3 1.7 2.2 1.9 0.6 1.1-0.9 2-0.6 0.5-0.6 0.7-0.7 1.1v0.8l0.4 0.8 1.3 1.3 0.2 0.5-0.1 1.2 0.1 0.6-3.3 2.8-1.1 5.2 1 3.5 4.9 3.9 1.9-3.6 1.3-1.3 1.8-0.3 1.1-1.1 0.3-0.9 4 2.7 2.3 2.1 1.8 0.9 1.8 0.2 1.2 0.3 1.5 0.9 1.7 0.4 1.5 0.5 1.8 2.2 1.3 0.6 2.8-0.3 0.6 0.1 0.9 1.1 2.3 1.5 2.4 2.2 3.6 1.5 4.2 3.3 4.1 1.6 1.7 1.9 2 1.6 4.9 4.8 1.8 2.4 2.2 2.5 1 1.2 2.4 3.8 3.4 6.5 0.3 1.5-0.9 2.7-1.7 2.3-2.2 2.9-5 7.8-1.5 2-0.6 2.2-0.3 1.6-0.5 2.6-0.6 1.9 0.5 2.3 0.5 2.5v1.7l0.3 1.3 1 0.8 1.6 4.2 0.1 1.3 0.2 0.6 0.9 0.4 1 1.1 0.2 0.2 0.3 1.4 0.7 1.3 7 6.9 5.1 3.2 2.3 0.5 1.1 0.6 0.5 0.8-0.9 0.9 0.3 0.4 1-0.9 1-0.7 2.2-0.9 1.1-0.2 3.3 0.2-0.5-1.4 0.1-1 0.7-0.2 1.1 0.9 0.3 0.7 0.6 2.5 0.3 0.6 0.9 1.1-0.1 7.8 1.2 3.4 0.2 1.5 0.2 8.5 0.2 7.2-0.2 2.7-0.9 2.1-5.2 6.9-4.9 7.8-6.6 11.7-1.8 4.1-5.5 7.8-1.8 2-5.4 4.9-2 3.4-0.6 0.5-0.8 0.5-4 5.1-1.5 2.3-1.2 2.6-0.9 2.6-0.5 2.6-0.1 2.8v0.4l0.5 0.7 0.1 0.5v0.4l-0.3 0.8 0.1 1.9-0.1 0.7-1.2 2.4-1.7 2-4.7 3.3-5.2 3-3.6 2.7-7.8 4.7-1.7 0.3-0.7 0.4-2.6 2.2-1.9 1.1-6 2.5-1.8 1.1-1 0.4-4.4 0.8-3.7 1.2-3.7 2.3-8.1 1.9-10.6 3.6-2.8 2-1.6 0.3-1.7 0.8-28.5 5.8-8.3 3.5-1.1 0.2-3.5-0.2-22.8 4.4-8 1.3-7.8 1-10.3 2.1h-5.7l-1.2-0.4h-0.7l-0.6 0.1-0.4 0.2-0.7 0.6-4.6 1.2-9.8-1.3-4.5 0.1-3.2 1.1-0.5 0.4-0.8 0.3-7.9-1.1-0.6-0.6-0.9-0.3-0.5-0.6-0.3-0.1h-0.5l-0.9 0.4-2 0.5-2.5-0.1-9.4-2.8-1.8-1-1.5-1.3-1-1.9-0.8-2.3-0.7-1.2-0.7-0.5-8.1-0.6-0.8-0.5-1.2-0.4-1 0.7-0.6 1.1 0.5 0.6-0.3 1.3 0.9 2.5-0.3 1.1 0.7-0.7h0.7l0.5 0.5 0.3 0.8-0.2 2.4 0.2 0.5 0.5 0.4 0.7-0.1 1.7-0.3-0.1 0.3-0.3 0.8-0.3 1 0.2 0.9-1.3 0.7-0.5 0.6-0.6 2.3-0.6 1.4-0.3 0.6-0.4 0.5v0.4l0.6 1 0.3 0.6-0.1 1.1-0.2 1-0.1 1 0.4 1.2 0.9 1.1 2.2 1.7 1 1.2h-0.8l-0.6-0.2-1.3-0.7-0.7 0.9 0.4 0.6 1.1 0.5 1.2 0.3 3.9 0.1 1.3 0.3 3.9 2 2.1 1.6 1.2 1.7v0.8l-0.2 0.7-0.4 0.7-0.4 0.5-0.7 0.3-0.4-0.1-0.7-0.6-1-0.6-2.8-2.5-1-1.4-0.4-1-0.3-0.3-0.3-0.2-0.7 0.2-0.9-0.2-2.8 0.2 0.2 1.2 0.3 0.6 0.4 0.4 0.6 0.1 0.7-0.1 0.6 0.1 0.2 0.6 0.4 1.3 1 1.4 2.1 1.9 0.9 0.6 2.4 0.6 1.3 0.1 0.3 0.3 0.1 0.7 0.1 0.8-0.2 0.7-0.6 0.6-0.2 0.6-0.2 4.5-0.3 0.7-0.3 0.8-1.2 8.9-0.2 5.8-0.2 1.1-0.3-0.1-1.8 1.1-0.1 0.3-3.8-0.6-1.1-0.7-2.2-1.8-0.2 0.7 0.2 0.7 1.1 1.3-1.3 0.6-0.3 0.5 0.1 0.9 0.1 1.6-0.2 1.1-0.7 2.3-0.3 2.3-1 2.7-0.4 0.5-0.2 0.7 1.4 3.8-0.1 1.4-0.7 2.7-0.2 1.1-0.5 1.3-1.1 0.7-1.2 0.4-1 0.5-0.9 0.9-0.9 1.2-0.7 1.3-0.3 1.3 0.3 1 1.4 2.8 0.8 3.9 0.5 0.6v0.3l0.8 1.6 0.5 0.3 1.5 0.6 1.7 1.1 0.6 0.2 0.2 0.4-0.1 1.5 0.2 0.4 0.7 0.5 0.6 1.1 0.7 0.6 0.9-0.8 0.7 2.9v1.7l-0.8 0.8-2.4-0.5-0.3-0.2-0.7-1.2-0.6-0.4v0.6l0.1 0.5 0.2 0.5 0.3 0.4 0.3 0.7-0.1 0.6-0.4 0.3 0.5 1 0.3 0.3 3.9-2.4 1.6-0.6 1.6-0.1-0.6 0.8-1.8 1.3-0.4 0.9-0.1 0.9-0.4 2-0.1 1.1-0.3 0.9-1.4 3-1.4 3.6-1.3 1.8-7.5 3.9-6 3.8-3.4 1.5-0.9 0.6-0.9 0.9-1 0.5-1.1 0.2h-1.3l-1.2-0.2-0.4-1.7-1.9-4.2-0.7-1-3-3.1-2.5-1.9-0.5-0.6-2.1-2.9-4-3.7-0.7-0.5-3.2-1.1-10.3-1.3v-2.5-17-35.6l-0.1-35.4 0.1-32.3v-35.5-31.3-2.8-28.4l-0.1-27.2v-28.1-25.9l0.2-30v-13.9l0.1-16.6 0.1-25.8 0.4-10.1 1.7-2 24.3 0.1 28.3-0.1 26.4-0.2h2.6l16.5-18.6 11.9-13.4 9-10.3 1.8-2.6-0.5-1.9 0.5-1.4 0.8-0.9 0.7-0.4 1.2-0.3 0.7-0.1h0.9l0.8 0.1 0.4 0.2 1.6 0.9 0.6 0.2 4.8 0.1 0.6 0.2 2 1.4 1.4 1.5 0.7 0.5 0.9 0.3 1.2 0.1 2.1-0.5 1.2-0.7 0.5-0.6 1.8-3.9 0.2-0.6 0.3-1.5 0.3-2.8 0.4-0.7 2.1-1.6 0.6-0.6 0.3-0.8-0.1-1.3 0.1-1 0.2-0.8 0.3-0.6 0.5-0.3 1-0.3 0.4-0.2 0.6-0.6 0.4-0.8 0.2-0.9-0.1-0.8-0.9-1.3 2.4 1.3 6.4 7 8.6 6 0.8 0.3 1.2 0.3 2.4 1.2 0.8 0.6 0.9 0.9 1.9 3 0.7 0.7 6.6 3.6 1.9 0.4 1.3-0.4 2.8-0.9 2.1 1.5 1.9 2.2 2.5 1.3h4.3l0.5-0.6 0.2-0.1 0.7-0.2 0.5-0.1 0.3 0.1 0.4 0.9 0.1 0.8v1.5l0.2 0.6 0.8 0.7 0.5 0.2 0.8-0.4h0.3l1 1 0.4 0.8 0.5 0.2 5.2-0.1 1.3 0.2 1 0.6 0.9 0.7 3.6 2.2 2.7 2.4 1 0.6 2.4 0.5 1 0.4 5.1 4.8 2 1h2.4l4.6-1.9 2.6-0.6z" name="Buenos Aires">
  <title>Buenos Aires</title>
 </path>
 <path id="La_Pampa" d="m512.1 756.3-0.1 16.6v13.9l-0.2 30v25.9 28.1l0.1 27.2v28.4 2.8 31.3 35.5l-0.1 32.3-4.4-0.5-2-0.8-1.4-1.5-6.5-4.5-1.8-0.9-0.9-1.1-1.3-2.1-0.7-0.8-0.7-0.6-1.8-1.1-3.5-0.8-1-0.4-4.3-5.4-0.8-0.6-2.4-0.4-0.8-0.4-3.6-2.5-16.3-6.1-3.5-0.1-14-2.7-1 0.5-1.6-0.6-3.5 0.6-1.4-0.9h-7.2l-7.4 1.4-2.6-0.1-2.2 0.8-0.5 0.1-0.9-0.4-1.9-1.3-4.4-1.8-2.6-0.5-1.3 0.1-1.1 0.6-0.8 0.7-1.1 0.8-1.1 0.4-0.9 0.1-0.4-0.3-0.5-0.5-0.6-0.4-0.8-0.2h-2l-0.5-0.1-0.9-0.9-0.5-0.3-0.7-0.2-2.1-0.2-1.7-0.8-1.3-0.2-1-0.6-0.6-0.2-12.7-1.6-6.7 1.1h-2.2l-5.9-1.5-1.3-0.2-1.3-0.4-0.6-1.1-0.4-2.9-0.6-2-1.2-1.8-1.5-1.4-1.8-0.9-2.3-0.5-0.4-0.2-0.9-0.9-0.8-0.4-1.8-1.1-2.4-0.4-1.1-0.4-1.5-1.2-2.3-0.4-5-2.8-0.5-0.1-0.3-0.2-0.8-1.2-0.7-0.7-1.8-2.7-1.2-3.4-0.2-0.7v-1.3l-0.2-1.1-0.5-0.8-1.1-0.6h-1.1l-4.2 0.8-2.3 1.5-1.3 0.4-3.8-0.6-1.3 0.7-3.8 0.3-1.9-1-1.6-1.6-1.4-1.9-2.7-5.8-1.4-1.6-2-0.8h-0.6l-1.3 0.5-0.5-0.2-1.2-0.7-0.4-0.5-0.5-1.2-0.4-1.5-0.2-1.1 0.3-3 1.1-2.2 1.6-1.5 3.4-2.4 1.2-1.8 0.7-2.4-0.1-2.8-0.6-2.1-1.2-2.1-1.5-1.9-1.5-1.3-2.1-1.2-20-2.7v-45.5l-0.4-34.7-1.4-7.5-0.3-0.8-0.1-0.9 0.1-2.6 0.4-4.1 0.8-0.9 1-0.4h55.7l3.7-0.1 22.2 0.1h27.8 1.8l44.7 0.1h1.9l0.4-0.2v-9.5l0.1-51.8 30-0.1h26.6l28.7 0.1z" name="La Pampa">
  <title>La Pampa</title>
 </path>
 <path id="Rio_Negro" d="m511.8 1028.3 0.1 35.4v35.6 17 2.5l10.3 1.3 3.2 1.1 0.7 0.5 4 3.7 2.1 2.9 0.5 0.6 2.5 1.9 3 3.1 0.7 1 1.9 4.2 0.4 1.7-0.4 0.1-0.6 0.8-1.3 1.1-0.8 0.9-3.6 0.9-5.9 3.2-2.3 0.5-10.9-0.4-2.2 0.7-1.1 0.1-4.8-0.4-7.2 0.4-7.8-0.1-2.3-0.6-2.1-1.1-5-4.9-2.3-1-2 0.1-0.5-0.3-0.2-0.7 0.2-0.7 0.5-0.9-0.5-0.5-1.2 0.3-1.3 0.6-1.1 0.3-2-0.6-12.2-6.5-6.7-1.8-4.7-2.5-4.5-1-2.4-0.2-3.5 0.3-1.6-0.1-1.3-0.5-0.1-1 1-0.6 1.2-0.5 0.9 0.2-0.2 1.2 0.8-0.2 0.3-0.3 3 0.1 0.9-0.1 0.5-0.5-0.4-1.4-1.5-0.5-0.9-0.7 1.5-1.4-1.3-0.9-4.7-1.2-2.8 0.4-1.8 0.8-0.4 0.4 0.9 0.1 1.6-0.4 0.9 0.3-0.7 1 0.2 0.6 0.6 0.4 0.6 0.7-5.1-0.2-0.9 0.4-0.7 0.8-4 3.2-0.5 0.6-0.2 0.6 0.1 1.4-0.2 0.7-0.7 1.2-0.6 1.4-0.4 1.5-0.2 1.6 0.1 2.7 1.4 11.3 2 7.9 0.1 2.1 1.2 3.7 0.4 2.1 0.6 2.1 2.7 3 0.8 2.1-0.1 1.9-0.5 2.2-0.6 2.1-0.7 1.3-0.4 1.9 0.5 2.4 1.4 3.8-0.1 2.4-0.9 2.9-2.1 4.8-0.7 2.9 0.2 2.4 0.8 1.6h-0.4l-3.2-0.7h-30.4-15-42.6-60-17.6-42.8-5.6-91.8-26.9l-0.6-0.9 0.1-0.9 0.2-1.1v-1.2l-0.9-4.8-1.1-2-1.2-1.6-0.9-1.9-0.1-2.5-0.5-2.2-2.9-4.2v-2l0.7-0.9 1.8-1 0.7-0.7 0.5-1.2-0.2-0.7-0.6-0.7-0.6-1.1-0.4-1.1v-0.8l0.4-2 0.1-1.3v-1l-0.7-2.1-0.6-2.5 0.1-2.1 1.3-4.4 0.2-1.4-0.2-1-0.6-2.3v-1.3l0.4-0.5 0.5-0.4 0.3-1.1 0.1-2.4 0.4-2.3 0.1-1.5-0.7-2.4v-0.7l0.4 0.1 6.3 0.4 3.4 0.8h3.8l1.8 0.1 9.7 3.9 3.1 0.3 1.3-0.1 2.8-0.8 1.5-0.8 1.9-1.2 0.5-0.4 0.3-0.4 0.6-1.4 3.2-3.7 0.7-1 0.6-1.2 0.2-1.5-0.3-1.3-0.7-1.3-0.8-1-0.9-0.7-1-0.5-0.9-0.7-0.6-1-0.1-0.6v-0.7l0.1-0.6 0.3-0.6 0.3-0.4 0.8-0.7 0.4-0.3 0.5-1.2 0.3-0.3 0.8-0.5 1.7-0.4 0.6-0.7 0.2-0.4 0.3-1.5 0.3-0.7 0.5-0.6 0.4-0.5 0.5-0.4 2.6-1.2 1.4-0.4 1.2-0.1v-0.2l0.7-0.4 1.3-1.1 0.8-0.2h0.8l1.6 0.3 0.7 0.3 1.7 0.2 1.8-0.5 1.8-0.9 1.4-1.2 2.1-2.3 0.8-0.5 1.1-0.2 1.1 0.4 1 0.8 0.8 1.1 1.7 1.3 2.1-0.1 3.9-1.2 4.3 0.1 1.3-0.7 0.5-1.2 0.6-2.8 0.6-0.8 0.4-0.1 1 0.1h0.5l1.2-0.6 0.6-0.5 0.5-0.5 0.6-1.4 0.1-1.7v-3.3l0.3-1.5 1.8-5.1 1.1-1.9 0.4-1.1v-0.7l-0.1-2.1 0.1-0.7 0.5-1.4 0.1-0.7 0.3-3.9 0.4-1.3 0.7-1.6 0.1-0.7v-1.1l0.1-0.5 0.2-0.6 0.9-1.1 1.1-0.9 12.1-7.2 0.8-0.2 1.7-0.2 4.5 0.6 1.2-0.3 1.3-0.8 3.5-3.6 2-1.6 0.9-0.8 2.7-3.9 0.1-0.8 0.2-0.3 1.1-1.7 0.8-1.1 1-0.8 1.7-0.9 1.1-0.4 0.3-0.2 2.4-1.8 0.7-0.3 0.6-0.2h1.5l1.4-0.2 0.3-0.1 1.3-0.8 2.3-1.1 0.6-0.3 0.4-0.5 0.5-0.8 2-3.6 0.3-0.4 0.5-0.5 2.6-1.6 0.6-1 0.8-3.3 0.5-0.9 1.4-1.2 0.5-0.6 0.6-1.1 2.2-0.9 0.9-0.6 0.7-0.8 0.6-0.9 1.5-2.8 1.3-1.7 1.5-1.5 1.6-0.9 1.6-0.4 1.7-0.9 3.2-4 1.7-1 0.8-0.2 2.1-2 0.6 0.1 1.1 1.4 1.4 0.8 0.7-0.2 0.7-0.5 0.8-0.2 0.9 0.1 2.3 0.8h1.7l5.4-1.4-1.1-0.3-0.3-0.7 0.1-0.9-0.1-1.2-0.6-1.5-6.5-10.3-2.3-3-1.1-1-0.3-1.4 0.1-59.6 0.1-10.6 20 2.7 2.1 1.2 1.5 1.3 1.5 1.9 1.2 2.1 0.6 2.1 0.1 2.8-0.7 2.4-1.2 1.8-3.4 2.4-1.6 1.5-1.1 2.2-0.3 3 0.2 1.1 0.4 1.5 0.5 1.2 0.4 0.5 1.2 0.7 0.5 0.2 1.3-0.5h0.6l2 0.8 1.4 1.6 2.7 5.8 1.4 1.9 1.6 1.6 1.9 1 3.8-0.3 1.3-0.7 3.8 0.6 1.3-0.4 2.3-1.5 4.2-0.8h1.1l1.1 0.6 0.5 0.8 0.2 1.1v1.3l0.2 0.7 1.2 3.4 1.8 2.7 0.7 0.7 0.8 1.2 0.3 0.2 0.5 0.1 5 2.8 2.3 0.4 1.5 1.2 1.1 0.4 2.4 0.4 1.8 1.1 0.8 0.4 0.9 0.9 0.4 0.2 2.3 0.5 1.8 0.9 1.5 1.4 1.2 1.8 0.6 2 0.4 2.9 0.6 1.1 1.3 0.4 1.3 0.2 5.9 1.5h2.2l6.7-1.1 12.7 1.6 0.6 0.2 1 0.6 1.3 0.2 1.7 0.8 2.1 0.2 0.7 0.2 0.5 0.3 0.9 0.9 0.5 0.1h2l0.8 0.2 0.6 0.4 0.5 0.5 0.4 0.3 0.9-0.1 1.1-0.4 1.1-0.8 0.8-0.7 1.1-0.6 1.3-0.1 2.6 0.5 4.4 1.8 1.9 1.3 0.9 0.4 0.5-0.1 2.2-0.8 2.6 0.1 7.4-1.4h7.2l1.4 0.9 3.5-0.6 1.6 0.6 1-0.5 14 2.7 3.5 0.1 16.3 6.1 3.6 2.5 0.8 0.4 2.4 0.4 0.8 0.6 4.3 5.4 1 0.4 3.5 0.8 1.8 1.1 0.7 0.6 0.7 0.8 1.3 2.1 0.9 1.1 1.8 0.9 6.5 4.5 1.4 1.5 2 0.8 4.4 0.5z" name="Río Negro">
  <title>Río Negro</title>
 </path>
 <path id="San_Luis" d="m344.5 568.6 3.4 0.7 1.1 0.4 1.4 0.8 0.5 0.3 0.9 0.1 0.8-0.2 1-0.5h0.8l0.5 0.2 1 0.7 0.4 0.1 2.7-0.3h0.8l0.7 0.3 1.4 0.7 1 0.1 1.6-0.4 0.7-0.1 2.4 0.3 2.6-0.3 2.5-1 2-1.1 1.1-0.5 2.5-0.6h1.9l2.4 0.4 0.8 0.4 0.7 0.5 0.8 0.3 0.8 0.1h2.4l5-0.9h4.4l1.5 0.5 2.6 1.3 14 8.6 1.3 1.6 1.4 1.4 0.5 0.8 0.3 0.9v1.4l0.1 1.3 0.3 1.3 0.5 1 0.8 1.2 0.3 0.9-0.1 2.5 0.1 1 0.5 0.5 0.7 0.1 5.3-0.6 5-1.5 1.3-0.2 0.6 0.1 0.5 0.4 0.2 0.5 0.1 0.8v1.8 1.6l-0.3 1.6v1.4l0.4 1.1 1.1 2.2 0.5 2.3 0.4 1.2v0.9l-0.1 2-0.3 1.6-1.2 2.7-0.3 2.4-0.3 0.8-0.4 0.5-0.7 0.7-0.3 0.7 0.1 1.5-0.2 0.8-0.7 1.3-0.2 0.9-0.1 2.2-0.3 1-1.9 3.7-0.2 0.8 0.2 0.8 0.3 1-0.1 0.6-0.2 0.7-1.3 2.6-0.2 0.6-0.1 1 0.6 1.3v0.7l-0.3 0.5-0.6 0.4-1.3 0.2-0.6 0.3-0.3 0.4-1.5 2.9-0.4 1 2.3 45.5v63.2l-0.1 51.8v9.5l-0.4 0.2h-1.9l-44.7-0.1h-1.8-27.8l-0.3-0.1-0.3-2v-1l0.7-3 0.4-4.4 2-9.8 0.6-6.2 1.5-3.5 0.2-1.2 0.2-5.5 0.6-3.8v-1l-0.6-3.9 0.6-1.4v-0.8l-0.1-0.5-0.3-0.5-0.6-0.7 1-3.6v-1l-0.2-1-1-1.8-0.2-0.8-0.1-1.1-0.7-2.3-0.2-0.8 0.5-3.2-0.1-1.2-1.3-4.4-6-11.9-2.3-2.6-0.4-1-0.2-1.3-1.2-3.9-0.3-5.2-0.4-1.2-0.8-0.7-0.5-0.7 0.7-1.3-0.6-1.1-0.1-4.7-0.5-1.6 0.1-0.8 0.7-1.1 0.2-0.9 0.2-0.2h0.3l0.6 0.4h0.4l0.7-0.9 0.2-1.3 0.2-3.2 0.3-1.8-0.1-0.9-0.8-1.6-0.4-1.8-0.4-0.9-0.7-0.7-0.8-0.5-0.6-0.9-0.5-2.7-0.6-1.1-0.8-0.9-0.8-0.7-1.8-1.2-0.9-0.7-0.4-0.8-0.2-1.1-1.2-4.1-1.2-2-0.7-2.7-0.2-0.5-0.6-2.2-0.4-0.5-1-1.1-4.8-8.2-0.5-1.4v-1.2l0.2-2.6-0.2-1.1-1.2-2.8v-2.2l-0.3-0.5-0.4-1.6 0.3-4.8-0.4-5.4-0.4-1.2-0.2-0.7 0.1-0.6 0.2-1.1v-0.7l-1-2.6-0.4-1.6 0.3-0.7 0.7-0.7v-1.4l-0.6-2.5 0.2-0.5 0.3-1.6 0.8-1.9-0.2-0.6-0.5-0.7-0.4-2-0.3-0.5-0.6-0.4-0.6-0.7-0.4-0.7-0.3-0.8-1-4.8-0.1-0.9-0.1-0.8-0.7-1.8-0.2-1.6-0.2-0.5-0.6-1-0.2-0.4 0.1-0.9-0.1-0.5-0.4-0.7-0.5-0.5-1.2-0.8-1.4-5.5-0.1-2.5 0.1-4-0.1-1.9v-3.6l-0.1-0.9-0.1-1.4 0.2-1.2 0.9-2.9-0.1-1-0.3-0.9 0.1-1.1-0.1-0.6-0.3-2.1 0.1-0.7 0.1-0.4 0.4-0.7 0.5-0.5 1.1-0.7 2.1 0.5 1.6 0.5 0.7 0.1 1.1 0.1 4.2-0.3 1.7-0.5h1.1l1.1 0.3 1.1 0.4 0.6 0.6 0.8 0.4 1.9 0.4 12.8-0.7z" name="San Luis">
  <title>San Luis</title>
 </path>
 <path id="Cordoba" d="m577 468-2.3 15.1 0.1 1.4 0.3 1 11.1 12.5 2.3 3.4-0.4 3.4-12.8 48-0.9 1.9-2.1 2.1-2.1 1.8-0.6 0.8-0.1 0.6v0.4l0.8 1.3 0.2 0.6v1.1l-0.3 2.7v0.8l0.4 3.5 0.3 0.9 1.2 2v0.9l-0.6 1.7-0.4 0.9-0.3 1-0.2 1.5-0.2 4.8 1.4 1.5 1 0.9 1.6 1.9 0.4 0.3 1.5 0.7 1 0.7 0.2 0.2 0.2 0.6 1.4 5 0.4 0.9 1.1 2 3.6 2.7 0.6 0.6 0.9 1.2 0.4 1.4 0.3 1.8 0.1 2 0.1 0.3 0.6 0.8 0.6 0.3 0.3 0.7-0.1 1.2-0.1 0.8-0.5 0.9-0.7 0.9v0.5l0.7 0.4 1.5 0.3 0.6 0.2 0.4 0.4 1.4 2.7 0.9 2 0.4 0.6 1.3 1.1 0.4 0.6 0.3 0.9 0.2 0.9-0.1 0.5-0.3 0.9-0.7 1.5-0.2 1.2v3.6l-0.1 1.5-0.1 1.1-0.9 1.8-1.8 1.9-0.8 0.6-0.7 0.5-0.6 0.2-0.6 0.1-1.1-0.1-1.4 1.8-11.3 18.3-15.3 25.1-20.2 33-24.3-0.1-1.7 2-0.4 10.1-0.1 25.8-28.7-0.1h-26.6l-30 0.1v-63.2l-2.3-45.5 0.4-1 1.5-2.9 0.3-0.4 0.6-0.3 1.3-0.2 0.6-0.4 0.3-0.5v-0.7l-0.6-1.3 0.1-1 0.2-0.6 1.3-2.6 0.2-0.7 0.1-0.6-0.3-1-0.2-0.8 0.2-0.8 1.9-3.7 0.3-1 0.1-2.2 0.2-0.9 0.7-1.3 0.2-0.8-0.1-1.5 0.3-0.7 0.7-0.7 0.4-0.5 0.3-0.8 0.3-2.4 1.2-2.7 0.3-1.6 0.1-2v-0.9l-0.4-1.2-0.5-2.3-1.1-2.2-0.4-1.1v-1.4l0.3-1.6v-1.6-1.8l-0.1-0.8-0.2-0.5-0.5-0.4-0.6-0.1-1.3 0.2-5 1.5-5.3 0.6-0.7-0.1-0.5-0.5-0.1-1 0.1-2.5-0.3-0.9-0.8-1.2-0.5-1-0.3-1.3-0.1-1.3v-1.4l-0.3-0.9-0.5-0.8-1.4-1.4-1.3-1.6-14-8.6-2.6-1.3-1.5-0.5h-4.4l-0.2-15.6-0.1-20.5-0.1-10.2 0.7-3.6 3.3-10 0.6-1.9 1-2.9 4.1-12.3 0.1-0.9 0.3-1.7 1.3-4 0.7-2.4 0.2-0.6 1.1-1.7 0.7-1.7 4.2-12 10.7-3.1 2.5-1.4 4.3-4.5 5.5-6.2 0.5-0.9 0.1-1.1-1.6-13.4 0.6-1.8 3.4-1.3 14.6-3.8 9.4-2.4 5.5-1.4h2l9.8 2.6 0.5 0.2 0.2 0.3v0.6l-0.1 1.4-0.1 0.7 0.3 0.5 0.7 0.6 3.8 2.1 0.6 1 0.4 0.4 0.3 0.2 3.2 0.7 0.5 0.2 0.8 0.7 0.6 0.4 0.8 0.4 3 0.2h1l5.9-1 0.7 0.1 3.6 1.2h0.5l1.8-0.4 0.8 0.2 0.3 0.5v0.7l-0.2 1.5v0.3l0.2 0.4 0.4 0.1 1.8 0.3 0.5 0.2 0.3 0.2 0.2 0.6v1.4l0.5 0.5 1 0.1 28.6 0.1 17-0.2 8.2 0.3 2.3 1.6 7.8 20.3z" name="Córdoba">
  <title>Córdoba</title>
 </path>
 <path id="Catamarca" d="m378.3 246.1-0.4 1.2-0.8 1-0.8 0.8-0.3 0.8-0.1 1.1v0.9l-0.2 1.2-0.5 1.5-1.1 2.4-0.8 2.7-0.2 0.9 0.1 0.6 0.2 0.8 0.8 1.1 0.8 0.6 1.1 0.2 1 0.2 1.3 0.4 1.1 0.5 0.7 0.5 1.8 1.8 3.2 2.6 2.2 1.1 0.8 0.8 0.2 0.6 0.1 0.9v1.2l-0.8 3.2-0.1 0.8 0.1 3.2-0.1 0.6-0.2 0.9-0.5 1.4-1.4 2.2-3.5 3.6-1.7 1.8-1.2 1.6-0.9 1.6-0.4 1.4-0.5 0.7-1 1.1-1.1 0.9-1.6 1.8-0.8 2.1-1.3 1.9-0.2 0.6 0.2 0.3 0.4 0.3 1 0.4 1.1 0.3 1.7 0.2 0.6 0.2 3.5 2.2 1.5 0.1 0.6 0.2 0.3 0.7-0.5 1.3 1.7 8.4 0.7 1.3 0.3 2.5 0.2 0.5 0.5 0.8 0.6 0.6 0.5 0.3 0.7 0.4 0.3 0.3 0.2 0.6 0.7 2.2 0.2 1.2 0.2 0.7 0.5 0.9 1 0.6 1.3-0.4 0.6-0.3 0.4-0.3h0.8l2.3 1.2 0.5 0.5 0.2 0.3 0.5 1.7 0.5 3 0.7 2.2 0.5 0.7 4.2 5.3 0.7 0.2 0.3-0.5 1.1-2.6 1.4-1.9 0.2-0.3 1.7-1.3 1.6-1.6 4.1-2.7 0.8 0.1 0.8 0.4 0.7 0.5 1 1 1 0.7 1.1 0.5 0.7 0.3h0.6l1-0.2 1.4-0.6 4.5 20.7 0.3 8.5-0.3 3.3-0.6 1.4-0.6 0.9-1.2 1.3-0.7 1-0.6 1.4-0.3 0.3-0.9 0.4-0.2 0.6v2l0.2 0.6 0.6 0.1 2.1 1.2 1 1 0.3 0.6 0.2 0.9 0.9 11.2-0.2 4.7 2.1 16.8 2.2 5.3 3.3 5.8 0.5 1.1 0.6 1.5 1.1 1.5-3.4 1.3-0.6 1.8 1.6 13.4-0.1 1.1-0.5 0.9-5.5 6.2-4.3 4.5-2.5 1.4-10.7 3.1-8.4-17.2-1.8-5.3-3.1-6.7-3.1-7.7-0.6-2.1-0.6-3.5v-0.8-1-2.7l-0.1-0.6-0.3-0.9-1.6-2.8-9.3-9.3-1.1-0.5-6.1-6.3-2.2-1.5-8.4-4-1-0.7-0.4-0.4-0.7-1.1-0.2-0.6 0.1-0.5 0.4-0.7 0.7-0.9 0.9-1.6 0.2-0.6-0.2-0.8-0.7-0.5-1-0.5-1.2-0.9-1.7-1.6-1.7-2.5-0.5-1-0.6-4.6-0.5-1.9-0.3-0.6-0.8-1.2-1.6-1.4-1.7-2.2-9.8-4.2-9.9-3.6h-1.6l-1.1 0.7-0.6 0.2-0.5 0.4-0.6 1.2-0.8 1-0.9 0.7-0.7 0.2-3.7 0.7-3.7 0.1-22.2-1.1-3.2 0.8-0.8 0.4-1.2 1.1-0.8 0.1-0.5-0.6-0.2-0.6-0.1-0.9-0.2-0.5-0.3-0.5-0.8-0.8-2.3-3.4-0.1-0.3-0.6-1.9-0.1-2.2-0.2-0.9 0.1-1.4-0.1-0.7-0.3-0.2-0.6-0.1h-0.6l-1.2 0.6-1.6 0.1-0.8 0.3-0.9 0.6-1.1 0.4-0.6 0.1-0.8-0.2-0.7-0.5-0.5-0.7-0.7-0.9-0.4-0.3-0.7-0.4-2.2-0.7-1.3-0.2-1.6 0.2-0.7-0.2-0.4-0.2-0.5-0.5-0.5-0.6-0.5-0.9-0.8-0.9-0.9-0.7-0.8-0.3-0.8-0.1h-0.9-0.7l-0.7-0.1-0.8-0.6-0.2-0.6v-0.6l0.1-0.7 0.7-2.9v-0.7l-0.1-0.5-0.6-1.3-0.2-0.5v-0.7l0.1-1 0.8-2.7 0.1-0.7v-0.7l-0.3-0.8-0.9-0.3-2.3-0.3-1.1 0.4-0.6 0.4-0.4 0.4-0.7 0.6-0.7 0.3h-0.9l-1.2-0.3-1.1-0.7-0.7-0.2h-0.5l-1.3 0.4-3.6 0.4-1.4 0.7-3.4 0.9-13.5-1.1-0.7-0.1 0.5-2.1 0.3-0.7 0.5-0.4 1.3-0.7 0.3-0.4-0.2-0.8-0.4-0.7-0.3-0.8 0.1-0.9 0.3-0.6 1.1-1.1 0.5-0.6 1.3-2.7 0.4-1.5 0.2-1.4-0.2-0.7v-0.8l0.1-0.7 0.4-0.7 0.8-0.6 1.8-1 0.8-0.6 0.5-0.8 2.4-5.7 0.2-0.9-0.1-2.2 0.1-1 0.5-1.3 2.1-3.5 0.7-0.9 0.6-0.4 1.9-0.5 2.3 0.1 1.8 1.2 1.6 1.3 2 0.8 1.2-0.1 0.6-0.8 0.3-1.1 0.6-1.2 0.8-1 1.1-0.8 1.2-0.4 2.6-0.1 1-0.3 2.3-1h0.5l1.5 0.1 0.3-0.1 0.1-0.4-0.1-1.4 0.1-0.7 0.3-1.1 0.8-2 0.2-1-0.1-1.6-0.8-1.6-9.5-13.5-1.7-2.2-1.3-2.2-0.8-2.4-0.4-2.8v-4.4l0.4-2.3 0.6-1.9 1.4-1.9 6.3-5.1 0.6-1.9-0.4-2.8-3.5-14.4-0.6-4.5-0.4-1.5-0.8-1.3-0.9-1-0.9-1.3-0.1-1.6v-1.4l-0.4-1.2 0.7-0.8-0.6-1.2-1.8-2.3-0.3-1-0.1-1 0.2-2.1 4.5-14 1-1.3 0.5 0.1 34 6.7 60.4-0.8 1.7 0.1 0.4 0.1 0.4 0.4 0.3 0.4 0.4 1 0.2 0.6 0.5 4.2 0.3 1 0.7 1.1 0.9 1.1 0.6 0.9 0.2 0.8v1l-1.2 4.4-0.1 0.5 0.1 0.9-0.2 0.8-0.7 0.8-2.5 1.8-0.5 0.2-0.8 0.2-2.1-0.1-2 0.3h-3.3l-0.7 0.3-1 1-0.8 0.7-0.7 0.4-0.4 0.4-0.3 0.7-0.1 0.5-0.1 1.4 0.1 2.3 0.6 2.6 1.1 2 4.1 6.1 4 5.1 0.7 2.5 0.5 0.6 1.2 1.4 1.9 4.6 1 1.3 3.2 3.7 1.5 1.6 0.5 0.3 0.9 0.3 0.7-0.2 0.5-0.4 0.5-0.6 2.2-5.7 0.6-1.1 0.6-0.5 1.4-0.8 0.9-1.9 0.5-0.5 0.5-0.4 0.8-0.3 0.8-0.1 0.9 0.1 0.9 0.2 0.6 0.5 1.1 1.6 1.3 1.4 2.1 1.2z" name="Catamarca">
  <title>Catamarca</title>
 </path>
 <path id="Jujuy" d="m421.6 17.8-0.1 1.2-0.2 0.6-0.7 1-0.5 1-0.3 0.9-0.5 2.1-0.1 1.6v3.1l-0.2 0.9-1.6 2.4-1.4 3.3-0.2 0.9-0.3 0.8-1.1 2.1-0.3 1 0.1 1.2-0.4 2.5 0.2 0.4 0.7 0.1 0.8-0.2 0.4 0.3 1.8 1.6 0.1 0.5-0.8 1.5-0.2 0.9-0.1 0.8 0.1 1.4v0.5l0.3 0.9 0.6 5.1 0.5 1 0.2 0.5 1 3.6 0.3 0.7 0.8 0.8 1 0.9 0.5 0.2 0.7 0.1 4.2 0.1 1.4 0.2 0.4 0.2 0.5 0.4 0.7 0.8 0.6 0.9 0.2 0.8 0.1 1.4-0.7 4.8-0.9 3.3-0.2 1.5 0.2 0.6 0.2 0.4 0.4 0.4 1.5 0.4 1.6 0.8 0.6 0.5 0.8 1.6 0.6 1.7 1.8 3.4 0.2 0.8 0.1 1.9 0.2 0.5 0.5 0.4h0.6l0.6 0.1 1.4 0.4 1.1-0.2 0.5-0.3 1.3-1.2 0.5-0.4 0.4-0.1 2.2-0.3 1-0.3h0.8l1 1 0.4 0.3 0.3 0.2 2 0.5 1.6 0.8 0.7 0.7 1.2 1.1 0.9 1.2 1.1 1.3 0.2 0.5 0.5 0.5 1.3 0.9 1.1-0.9 0.3-0.6 0.5-2.4 0.2-0.4 1-1.1 0.4-0.6 1-0.2 6.3 0.1 0.9 0.1 0.8 0.2 0.2 0.7 0.1 0.9 1.2 35.1-0.2 0.8-0.8 2.4-1.7 3.2-3 4.2-1.3 1.4-0.9 0.7-0.5 0.2-0.6 0.1-1-0.1-1.1 0.3-1 0.1-0.9 0.3-0.5 0.4-0.7 1.3-0.6 0.5-2.5 0.6-2.7 2.5-0.7 0.8-0.6 1.1-0.4 1.3-0.4 0.8-0.5 0.6-0.4 0.2h-0.4l-9.6-8.5-0.6-0.2-1.4 2.1-2.3 5.4-0.4 0.3-0.6 0.1-0.7-0.1-4.8-1.8-1.6-1-4.3-3.5-0.2-0.5-0.3-0.8-0.2-0.3h-0.5l-2.1 1.5-1.2 0.6-0.6 0.2-1.2 0.3-2-0.5-2.3-1.1-0.9-0.2-1.2-0.1-1.2-0.3-0.6-0.5-1.1-1.2-0.9-0.5h-0.8l-0.8 0.5-0.8 0.2-0.5-0.2-1.6-0.9-0.9-0.6-0.5-0.9-1-1.9-5-6.8-1.7-2.9-0.4-1.1 0.2-2.3-0.2-2-1-0.8-2.4-1.2-0.3-0.2-2.4-2.4-0.6-0.5-0.4-0.2h-1l-0.6 0.6-0.5 0.3-0.5-0.1-0.6-0.3-0.4-0.7-0.4-0.6-1-1.4-0.1-0.7 0.4-1 0.1-0.4-0.6-1-0.1-0.8-0.1-0.2-0.5-0.1-0.2-0.3-0.2-0.6 0.2-3.8 0.2-0.8 0.7-1.3 0.7-0.8 0.2-0.6-0.6-1.2v-0.4l0.5-1.2-0.2-2.6v-1l0.3-2v-0.9l-0.3-0.6-0.3-0.4-1.5-1.4-7.1-4.3-0.6-0.2-1.4 0.1-0.8-0.4-1.5-1.1h-1.4l-2.3-1.1-0.6-0.2h-0.5l-0.4 0.1-0.4 0.4-0.5 0.7-1.3 5.6-0.1 1.4v1.6l0.2 0.5 1.1 3.1 0.1 0.8 1.6 3.8 0.4 1.4 0.2 3.2-0.2 4.8-0.6 5.7 0.1 2.2-0.2 1.5-0.2 0.8-0.3 0.5-0.4 0.8-0.3 1-0.2 1.7-0.4 0.7-0.3 0.4-0.9 0.2-0.3 0.2-2.6 3.6-1.7 0.9-3.2 0.1-1.8-0.4-2-0.9-1.6-0.9-1.1-1-1.8-2.6-1.7-1.9-0.5-0.3-4-1.8-0.8-0.6-0.3-0.4-0.9-1.3-1.7-1.7-0.3-0.5-0.2-0.9-0.3-0.5-0.3-0.1-1.2-0.2-0.6-0.3-0.2-0.5-0.3-1.1-2.2-2.3-1.4-1.7-0.4-0.4-0.7-0.4-0.6-0.1-1-0.1-1-0.3-0.5-0.5-1-1.2-0.6-0.6-1.3-0.4-0.7-0.5-1.2-1.4 3.7-12.1 3.5-11.6 4.4-14.5 0.3-1.7-9.1-9.7 2.6-4.4 1.5-1.7 3.8-3 0.5-0.9 0.1-1.2-0.4-5h0.9l1.1 0.1 0.7-0.2 0.7-0.5 0.5-0.7 1-1.1 1.3-0.7 5.6-1.8 0.6-0.4 0.1-0.5-0.4-1.6 0.2-0.4 0.6-0.8 0.4-1.3 0.6-4 0.3-1.3 0.7-1 1.1-1 0.7-0.3h0.6l0.5 0.2 1 0.1 0.8 0.3 0.3-0.1 0.3-0.7 0.1-0.3 5.9-1.6 6.6-1.9 1.2-1 0.6-1 0.3-0.4 0.5-0.3 0.6-0.1 0.3 0.1 0.3-0.7 0.3-0.8 0.4-5 2.4-8.9 0.9-0.3 4.2 1.4 2.2 1.1 1.6 1.7 0.5 2.6 0.3 0.3 4.6 0.8 1.1 0.6 6.4 7.6 1.5 1.1 1.5 0.5 7-0.8 0.4-0.2 0.4-0.5h0.5l3.5 0.5 2.6 0.3 13.4-0.2z" name="Jujuy">
  <title>Jujuy</title>
 </path>
 <path id="La_Rioja" d="m411 467.1-4.2 12-0.7 1.7-1.1 1.7-0.2 0.6-0.7 2.4-1.3 4-0.3 1.7-0.1 0.9-4.1 12.3-1 2.9-0.6 1.9-3.3 10-0.7 3.6 0.1 10.2 0.1 20.5 0.2 15.6-5 0.9h-2.4l-0.8-0.1-0.8-0.3-0.7-0.5-0.8-0.4-2.4-0.4h-1.9l-2.5 0.6-1.1 0.5-2 1.1-2.5 1-2.6 0.3-2.4-0.3-0.7 0.1-1.6 0.4-1-0.1-1.4-0.7-0.7-0.3h-0.8l-2.7 0.3-0.4-0.1-1-0.7-0.5-0.2h-0.8l-1 0.5-0.8 0.2-0.9-0.1-0.5-0.3-1.4-0.8-1.1-0.4-3.4-0.7-1.3-3.6-1.3-2.4-0.5-0.5-0.4-0.2-0.7 0.1-0.4-0.2-0.5-0.4-0.4-0.8v-1.7l-0.6-2.4v-1.3l-0.2-0.8-0.2-0.3-0.4-0.2-2.9-0.3-1-0.4-0.5-0.3-4.1-4.1-0.6-1-0.1-0.6v-3.2l-0.4-1.2-1.7-3.5-0.5-1.4 2.2-16-2.8-2.5-0.2-1.7 1.9-6.1-0.1-0.8-1-1.4-0.8-1.5-0.6-1-0.6-0.9-2-4.9-0.5-0.7-0.7-0.5-2.1-1-0.7-0.7-1.3-2-0.4-0.5-2.3-3.8-0.8-0.8-0.5-0.4-1.1-0.7-2-1.8-0.7-0.7-0.3-0.5-1.3-2.5-0.6-0.7-3.3-2.1-0.6-0.7-0.3-0.9-0.5-2.4-0.7-1.4-1.5-2.5-0.4-0.5-7-5.5-0.5-0.6-1.3-2.1-0.7-0.7-2.5-1-0.7-0.4-1.3-1.1-0.7-0.7-1.3-2.1-0.7-0.7-1.8-1.1-0.6-0.6-0.4-1.1-0.2-0.9-2.5-2.5-1.1-0.8-2.2-0.7-0.7-0.4-0.7-1.9-0.4-0.6-0.6-0.6-2.9-1.9-2-1.4-0.8-0.8-1.2-1.9-0.3-0.3-0.4-0.2-1.5-0.1-6.2-2.1-1.5-0.2-0.7 0.1-1.2 0.2h-0.7l-1.3-0.1-0.9-0.3-2.9-1.9-1-0.3-1.3 0.2-1.4 0.3-2.6 1.1-0.9 0.2h-0.7l-0.6-0.1-1.4-0.6-1-0.1-2.8 0.9-1.2 0.1-1.8-0.8-0.4-0.6-0.1-0.7-0.1-1.6 0.3-2.9 0.3-1 0.7-1.1 0.7-1 0.3-0.9v-0.5l-0.3-1.6 0.3-3.4 0.2-0.8 0.3-0.5 0.5-0.2 0.6-0.3 0.3-0.5-0.1-0.7-0.3-0.4-0.5-0.9-0.4-1.1-0.9-0.8-0.7-0.9-0.3-2.2 0.1-2.6 0.2-1.8 1.3-2.3 0.5-0.5 0.5-0.4 1.2-0.4 0.5-0.4 0.5-0.9 0.1-0.6v-0.5l-0.3-0.7-0.4-0.7-0.3-0.4-0.5-0.6-1.3-0.9-0.5-0.6-0.4-0.6-0.8-2.1-0.5-1.9-0.6-1-0.8-1-3.4-3-0.5-1.6-0.4-2.2-0.6-1.8-0.7-1.3-0.7-2-1.4-1.6-7.4-6.2-0.8-0.4-2.5 0.2-0.9-0.3-0.6-0.3-0.5-0.6-0.8-1.4-0.7-0.6-0.9 0.2-1.3 0.5h-0.6-0.7l-0.8-0.4-1-0.6-0.4-0.2-3.4-0.9 0.1-0.2 2.3-2.3 2.7-2.2 2.1-2.9 0.5-1 0.5-2.9 0.7-0.6 1 0.4 1.1 0.7 0.7 0.3 0.5-0.6 1.1-2.3 1.1-1.8 1.8-4.4 1-0.9v-0.4l-0.1-0.4v-0.5l0.5-0.8 0.6-0.6 0.8-0.4 3-0.8 1.3-1 0.8-1.5 2-8.6 0.7 0.1 13.5 1.1 3.4-0.9 1.4-0.7 3.6-0.4 1.3-0.4h0.5l0.7 0.2 1.1 0.7 1.2 0.3h0.9l0.7-0.3 0.7-0.6 0.4-0.4 0.6-0.4 1.1-0.4 2.3 0.3 0.9 0.3 0.3 0.8v0.7l-0.1 0.7-0.8 2.7-0.1 1v0.7l0.2 0.5 0.6 1.3 0.1 0.5v0.7l-0.7 2.9-0.1 0.7v0.6l0.2 0.6 0.8 0.6 0.7 0.1h0.7 0.9l0.8 0.1 0.8 0.3 0.9 0.7 0.8 0.9 0.5 0.9 0.5 0.6 0.5 0.5 0.4 0.2 0.7 0.2 1.6-0.2 1.3 0.2 2.2 0.7 0.7 0.4 0.4 0.3 0.7 0.9 0.5 0.7 0.7 0.5 0.8 0.2 0.6-0.1 1.1-0.4 0.9-0.6 0.8-0.3 1.6-0.1 1.2-0.6h0.6l0.6 0.1 0.3 0.2 0.1 0.7-0.1 1.4 0.2 0.9 0.1 2.2 0.6 1.9 0.1 0.3 2.3 3.4 0.8 0.8 0.3 0.5 0.2 0.5 0.1 0.9 0.2 0.6 0.5 0.6 0.8-0.1 1.2-1.1 0.8-0.4 3.2-0.8 22.2 1.1 3.7-0.1 3.7-0.7 0.7-0.2 0.9-0.7 0.8-1 0.6-1.2 0.5-0.4 0.6-0.2 1.1-0.7h1.6l9.9 3.6 9.8 4.2 1.7 2.2 1.6 1.4 0.8 1.2 0.3 0.6 0.5 1.9 0.6 4.6 0.5 1 1.7 2.5 1.7 1.6 1.2 0.9 1 0.5 0.7 0.5 0.2 0.8-0.2 0.6-0.9 1.6-0.7 0.9-0.4 0.7-0.1 0.5 0.2 0.6 0.7 1.1 0.4 0.4 1 0.7 8.4 4 2.2 1.5 6.1 6.3 1.1 0.5 9.3 9.3 1.6 2.8 0.3 0.9 0.1 0.6v2.7 1 0.8l0.6 3.5 0.6 2.1 3.1 7.7 3.1 6.7 1.8 5.3 8.4 17.2z" name="La Rioja">
  <title>La Rioja</title>
 </path>
 <path id="Salta" d="m564.3 38.1 0.1 59v30.9l0.2 15.5-37.9 49.6-15.4 19.9-26.3-0.4-1.8-0.6-9.7-3.2-1.9-0.2-1 1.3-10.7 23.6-0.3 0.9v0.7 1.8l-0.1 0.5-0.4 1.1-1.8 3.5-0.1 0.3-0.3 1.9-10.6 0.3-0.8-0.1-2.7-0.7-1.5 0.3-2.6 0.9-0.5 0.3-1 1-0.9 0.6-0.8 0.3-0.6 0.1h-1.1l-1-0.3-1.7-0.8-0.8-0.7-1-0.3-1.3 0.3-9.5-3.9-0.8-0.4-0.4-0.7-0.3-0.8-0.4-1.4-0.7-1.4-0.5-0.6h-0.5l-0.7 0.1-1.4 0.7-2.5 1.4-0.7 0.2h-0.6l-4.9-1.1h-0.7l-1.2 0.1-2.5-0.7-1.3-0.7-0.6-0.1-0.3 0.2-0.4 0.5-0.2 1.3v2.3l-0.1 1-0.4 1.2-0.3 1.2v0.8l0.1 1.8v0.7l-0.3 0.7-0.4 0.6-0.7 0.3h-1.7l-14.8-2.6-2.1-1.2-1.3-1.4-1.1-1.6-0.6-0.5-0.9-0.2-0.9-0.1-0.8 0.1-0.8 0.3-0.5 0.4-0.5 0.5-0.9 1.9-1.4 0.8-0.6 0.5-0.6 1.1-2.2 5.7-0.5 0.6-0.5 0.4-0.7 0.2-0.9-0.3-0.5-0.3-1.5-1.6-3.2-3.7-1-1.3-1.9-4.6-1.2-1.4-0.5-0.6-0.7-2.5-4-5.1-4.1-6.1-1.1-2-0.6-2.6-0.1-2.3 0.1-1.4 0.1-0.5 0.3-0.7 0.4-0.4 0.7-0.4 0.8-0.7 1-1 0.7-0.3h3.3l2-0.3 2.1 0.1 0.8-0.2 0.5-0.2 2.5-1.8 0.7-0.8 0.2-0.8-0.1-0.9 0.1-0.5 1.2-4.4v-1l-0.2-0.8-0.6-0.9-0.9-1.1-0.7-1.1-0.3-1-0.5-4.2-0.2-0.6-0.4-1-0.3-0.4-0.4-0.4-0.4-0.1-1.7-0.1-60.4 0.8-34-6.7-0.5-0.1 0.2-0.3 0.9-0.5 0.8-0.1 0.8 0.2 1.1 0.1 1.1-0.3 1-0.4 0.6-0.7v-1.2l-1.1-1.4-1.6-1.4-1.1-1.7 0.1-2.1 0.2-0.5-0.2-0.4-0.7-1-0.5-0.4-0.2-0.3v-0.5l0.1-0.3-0.3-0.8-0.3-0.4-0.6-0.2h-1l-0.4-0.3-1.2-0.7-0.4-0.5-0.2-0.4-1.2-2.9v-1l0.3-1.2 2.6-5.2 0.5-1.9 0.1-0.8 0.2-0.8 0.5-0.6 0.6-0.1 1 1.3 0.6 0.4 0.3-1.1 0.3-1.7 2.1-4.3 0.8-0.5 0.9 0.1 0.9 0.3 0.9-0.1 0.6-0.6 1.9-3 0.5-1.5 0.2-0.4 0.9-0.7 11.8-4.9 18.7-8.5 6.3-2.8 4.9-1.9 2.5-1.4 1.1-1.6 4.5-14.7 1.2 1.4 0.7 0.5 1.3 0.4 0.6 0.6 1 1.2 0.5 0.5 1 0.3 1 0.1 0.6 0.1 0.7 0.4 0.4 0.4 1.4 1.7 2.2 2.3 0.3 1.1 0.2 0.5 0.6 0.3 1.2 0.2 0.3 0.1 0.3 0.5 0.2 0.9 0.3 0.5 1.7 1.7 0.9 1.3 0.3 0.4 0.8 0.6 4 1.8 0.5 0.3 1.7 1.9 1.8 2.6 1.1 1 1.6 0.9 2 0.9 1.8 0.4 3.2-0.1 1.7-0.9 2.6-3.6 0.3-0.2 0.9-0.2 0.3-0.4 0.4-0.7 0.2-1.7 0.3-1 0.4-0.8 0.3-0.5 0.2-0.8 0.2-1.5-0.1-2.2 0.6-5.7 0.2-4.8-0.2-3.2-0.4-1.4-1.6-3.8-0.1-0.8-1.1-3.1-0.2-0.5v-1.6l0.1-1.4 1.3-5.6 0.5-0.7 0.4-0.4 0.4-0.1h0.5l0.6 0.2 2.3 1.1h1.4l1.5 1.1 0.8 0.4 1.4-0.1 0.6 0.2 7.1 4.3 1.5 1.4 0.3 0.4 0.3 0.6v0.9l-0.3 2v1l0.2 2.6-0.5 1.2v0.4l0.6 1.2-0.2 0.6-0.7 0.8-0.7 1.3-0.2 0.8-0.2 3.8 0.2 0.6 0.2 0.3 0.5 0.1 0.1 0.2 0.1 0.8 0.6 1-0.1 0.4-0.4 1 0.1 0.7 1 1.4 0.4 0.6 0.4 0.7 0.6 0.3 0.5 0.1 0.5-0.3 0.6-0.6h1l0.4 0.2 0.6 0.5 2.4 2.4 0.3 0.2 2.4 1.2 1 0.8 0.2 2-0.2 2.3 0.4 1.1 1.7 2.9 5 6.8 1 1.9 0.5 0.9 0.9 0.6 1.6 0.9 0.5 0.2 0.8-0.2 0.8-0.5h0.8l0.9 0.5 1.1 1.2 0.6 0.5 1.2 0.3 1.2 0.1 0.9 0.2 2.3 1.1 2 0.5 1.2-0.3 0.6-0.2 1.2-0.6 2.1-1.5h0.5l0.2 0.3 0.3 0.8 0.2 0.5 4.3 3.5 1.6 1 4.8 1.8 0.7 0.1 0.6-0.1 0.4-0.3 2.3-5.4 1.4-2.1 0.6 0.2 9.6 8.5h0.4l0.4-0.2 0.5-0.6 0.4-0.8 0.4-1.3 0.6-1.1 0.7-0.8 2.7-2.5 2.5-0.6 0.6-0.5 0.7-1.3 0.5-0.4 0.9-0.3 1-0.1 1.1-0.3 1 0.1 0.6-0.1 0.5-0.2 0.9-0.7 1.3-1.4 3-4.2 1.7-3.2 0.8-2.4 0.2-0.8-1.2-35.1-0.1-0.9-0.2-0.7-0.8-0.2-0.9-0.1-6.3-0.1-1 0.2-0.4 0.6-1 1.1-0.2 0.4-0.5 2.4-0.3 0.6-1.1 0.9-1.3-0.9-0.5-0.5-0.2-0.5-1.1-1.3-0.9-1.2-1.2-1.1-0.7-0.7-1.6-0.8-2-0.5-0.3-0.2-0.4-0.3-1-1h-0.8l-1 0.3-2.2 0.3-0.4 0.1-0.5 0.4-1.3 1.2-0.5 0.3-1.1 0.2-1.4-0.4-0.6-0.1h-0.6l-0.5-0.4-0.2-0.5-0.1-1.9-0.2-0.8-1.8-3.4-0.6-1.7-0.8-1.6-0.6-0.5-1.6-0.8-1.5-0.4-0.4-0.4-0.2-0.4-0.2-0.6 0.2-1.5 0.9-3.3 0.7-4.8-0.1-1.4-0.2-0.8-0.6-0.9-0.7-0.8-0.5-0.4-0.4-0.2-1.4-0.2-4.2-0.1-0.7-0.1-0.5-0.2-1-0.9-0.8-0.8-0.3-0.7-1-3.6-0.2-0.5-0.5-1-0.6-5.1-0.3-0.9v-0.5l-0.1-1.4 0.1-0.8 0.2-0.9 0.8-1.5-0.1-0.5-1.8-1.6-0.4-0.3-0.8 0.2-0.7-0.1-0.2-0.4 0.4-2.5-0.1-1.2 0.3-1 1.1-2.1 0.3-0.8 0.2-0.9 1.4-3.3 1.6-2.4 0.2-0.9v-3.1l0.1-1.6 0.5-2.1 0.3-0.9 0.5-1 0.7-1 0.2-0.6 0.1-1.2 8.5-0.1 9.4 2.2 3.5 2 2 0.5 0.5-0.1 0.9-0.4h0.4l0.4 0.1 1.1 0.2 0.9 0.7 1.1 0.5 1 0.3 0.5 0.3 1.4 1.7 0.4 0.6 0.4 1.1v0.9l-0.3 0.7-0.6 0.8-0.5 1.3 0.6 0.9 1.1 0.8 0.6 0.6 0.1 0.5-0.4 1.1v0.5l0.3 0.4 0.9 0.6 0.2 0.4 0.3 1.2 0.7 1 2.8 2.8-0.1 0.8-0.8 1-0.2 0.6-0.1 0.5-0.2 1.1v0.6l0.1 0.8 0.3 0.3 0.5 0.2 0.5 0.4 1.3 2.9 0.5 0.4 1.1 0.5 0.7 1.2 0.2 1.5-0.4 1.3 0.6 0.8 0.2 2.5 0.9 0.5-0.1-0.7 1.2-4.2 0.5-1.1v-3.9l2.1-8.1 0.8-1.3 2.6-2.5 1.2-1.8 3.7-9.7 0.4-0.4 1-0.6 0.4-0.6 1.5-4 0.8-3 0.4-0.9 0.3-0.2 0.7-0.3 0.4-0.4 0.2-0.4 0.2-1.1 0.6-1.7 0.8-0.3 1.3-0.2 4.7 0.3 1 0.4 2 1.9 0.6 0.2 2.3-2 0.8-0.5 2-0.3 31.5 0.1 7.4-0.4 2.2 0.5 0.7 0.1 0.1 0.5 0.4 2.1v0.5l-0.2 0.5 0.4 0.6v1.7l0.3 1 0.7 0.7 2.4 1.2 2.2 1.5 0.5 0.7 0.3 0.5 0.2 0.8 0.9 0.3 0.4 0.2 0.4 0.4 0.2 0.4h-0.3l0.3 0.7-0.2 0.6-0.3 0.5-0.1 0.4 0.4 0.5 0.6 0.4 0.6 0.2h0.6l1.2 0.3 0.8 0.7 1.3 1.6 0.6 0.3 2 0.7 0.4 0.3 0.4 0.9 0.8 0.8 3.5 2.4 1 0.4 0.4 0.1z" name="Salta">
  <title>Salta</title>
 </path>
 <path id="Santiago_del_Estero" d="m511.3 213 82.4 0.1 1.6 4.6 0.6 22.4v6.4 29.8 57.4 10.7l-3 20.3-4.8 32-4.3 27.8-2.4 15.1-4.4 28.4-7.8-20.3-2.3-1.6-8.2-0.3-17 0.2-28.6-0.1-1-0.1-0.5-0.5v-1.4l-0.2-0.6-0.3-0.2-0.5-0.2-1.8-0.3-0.4-0.1-0.2-0.4v-0.3l0.2-1.5v-0.7l-0.3-0.5-0.8-0.2-1.8 0.4h-0.5l-3.6-1.2-0.7-0.1-5.9 1h-1l-3-0.2-0.8-0.4-0.6-0.4-0.8-0.7-0.5-0.2-3.2-0.7-0.3-0.2-0.4-0.4-0.6-1-3.8-2.1-0.7-0.6-0.3-0.5 0.1-0.7 0.1-1.4v-0.6l-0.2-0.3-0.5-0.2-9.8-2.6h-2l-5.5 1.4-9.4 2.4-14.6 3.8-1.1-1.5-0.6-1.5-0.5-1.1-3.3-5.8-2.2-5.3-2.1-16.8 0.2-4.7-0.9-11.2-0.2-0.9-0.3-0.6-1-1-2.1-1.2-0.6-0.1-0.2-0.6v-2l0.2-0.6 0.9-0.4 0.3-0.3 0.6-1.4 0.7-1 1.2-1.3 0.6-0.9 0.6-1.4 0.3-3.3-0.3-8.5-4.5-20.7 0.7-0.5 0.5-0.2h0.7l0.8 0.2h0.6l0.5-0.1 0.6-0.3 0.6-0.4 0.4-1 1.5-4.5 0.3-0.5 0.4-0.2h0.9l-0.1-0.8-1.4-2.9-2-5-0.1-1.3 0.6-1.6 0.6-0.3 1.1 0.1 0.6-0.1 0.4-0.2 0.5-0.4 0.5-0.6 0.6-1.1 0.2-0.4-0.1-0.3-1-0.8-1-0.4-0.9-0.2-0.8-0.2-0.8-0.6-0.2-0.2 3.1-3.6 0.7-0.6 2.4-2.9 0.7-0.7 0.5-0.3 1.2-0.2 0.3-0.3 0.3-0.6 1.1-3.2 1.2-1.6 1.5-3.9 0.6-2.4 0.7-3.3 0.4-1 0.5-0.5 0.3-0.4 0.6-0.2 0.7-1.6 1.8-6.9 0.6-2.6 0.3-0.7 0.4-0.2 1.1-0.1 0.9-0.2 0.3-0.3 0.2-0.6 1.4-5.2 0.4-0.6 0.6-0.2 3.2 0.5 0.2-0.3 0.1-1v-2.1l-0.4-4.1-0.8-5.7 0.1-1.2 1.8-5.9 0.1-1.6-0.1-4 0.3-1.9 0.1-0.3 1.8-3.5 0.4-1.1 0.1-0.5v-1.8-0.7l0.3-0.9 10.7-23.6 1-1.3 1.9 0.2 9.7 3.2 1.8 0.6 26.3 0.4z" name="Santiago del Estero">
  <title>Santiago del Estero</title>
 </path>
 <path id="Tucuman" d="m456.9 244.2 0.1 4-0.1 1.6-1.8 5.9-0.1 1.2 0.8 5.7 0.4 4.1v2.1l-0.1 1-0.2 0.3-3.2-0.5-0.6 0.2-0.4 0.6-1.4 5.2-0.2 0.6-0.3 0.3-0.9 0.2-1.1 0.1-0.4 0.2-0.3 0.7-0.6 2.6-1.8 6.9-0.7 1.6-0.6 0.2-0.3 0.4-0.5 0.5-0.4 1-0.7 3.3-0.6 2.4-1.5 3.9-1.2 1.6-1.1 3.2-0.3 0.6-0.3 0.3-1.2 0.2-0.5 0.3-0.7 0.7-2.4 2.9-0.7 0.6-3.1 3.6 0.2 0.2 0.8 0.6 0.8 0.2 0.9 0.2 1 0.4 1 0.8 0.1 0.3-0.2 0.4-0.6 1.1-0.5 0.6-0.5 0.4-0.4 0.2-0.6 0.1-1.1-0.1-0.6 0.3-0.6 1.6 0.1 1.3 2 5 1.4 2.9 0.1 0.8h-0.9l-0.4 0.2-0.3 0.5-1.5 4.5-0.4 1-0.6 0.4-0.6 0.3-0.5 0.1h-0.6l-0.8-0.2h-0.7l-0.5 0.2-0.7 0.5-1.4 0.6-1 0.2h-0.6l-0.7-0.3-1.1-0.5-1-0.7-1-1-0.7-0.5-0.8-0.4-0.8-0.1-4.1 2.7-1.6 1.6-1.7 1.3-0.2 0.3-1.4 1.9-1.1 2.6-0.3 0.5-0.7-0.2-4.2-5.3-0.5-0.7-0.7-2.2-0.5-3-0.5-1.7-0.2-0.3-0.5-0.5-2.3-1.2h-0.8l-0.4 0.3-0.6 0.3-1.3 0.4-1-0.6-0.5-0.9-0.2-0.7-0.2-1.2-0.7-2.2-0.2-0.6-0.3-0.3-0.7-0.4-0.5-0.3-0.6-0.6-0.5-0.8-0.2-0.5-0.3-2.5-0.7-1.3-1.7-8.4 0.5-1.3-0.3-0.7-0.6-0.2-1.5-0.1-3.5-2.2-0.6-0.2-1.7-0.2-1.1-0.3-1-0.4-0.4-0.3-0.2-0.3 0.2-0.6 1.3-1.9 0.8-2.1 1.6-1.8 1.1-0.9 1-1.1 0.5-0.7 0.4-1.4 0.9-1.6 1.2-1.6 1.7-1.8 3.5-3.6 1.4-2.2 0.5-1.4 0.2-0.9 0.1-0.6-0.1-3.2 0.1-0.8 0.8-3.2v-1.2l-0.1-0.9-0.2-0.6-0.8-0.8-2.2-1.1-3.2-2.6-1.8-1.8-0.7-0.5-1.1-0.5-1.3-0.4-1-0.2-1.1-0.2-0.8-0.6-0.8-1.1-0.2-0.8-0.1-0.6 0.2-0.9 0.8-2.7 1.1-2.4 0.5-1.5 0.2-1.2v-0.9l0.1-1.1 0.3-0.8 0.8-0.8 0.8-1 0.4-1.2 14.8 2.6h1.7l0.7-0.3 0.4-0.6 0.3-0.7v-0.7l-0.1-1.8v-0.8l0.3-1.2 0.4-1.2 0.1-1v-2.3l0.2-1.3 0.4-0.5 0.3-0.2 0.6 0.1 1.3 0.7 2.5 0.7 1.2-0.1h0.7l4.9 1.1h0.6l0.7-0.2 2.5-1.4 1.4-0.7 0.7-0.1h0.5l0.5 0.6 0.7 1.4 0.4 1.4 0.3 0.8 0.4 0.7 0.8 0.4 9.5 3.9 1.3-0.3 1 0.3 0.8 0.7 1.7 0.8 1 0.3h1.1l0.6-0.1 0.8-0.3 0.9-0.6 1-1 0.5-0.3 2.6-0.9 1.5-0.3 2.7 0.7 0.8 0.1 10.6-0.3z" name="Tucumán">
  <title>Tucumán</title>
 </path>
 <path id="Chaco" d="m764.1 281.5-1.2 0.1-0.5 0.5-0.4 0.7-1.1 0.5-2.2 0.6-0.8 0.5-0.4 0.7 0.1 0.8 0.7 0.7-0.4 0.8-0.8 1.1-0.5 0.7-0.3 0.9v0.9l-0.2 0.3-0.4-0.1-0.4-0.2-0.2-0.8-0.2-0.2-0.5 0.2-0.6 0.8-0.2 1-0.1 1 0.1 0.9-0.2 0.5-2.5 0.5-1.2 0.7-0.7 1.1-0.3 1.6 0.3 0.8 0.7 0.6 1.3 1 0.6 1 0.1 1.2-0.2 2.8-0.6 0.1-1.4 0.4-0.6 0.4-1.8 1.5-3.7 2.3-0.2 0.4-0.3 0.4-5.2 3.5-0.4 0.2-0.1 2v1.1l0.2 1 0.3 0.9 1.4 2.5 0.8 1.8 0.6 2.1 0.4 2.1v2.1l-0.2 1-1 2.9-0.2 1-0.1 1 0.2 2.2v1.1l-1.2 4.7h-36.7-22.2l-35.3 0.2-48.3-0.2v-10.7-57.4-29.8-6.4l-0.6-22.4-1.6-4.6-82.4-0.1 15.4-19.9 37.9-49.6-0.2-15.5 10.8 4.3 3.7 0.5 0.7 0.2 0.7 0.4 0.6 0.5 0.5 0.7 0.1 0.5 0.7 0.8 2.2 1.3 1.9 1.6 0.8 0.3 1 0.1 1.9 0.6 1.1 0.1h0.8l0.7 0.2 1.6 1.5 1.1 0.7 0.5 0.4 0.3 0.4 0.4 1 1.9 3.4 0.3 0.4 0.2 0.2 0.7-0.4 0.7 0.2 0.8 0.2 0.9-0.3 0.5 0.1 0.4 0.4 0.2 0.8 0.3 0.8 0.5 0.6 2 1.8 0.6 0.9 2.4 2.2 0.3 0.3 1.1 0.2 1.2-0.1h0.4l1.7 0.7 1.4 0.3 2.6 0.1h0.8l1.9 0.7 0.7 0.4 0.5 0.5 1.4 2.1 0.3 0.3 0.8 0.2 0.2 0.2v0.9 0.6l0.3 0.6 2 3 0.2 0.5-0.4 0.6-0.1 0.7 0.1 0.7 0.4 0.7 0.9 1 0.8 0.5 0.6-0.5h0.3l0.4 0.2 7 6 0.6 0.3 0.9 0.4 1.3 1.1 1.6 1.7 0.4 0.3 1.4 0.5 3.1 2 0.3 0.1 1.5 0.9 1.1 1.1 0.7 0.5 1.9 0.6 0.8 0.4 1 0.7 0.6 0.1 0.5-0.1h0.9l0.7 0.3 0.5 0.3 0.7 1.2 0.7 1.5 0.4 0.7 0.7 0.8 0.7 1.2 0.5 0.7 0.9 0.9 0.7 0.5 1.2 0.6 0.5 0.4 0.3 0.8 0.6 1 0.1 0.6-0.3 0.4-0.1 0.2 0.2 0.4 0.3 0.2 1.7 0.9 0.3 0.7 0.1 0.8 0.2 0.5 0.5 0.4 1.3 0.1 0.9 0.4v0.3l0.4 0.4 0.2 0.7-0.1 0.5-0.4 0.3-0.1 0.5 0.6 1.1 0.1 0.9 0.5 0.8 0.9 1.3 0.3 0.6 0.2 1 0.1 0.4 0.3 0.6 0.7 0.3 0.6-0.5 0.5-0.1 0.6 0.4 0.6 0.2 0.7 0.2 0.5 0.2 0.7 0.5 0.4 0.2 1.2 0.2 0.5 0.2 0.3 0.2 0.4 1.4 0.2 0.3 0.5 0.3 1.6 0.3 0.5 0.2 0.6 0.6 0.5 0.9 0.5 0.6 1.4 0.6 1.7 1 0.6 0.6 0.2 0.5-0.1 1.1 0.1 0.5 0.5 0.5 1 0.3 0.9 0.6 2.1 1.9 3.3 4.9 0.3 0.2 0.3 0.1h0.9l0.4 3.5-0.1 1.5-0.1 0.8 0.1 0.4 0.2 0.4 0.3 0.2 0.6 0.2 0.8-0.3h0.5l1.1 0.5 1.2 0.7 0.7 0.1 1-0.1h0.7l1.1 0.5h0.5 0.9l1.1 0.2 1.2 0.6 0.5 0.3 0.3 0.3 0.1 1 0.1 1.5 0.4 0.9 0.6 0.9 0.3 0.4-0.2 0.5v0.5l0.3 0.6 0.8 1.3 0.5 0.5 0.4 0.3h0.6l0.6-0.2h0.3l1.3 0.5 0.4 0.2 0.7-0.1 0.8-0.2 1-0.5 0.9-0.2 0.5-0.3 0.4-0.3 0.7-0.9 0.4-0.3 0.7-0.2 0.5 0.1 0.3 0.1 0.4 0.7 0.3 0.6 1.5 1.3 0.4 0.3 1.7 0.6 1.7 0.7 2.2 0.9 1.5 0.9 1 1 1.2 1.5 0.4 0.7 0.6 0.9 1.3 1.4 0.5 0.4 0.7 0.4 2 0.9 0.6 0.5 0.6 0.9 1.2 1.5 0.8 0.6h1.4l0.5 0.1 0.5 0.5 0.7 1.1 1 1.2 3.8 2.3 0.4 0.3 0.4 0.5 0.2 0.5 0.3 0.9 0.3 0.7 0.5 0.7 2.6 2.1 0.4 0.4 0.4 1.5 0.5 0.5 1 0.6 0.6 0.2h0.6l0.9-0.2h0.7l0.3 0.5-0.1 0.7 0.2 0.6 1.1 0.5z" name="Chaco">
  <title>Chaco</title>
 </path>
 <path id="Formosa" d="m764.1 281.5-1.1-0.5-0.2-0.6 0.1-0.7-0.3-0.5h-0.7l-0.9 0.2h-0.6l-0.6-0.2-1-0.6-0.5-0.5-0.4-1.5-0.4-0.4-2.6-2.1-0.5-0.7-0.3-0.7-0.3-0.9-0.2-0.5-0.4-0.5-0.4-0.3-3.8-2.3-1-1.2-0.7-1.1-0.5-0.5-0.5-0.1h-1.4l-0.8-0.6-1.2-1.5-0.6-0.9-0.6-0.5-2-0.9-0.7-0.4-0.5-0.4-1.3-1.4-0.6-0.9-0.4-0.7-1.2-1.5-1-1-1.5-0.9-2.2-0.9-1.7-0.7-1.7-0.6-0.4-0.3-1.5-1.3-0.3-0.6-0.4-0.7-0.3-0.1-0.5-0.1-0.7 0.2-0.4 0.3-0.7 0.9-0.4 0.3-0.5 0.3-0.9 0.2-1 0.5-0.8 0.2-0.7 0.1-0.4-0.2-1.3-0.5h-0.3l-0.6 0.2h-0.6l-0.4-0.3-0.5-0.5-0.8-1.3-0.3-0.6v-0.5l0.2-0.5-0.3-0.4-0.6-0.9-0.4-0.9-0.1-1.5-0.1-1-0.3-0.3-0.5-0.3-1.2-0.6-1.1-0.2h-0.9-0.5l-1.1-0.5h-0.7l-1 0.1-0.7-0.1-1.2-0.7-1.1-0.5h-0.5l-0.8 0.3-0.6-0.2-0.3-0.2-0.2-0.4-0.1-0.4 0.1-0.8 0.1-1.5-0.4-3.5h-0.9l-0.3-0.1-0.3-0.2-3.3-4.9-2.1-1.9-0.9-0.6-1-0.3-0.5-0.5-0.1-0.5 0.1-1.1-0.2-0.5-0.6-0.6-1.7-1-1.4-0.6-0.5-0.6-0.5-0.9-0.6-0.6-0.5-0.2-1.6-0.3-0.5-0.3-0.2-0.3-0.4-1.4-0.3-0.2-0.5-0.2-1.2-0.2-0.4-0.2-0.7-0.5-0.5-0.2-0.7-0.2-0.6-0.2-0.6-0.4-0.5 0.1-0.6 0.5-0.7-0.3-0.3-0.6-0.1-0.4-0.2-1-0.3-0.6-0.9-1.3-0.5-0.8-0.1-0.9-0.6-1.1 0.1-0.5 0.4-0.3 0.1-0.5-0.2-0.7-0.4-0.4v-0.3l-0.9-0.4-1.3-0.1-0.5-0.4-0.2-0.5-0.1-0.8-0.3-0.7-1.7-0.9-0.3-0.2-0.2-0.4 0.1-0.2 0.3-0.4-0.1-0.6-0.6-1-0.3-0.8-0.5-0.4-1.2-0.6-0.7-0.5-0.9-0.9-0.5-0.7-0.7-1.2-0.7-0.8-0.4-0.7-0.7-1.5-0.7-1.2-0.5-0.3-0.7-0.3h-0.9l-0.5 0.1-0.6-0.1-1-0.7-0.8-0.4-1.9-0.6-0.7-0.5-1.1-1.1-1.5-0.9-0.3-0.1-3.1-2-1.4-0.5-0.4-0.3-1.6-1.7-1.3-1.1-0.9-0.4-0.6-0.3-7-6-0.4-0.2h-0.3l-0.6 0.5-0.8-0.5-0.9-1-0.4-0.7-0.1-0.7 0.1-0.7 0.4-0.6-0.2-0.5-2-3-0.3-0.6v-0.6-0.9l-0.2-0.2-0.8-0.2-0.3-0.3-1.4-2.1-0.5-0.5-0.7-0.4-1.9-0.7h-0.8l-2.6-0.1-1.4-0.3-1.7-0.7h-0.4l-1.2 0.1-1.1-0.2-0.3-0.3-2.4-2.2-0.6-0.9-2-1.8-0.5-0.6-0.3-0.8-0.2-0.8-0.4-0.4-0.5-0.1-0.9 0.3-0.8-0.2-0.7-0.2-0.7 0.4-0.2-0.2-0.3-0.4-1.9-3.4-0.4-1-0.3-0.4-0.5-0.4-1.1-0.7-1.6-1.5-0.7-0.2h-0.8l-1.1-0.1-1.9-0.6-1-0.1-0.8-0.3-1.9-1.6-2.2-1.3-0.7-0.8-0.1-0.5-0.5-0.7-0.6-0.5-0.7-0.4-0.7-0.2-3.7-0.5-10.8-4.3v-30.9l-0.1-59 1.8 0.2 0.5 0.2 0.4 0.2 0.2 0.5v0.6l0.1 0.4 0.9 0.2 1.1 1.3 0.4 0.9-0.3 0.9-0.7 1v0.7l0.7 0.5 1.2 0.6 1.1 0.2 0.3 0.6-0.4 1.2v0.7l1 0.6-0.7 1.3 0.3 0.3 0.6 0.2 0.4 0.4 0.2 0.6 0.3 0.6 1.4 1.5 0.5 1.3 1.3 1.1 0.2 0.1 0.2 0.6 1.5 1.8 0.8 1.1 0.9 2 0.6 0.8 0.1 0.5-0.3 1.3 0.2 0.5 0.7 1 1.8 2 5.5 3.4 0.4 0.4 1.2 1.7 0.6 0.5 1.1 0.7 1.1 1.1 0.3 0.5 0.1 0.7 0.1 1 0.2 0.9 0.5 0.5 0.8 0.3 0.7 0.5 0.8 0.9 0.4 0.2 0.7 0.2h2.3l0.8 0.4 2.5 2.7 0.4 0.2 0.6 0.1h0.9l-0.5 1.1v0.6l0.8 0.5 0.5 1.3 0.4 0.3h1.1l0.9 0.2 0.8 0.3 0.8 0.6 0.6 0.5 0.5 0.4 0.7 0.2h1.1l3.3 1.5 0.4 0.7 0.3 0.8 0.5 0.8 1 0.3 0.5 0.2 1 1 0.4 0.3h1.4 0.3l0.7 0.5 0.6 0.8 0.8 0.7 0.8 0.3 0.7 0.4 0.1 1.2-0.1 1.2-0.5 0.9 0.5 0.5 0.8 1.4 1.3 0.8 0.9 1 0.6 1.2v0.7l0.3 0.3 0.8 1.2 0.4 0.5 1.6 1 1.9-0.5 1.9 0.9 1.7 1.4 1.4 0.8 1 0.2 4.4-0.1 0.5 0.1 1 0.9 0.5 0.1 2.3-0.1 0.6 0.1 0.5 0.2 0.9 0.4 0.5 0.1v0.4l0.8 1.7 0.3 0.1 1.8 0.1 0.9 0.4 1.7 1.2 3.1 0.6h1.7 0.5l0.5 0.4 1 0.9 0.5 0.3 0.5 0.1 1.6-0.1 3.9 0.6 3.8-0.2 1.2-0.2 2.3-0.9 1.1-0.1 0.9 0.3 18 11.9 1.9 2 0.9 1.2 0.4 0.4 0.5 0.1 1.2 0.2 0.9 0.5 0.9 0.2 0.4 0.3 0.5 0.6 0.6 0.4 1.1 0.7 1.1 0.5 0.3 0.3 0.5 1.3 1.2 0.5 1.9 1.7 0.5 0.6 1 1.9 0.9 1.1 1.6 0.6 0.7 0.8 0.4 0.1 0.8 0.1 0.4 0.3 0.2 0.4 0.5 0.4 2.1 0.7 1.4 1 1.2 0.4 1.9 1.3 1 0.3 0.9 0.1h0.3l0.5 0.3 1 1 0.5 0.4 1.6 0.4 9.6 7.3 1 0.3h2.6l0.7 0.2 1.1 0.7 0.1 0.5 0.2 0.2 11.1 2.2 1.1 0.6 0.6 0.6 1.2 1.7 3.3 3.6 0.4 1 0.3 0.3 0.6 0.2 0.6-0.1 1.2-0.8 1.4-1.5 0.9-0.6h0.9l4.5 3.1 0.5 0.8h0.6l3.5 1.8h0.5l1.1-0.1 0.5 0.1 0.3 0.4 0.2 0.7 0.3 0.5 0.7 0.3h4l1 0.3 0.7 0.7 2.2 2.6 0.8 0.5 1.5 0.8 0.6 0.7 1.6 3.6 1 1.4 1.6 1.1 1.5 3.9v0.7l3.1 2.4 0.7 0.8 0.3 0.7 0.1 0.9-0.7 4.8-0.2 1-0.6 0.6-0.7 0.2-0.5 0.4-0.3 1.3-0.3 0.3-0.8 0.1-1.5-0.2-0.1 0.2-0.2 1.3-0.2 0.4-0.5 0.3-1.6 0.1-1 0.4-0.7 0.6-1 1.6 0.3 0.5 0.4 0.3 1 0.4-0.5 0.7-0.9 0.9-0.9 0.7-1 0.3-0.7 0.5 0.2 1.1 0.7 1.8-0.5 0.8-1 0.8-1.1 0.5-1 0.4-0.2 0.4 0.2 0.4 1.1 0.4 0.1 0.6-0.3 0.7-0.3 0.4-1.8 1.4-0.4 0.9 2.3 0.7v0.7l-0.6 0.9-5.8 4.4-1.7 0.9-3.2 1.2-0.5 0.6-0.5 1.8-0.5 1.2-0.4 0.6-0.2-0.4-0.3-0.3-0.9-0.4 0.2 1 0.5 0.5 0.8 0.4 0.8 0.5v0.8l-0.9 0.7-1.1 0.4-0.8 0.2-0.4 0.4v0.9l0.3 1.8-0.2 0.9-0.2 0.8-1.7 3-0.4 0.9 0.2 0.7 1.2 1.2-0.1 0.5-0.7 0.6-0.2 0.4-0.1 1-0.3 0.9-0.2 0.8 0.2 1 0.3 0.3 1.1 0.8 0.3 0.4 0.5 0.8 0.3 0.3-0.4 0.4-1 0.8v0.6l0.5 1 0.2 0.5-0.3 0.3-0.6 0.1-1.6-0.3-0.4-0.1-0.2 0.6-0.3 1.1-0.1 4.3-0.2 0.3-1 0.1-0.8 0.2 0.1 0.6 0.4 0.6 0.1 0.5-0.6 0.7-0.9-0.1-0.9-0.3-0.8 0.3-0.6 1.2 0.6 0.8 0.9 0.7 0.3 0.9-0.7 0.6-1.1 0.1z" name="Formosa">
  <title>Formosa</title>
 </path>
 <path id="Corrientes" d="m883.6 306.6-1.4 1.1-0.3 0.5-0.7 1.9-0.3 1.4v1.3l0.1 0.6 7.2 14.9 0.8 2.1 0.3 1.9 0.7 6.8 0.3 0.7 0.4 0.7 1.6 1.6 0.5 0.7 0.4 0.9 0.3 0.7 0.1 1.1 0.1 0.5 0.3 0.7 0.4 0.6 0.7 0.8 1.5 1.5 4 2.8 0.2 0.2-0.5 0.6-0.5 0.3-2.1 2-3.2 1.2-1.2 0.9 0.3 1.4 0.6 0.5 2 0.9 0.6 0.2 0.7 0.3 0.5 0.7 0.7 1.4-0.7 2.7-0.3 0.8-0.5 0.6-0.6 0.5-0.4-0.2-0.2-1.1-0.8-1.1-1.9-0.5-2-0.2-1.5-0.4-2.3 1-0.9 0.8 0.3 1.2 0.2 0.4-0.1 2.7v0.4l-0.6 0.6-0.5 0.1-1.6 0.2-1.4 0.7-1.6 0.4-0.5 0.8-0.1 1.1 0.2 1-0.1 2.2-1 1.4-3.1 2.2-4.1 5.5-1.7 1.1-2.3 0.5-1.1 0.4-0.4 0.9-0.3 4.9-1.1 2-3.4 2.1-1 2.2-0.1 2.3-0.1 1.2-0.7 1-0.8 0.5-3.4 0.9-1.8 0.9-1.8 1.3-1.6 1.6-1.4 2.1-0.3 0.7-0.3 0.8v0.9l0.3 0.7-0.5 1.1-0.8 2.5-0.6 0.9-0.9 0.8-0.6 0.5-1.8 0.9-0.8 0.7-0.5 0.9-0.1 0.6v0.6l-0.1 0.6-0.8 0.4-0.4 0.6-0.2 0.8-0.1 0.5-0.2 0.5-4 3.5-0.3 0.8-0.4 0.5-2 1.6-0.7 0.8-0.7 2-1.4 1.6-0.3 0.6-0.4 0.6-3.6 3.9-1 0.9-1 0.3-2.2 0.1-2.1 0.3-2.2 0.8-1.4 1.3-0.9 1.9-0.5 6.8-0.3 0.9-4.3 3.4-4.8 6-2.1 1.5-1 0.4-2.1 0.4h-1.2l-0.4 0.6 0.2 1.2 0.8 2.5-0.4 2.3-1.1 1.8-9.9 9.1-1.3 1.7-0.7 2.1 0.2 2.3 1.2 2.3 0.7 1.1 1.1 2.4 0.4 1.3 0.5 2.1-0.4-0.2-2.7-2.1-5.8-6.1-0.5-0.8-2-4-0.4-1.3-0.4-2.6-0.2-0.8-0.6-1.1-2.3-1.8-2.9-2.9-1.1-1.4-0.7-1.5-0.6-1.6-0.5-0.6-1.5-1.3-9.8-2.7-2.3 0.1-1-0.1-0.9-0.4-1.2-0.9-0.5-0.3-0.7-0.2-0.7-0.1-1.4 0.1-6.4 2.6-0.9 0.5-0.9 0.3-4.2 0.9h-0.5l-1.5-0.2-2.8-0.9-1.6-0.2-0.8 0.3-1.2 0.6-2.7 1.8-2 1.8-0.3 0.6-1.1 0.8-3.8 2.2-4.7-1.8-2.6-0.4-3.4 0.8h-0.4l-1.3-0.5h-0.7l-3.2 1.2-0.6 0.1-4.1 0.2-0.4-2.5 0.1-1 1-3 0.2-1 0.1-2.2 0.2-1.1 0.3-1 1.5-2.8 0.2-1 0.1-1.1-0.2-2.1-1.5-4.8-1.8-3-0.4-1.8 0.4-1.6 1.6-3.1 0.3-0.8 1.8-7.9 0.1-11.7 0.3-1.9 1.8-6.8 0.7-1.6 1.1-1.4 1.3-1 1.5-0.8 4.9-1.9 1.4-1.1 1.3-1.3 1.5-1.2 2.3-1.3 0.7-0.5 0.8-1.5 0.3-2-0.1-3.8h0.2l0.4-1.1 1.1-2 0.4-1 0.1-1.4 0.5-2v-0.5l-0.1-1v-1l0.3-1 1.9-3.7 0.3-1 0.3-1.1v-1.1l-0.2-4.4 1.2-7.4-0.1-0.9-1-2.5-0.1-1.1 0.4-3.2v-1.1l-0.4-2v-1.1l0.1-0.9 0.4-1.1 0.4-0.9 0.6-0.6 0.9-0.5 1-0.1h2l1.6-0.4 1.5-1 1.3-1.4 0.9-1.5 0.6-2.5 1.2-4.7v-1.1l-0.2-2.2 0.1-1 0.2-1 1-2.9 0.2-1v-2.1l-0.4-2.1-0.6-2.1-0.8-1.8-1.4-2.5-0.3-0.9-0.2-1v-1.1l0.1-2 0.4-0.2 5.2-3.5 0.3-0.4 0.2-0.4 3.7-2.3 1.8-1.5 0.6-0.4 1.4-0.4 0.6-0.1 0.2-0.2 4.4-1.9 13.7-1.2 5.5 0.7h0.7l3-0.6h1.6l3.9 0.9 1.6 0.6 2.9 0.7 2.1 0.7 5.2 1.1 0.5 0.2 8.2 4.2 1.1 0.3 1.3 0.2 5-0.8h1.3l1.3 0.4 0.5 0.3 1.1 1.2 0.5 0.2 2.8 0.8 0.5 0.3 1.4 1.1 0.4 0.3 0.6 0.2h1.1l0.5 0.1 1.9 0.1 1.7-0.4 4.9-2.8 1.9-0.7 1.8-0.2 1.7 0.7 3.1 3.1 1.9 1.2 1.8-0.4 2.6-2 3.5-1 3.3 0.5 2 2.5 1 1.5 1.3 1.5 1.5 1.3 1.6 0.6 1.6-0.3 0.9-1.4 0.7-1.8 0.9-1.4 1-1.1 0.6-1.1 0.2-1.3-0.2-1.5 0.3-1.2 1.1-0.7 1.5-0.4 1.1-0.5 1.8-2.1 1-0.7 1.2-0.8 1.3 0.1 1.3 0.3 3.3 1.3 1.1 0.2h1z" name="Corrientes">
  <title>Corrientes</title>
 </path>
 <path id="Entre_Rios" d="m791.3 502.4 0.3 1.5 0.3 2.5 0.1 2.4-0.1 0.6-0.3 1.4-0.2 0.9-0.7 0.3-1.1-0.2-2.1 0.6-1 0.6-0.4 1 0.3 0.7 2.2 3.1 0.4 2.8-1 2-1.2 1.9-0.7 2.6 0.4 2.6v1.5l-0.5 0.7-1.1 2.2-0.3 0.4-0.9 0.7-0.3 0.3-0.5 1.2-0.2 2.7-0.5 1.1-0.8 0.7-1.9 1.2-0.9 0.8-0.7 1.8 1.3 1.5 1.8 1.4 1.4 1.7 0.3 2.6-0.4 2.6-3 9.1-0.6 0.9-1.2 0.4-2.3 0.5-1.1 0.5-0.8 0.6-1.4 1.6-0.3 1.2 0.6 1.2 1.6 1.8 0.4 1.8 0.2 2.5-0.1 2.7-0.5 2.3-1.1 1.8-0.3 1.2 0.5 1.3 3.5 4.6 0.5 1.7-0.3 1.8-3.1 4.6-1.3 2.7-0.5 0.6-1 2.7-0.1 2.6 0.5 7.4 0.9 4 0.7 6.1 0.5 1.2 1.3 2.2 0.3 0.9-0.2 1.2-0.7 2.3-0.2 1.3 0.5 2.7 0.2 1.5-0.5 0.6-1.9 1.7-0.5 0.2-1.2 0.2h-0.7l-7.1-1.2-1.8 0.8-0.5 0.8-0.1 0.6 0.9 0.4v0.4l-0.3 1.3-0.1 1.3-0.5 2.6-0.1 1.2 0.8 2.6 0.3 1.3-0.5 0.6-0.9 0.5-1 1.1-1.4 2.1-1 2.2-0.7 2.6-0.5 2.7-0.2 2.4 0.3 2.7-0.1 0.6-0.5 1.2-0.4 4.5v1.3l0.4 2.4 0.9 2 2.7 3.9 0.4 1 0.3 1.2 0.2 2.7 0.6 3.3-0.1 0.7-0.3 0.7v0.3l-2.6 0.6-4.6 1.9h-2.4l-2-1-5.1-4.8-1-0.4-2.4-0.5-1-0.6-2.7-2.4-3.6-2.2-0.9-0.7-1-0.6-1.3-0.2-5.2 0.1-0.5-0.2-0.4-0.8-1-1h-0.3l-0.8 0.4-0.5-0.2-0.8-0.7-0.2-0.6v-1.5l-0.1-0.8-0.4-0.9-0.3-0.1-0.5 0.1-0.7 0.2-0.2 0.1-0.5 0.6h-4.3l-2.5-1.3-1.9-2.2-2.1-1.5-2.8 0.9-1.3 0.4-1.9-0.4-6.6-3.6-0.7-0.7-1.9-3-0.9-0.9-0.8-0.6-2.4-1.2-1.2-0.3-0.8-0.3-8.6-6-6.4-7-2.4-1.3-1.5-0.9-1.2-1-0.2-0.4-0.6-1.1-0.9-1-0.5-0.5-1.1-0.5-0.9-0.4-3.2-2.2-2.8-3.7-0.3-0.5-1.2-4-0.3-0.5-0.9-0.8-0.8-1.4-2.7-5.6-0.7-2.2-0.4-2.3-0.4-5.4-0.4-1.2-0.5-1-1.8-2.9-0.4-0.9-0.1-1.1 0.2-1.2 1.5-3.7 0.3-1.3 0.1-1.2-0.2-3.6v-1.2l0.3-1.2 1-3.5 0.2-1.2v-1.3l-0.4-3.5 0.1-1.1 0.4-1.1 1.7-2.9 0.2-1.1-0.2-1.3-0.6-1.1-1.4-2-0.6-1.4-0.2-1.4 0.1-1.5 0.5-1.4 1.4-1.9 0.4-0.8 0.1-0.6 0.3-1.9 0.5-1.7 0.2-0.9-0.1-0.8 0.2-0.2-0.2-0.5v-0.5l0.1-0.6 0.2-0.4 0.4-0.3 0.4-0.2 1.3-0.4 1-0.1 1.1 0.1h3.4l1.1-0.2 1.1-0.3 0.9-0.5 1-0.6 1.7-1.4 1.4-1.7 2.5-3.8 1.4-1.5 0.6-1 0.4-0.5 0.7-0.7 0.7-0.3 0.2-0.2 0.5-1 0.3-0.3 0.8-0.4 0.7-0.3 0.6-0.5 1-1.7 2-2.6 0.3-0.8 0.2-0.1 1.6-4.9 0.5-0.8 2-1.8 0.6-0.8 3-5.6 3-4.3 2-3.8 2.3-3.1 1.1-1.9 2.7-3.5 2.9-5.6 0.4-1.1 0.2-3.3 0.2-1.1 1-2.8 0.2-1.1v-3.3l0.3-2.2v-1l-0.1-0.9-1.4-2.7-0.4-1-0.4-2.7 4.1-0.2 0.6-0.1 3.2-1.2h0.7l1.3 0.5h0.4l3.4-0.8 2.6 0.4 4.7 1.8 3.8-2.2 1.1-0.8 0.3-0.6 2-1.8 2.7-1.8 1.2-0.6 0.8-0.3 1.6 0.2 2.8 0.9 1.5 0.2h0.5l4.2-0.9 0.9-0.3 0.9-0.5 6.4-2.6 1.4-0.1 0.7 0.1 0.7 0.2 0.5 0.3 1.2 0.9 0.9 0.4 1 0.1 2.3-0.1 9.8 2.7 1.5 1.3 0.5 0.6 0.6 1.6 0.7 1.5 1.1 1.4 2.9 2.9 2.3 1.8 0.6 1.1 0.2 0.8 0.4 2.6 0.4 1.3 2 4 0.5 0.8 5.8 6.1 2.7 2.1 0.4 0.2z" name="Entre Ríos">
  <title>Entre Ríos</title>
 </path>
 <path id="Santa_Fe" d="m698.5 478.5 0.4 2.7 0.4 1 1.4 2.7 0.1 0.9v1l-0.3 2.2v3.3l-0.2 1.1-1 2.8-0.2 1.1-0.2 3.3-0.4 1.1-2.9 5.6-2.7 3.5-1.1 1.9-2.3 3.1-2 3.8-3 4.3-3 5.6-0.6 0.8-2 1.8-0.5 0.8-1.6 4.9-0.2 0.1-0.3 0.8-2 2.6-1 1.7-0.6 0.5-0.7 0.3-0.8 0.4-0.3 0.3-0.5 1-0.2 0.2-0.7 0.3-0.7 0.7-0.4 0.5-0.6 1-1.4 1.5-2.5 3.8-1.4 1.7-1.7 1.4-1 0.6-0.9 0.5-1.1 0.3-1.1 0.2h-3.4l-1.1-0.1-1 0.1-1.3 0.4-0.4 0.2-0.4 0.3-0.2 0.4-0.1 0.6v0.5l0.2 0.5-0.2 0.2 0.1 0.8-0.2 0.9-0.5 1.7-0.3 1.9-0.1 0.6-0.4 0.8-1.4 1.9-0.5 1.4-0.1 1.5 0.2 1.4 0.6 1.4 1.4 2 0.6 1.1 0.2 1.3-0.2 1.1-1.7 2.9-0.4 1.1-0.1 1.1 0.4 3.5v1.3l-0.2 1.2-1 3.5-0.3 1.2v1.2l0.2 3.6-0.1 1.2-0.3 1.3-1.5 3.7-0.2 1.2 0.1 1.1 0.4 0.9 1.8 2.9 0.5 1 0.4 1.2 0.4 5.4 0.4 2.3 0.7 2.2 2.7 5.6 0.8 1.4 0.9 0.8 0.3 0.5 1.2 4 0.3 0.5 2.8 3.7 3.2 2.2 0.9 0.4 1.1 0.5 0.5 0.5 0.9 1 0.6 1.1 0.2 0.4 1.2 1 1.5 0.9 0.9 1.3 0.1 0.8-0.2 0.9-0.4 0.8-0.6 0.6-0.4 0.2-1 0.3-0.5 0.3-0.3 0.6-0.2 0.8-0.1 1 0.1 1.3-0.3 0.8-0.6 0.6-2.1 1.6-0.4 0.7-0.3 2.8-0.3 1.5-0.2 0.6-1.8 3.9-0.5 0.6-1.2 0.7-2.1 0.5-1.2-0.1-0.9-0.3-0.7-0.5-1.4-1.5-2-1.4-0.6-0.2-4.8-0.1-0.6-0.2-1.6-0.9-0.4-0.2-0.8-0.1h-0.9l-0.7 0.1-1.2 0.3-0.7 0.4-0.8 0.9-0.5 1.4 0.5 1.9-1.8 2.6-9 10.3-11.9 13.4-16.5 18.6h-2.6l-26.4 0.2-28.3 0.1 20.2-33 15.3-25.1 11.3-18.3 1.4-1.8 1.1 0.1 0.6-0.1 0.6-0.2 0.7-0.5 0.8-0.6 1.8-1.9 0.9-1.8 0.1-1.1 0.1-1.5v-3.6l0.2-1.2 0.7-1.5 0.3-0.9 0.1-0.5-0.2-0.9-0.3-0.9-0.4-0.6-1.3-1.1-0.4-0.6-0.9-2-1.4-2.7-0.4-0.4-0.6-0.2-1.5-0.3-0.7-0.4v-0.5l0.7-0.9 0.5-0.9 0.1-0.8 0.1-1.2-0.3-0.7-0.6-0.3-0.6-0.8-0.1-0.3-0.1-2-0.3-1.8-0.4-1.4-0.9-1.2-0.6-0.6-3.6-2.7-1.1-2-0.4-0.9-1.4-5-0.2-0.6-0.2-0.2-1-0.7-1.5-0.7-0.4-0.3-1.6-1.9-1-0.9-1.4-1.5 0.2-4.8 0.2-1.5 0.3-1 0.4-0.9 0.6-1.7v-0.9l-1.2-2-0.3-0.9-0.4-3.5v-0.8l0.3-2.7v-1.1l-0.2-0.6-0.8-1.3v-0.4l0.1-0.6 0.6-0.8 2.1-1.8 2.1-2.1 0.9-1.9 12.8-48 0.4-3.4-2.3-3.4-11.1-12.5-0.3-1-0.1-1.4 2.3-15.1 4.4-28.4 2.4-15.1 4.3-27.8 4.8-32 3-20.3 48.3 0.2 35.3-0.2h22.2 36.7l-0.6 2.5-0.9 1.5-1.3 1.4-1.5 1-1.6 0.4h-2l-1 0.1-0.9 0.5-0.6 0.6-0.4 0.9-0.4 1.1-0.1 0.9v1.1l0.4 2v1.1l-0.4 3.2 0.1 1.1 1 2.5 0.1 0.9-1.2 7.4 0.2 4.4v1.1l-0.3 1.1-0.3 1-1.9 3.7-0.3 1v1l0.1 1v0.5l-0.5 2-0.1 1.4-0.4 1-1.1 2-0.4 1.1h-0.2l0.1 3.8-0.3 2-0.8 1.5-0.7 0.5-2.3 1.3-1.5 1.2-1.3 1.3-1.4 1.1-4.9 1.9-1.5 0.8-1.3 1-1.1 1.4-0.7 1.6-1.8 6.8-0.3 1.9-0.1 11.7-1.8 7.9-0.3 0.8-1.6 3.1-0.4 1.6 0.4 1.8 1.8 3 1.5 4.8 0.2 2.1-0.1 1.1-0.2 1-1.5 2.8-0.3 1-0.2 1.1-0.1 2.2-0.2 1-1 3-0.1 1 0.4 2.5z" name="Santa Fe">
  <title>Santa Fe</title>
 </path>
 <path id="Misiones" d="m904.8 352.6-0.2-0.2-4-2.8-1.5-1.5-0.7-0.8-0.4-0.6-0.3-0.7-0.1-0.5-0.1-1.1-0.3-0.7-0.4-0.9-0.5-0.7-1.6-1.6-0.4-0.7-0.3-0.7-0.7-6.8-0.3-1.9-0.8-2.1-7.2-14.9-0.1-0.6v-1.3l0.3-1.4 0.7-1.9 0.3-0.5 1.4-1.1 1.5-0.2h1.1l1 0.4 0.8 1 0.8 2.1 0.4 0.6 0.6 0.4 1.3 0.3 3.1 1.7 1.8-1.5 1.8-2.1 1.4-1.1 1.3-0.2 1-0.6 0.8-1 0.5-1.3 0.1-0.8-0.2-0.8 0.7-1.1 0.1-0.6-0.1-0.6-0.2-0.7-1.2-2.3v-0.9l1.3-0.3 0.9-0.4 0.2-1 0.3-1.2 0.5-0.9 1-0.1 1.4 0.1 1.2-0.1 0.6-0.9 0.1-2.6 0.3-1.1 0.6-1.1 0.8-0.9 0.9-0.6 1-0.3 2.4-0.3 2.4-1.4h1.2l1.1 0.5 0.9 0.5 0.8 0.2 2 0.1 1.1-0.2 0.8-0.7 0.2-1.2-0.7-2.2 0.4-0.9 3.2-3.3 1-0.4 2.5-0.2 0.8-0.4 0.7-0.9 0.5-0.8 0.4-1 0.6-2.6 0.6-1.1 0.8-0.8 1.2-0.3h2.2l0.4 0.2 0.5 0.5 0.5-0.3 0.7-0.9 0.4-1.3 0.2-1.3 0.1-1.3-0.2-1.1-0.3-0.8v-0.7l0.5-1.1 0.7-0.9 1.4-1.1 1.6-1.8 0.4-0.8 0.2-0.9 0.5-3.4 0.2-0.6 0.8-1.8v-2.5l-0.1-1.1 0.1-0.4 0.4-0.7 0.6-0.8 0.3-0.7-0.2-0.7-0.9-1.1-0.2-0.8 1-3.6 0.1-1.3-0.6-1.8-0.2-1.6-0.2-0.6v-0.6l0.3-0.6 0.4-0.2 1.2-0.1 0.4-0.1 0.5-0.8-0.1-1.1-0.4-2.5 0.3-0.9 0.5-0.9 0.5-1 0.1-1.2-0.3-0.7-1.2-1.4-0.2-0.7-0.1-1.1-1-2.9 0.1-1.5 0.4-0.5 1.8 0.1 0.7-0.5-0.1-1.2-0.8-1.7 0.1-1 2-0.3 0.7 0.3 0.3 0.6 0.1 0.8 0.3 0.6 1-0.3 1.1 0.5 0.9 0.6 0.6 0.9 0.2 1.2v0.5l0.1 0.6 0.3 0.3 0.5-0.2 0.3-0.5-0.3-1.1v-0.6l0.3-0.5 1-0.5 0.4-0.4 0.1-0.6v-1.1l0.3-0.5 0.5-0.2h0.4l0.9 0.4 0.5-0.1 0.9-1.1 0.5-0.4 1.2-0.2 0.7 0.3 0.5 0.6 0.6 1.2 0.3 0.5 0.3-0.3 0.3-0.9h0.8l0.9 0.3 1-0.1-0.2-1-1-1.7 0.4-0.2 0.5 0.1 0.9 0.3 0.7-0.1 0.5-0.3 1.3-1.5 0.6-0.4 0.5 0.4-0.3 1-0.4 0.9-0.3 0.9 0.2 1.1 0.3 0.5 0.4 0.5 0.5 0.4h0.5l0.2-0.3-0.2-1.8 0.3-0.5 0.5 0.3 0.9 0.8 0.6-0.1 0.6-0.3 0.7 0.1 1 0.6 0.6 0.8 0.3 1 0.1 1.1 0.5 1.4 0.9-0.1 2-1.2 0.6 0.6 0.5 1.2 0.5 2-0.1 0.5-0.3 0.9 0.1 0.7 0.3 0.6 1 0.9 0.4 0.6 0.4 1 0.2 1-0.2 3.3 0.6 2.9-0.1 0.6-0.2 1 0.1 0.7 0.4 0.6 1.6 1.6 1.4 1.5 0.6 1.7 0.3 1.8 0.7 2 2.4 3.4 0.9 1.8 0.3 2.2-0.6 1.9-2.1 3-0.4 1.6 0.5 5.3v1.7l-0.7 0.6-0.4 0.4-0.1 0.4 0.1 0.5 0.4 1-0.1 0.8-0.6 1.9-0.1 1 0.3 2.2-0.1 1-0.3 1-0.4 0.3-0.9 0.3-0.1 0.6 0.2 0.7 0.4 0.3 0.7 0.4v0.5l-0.3 0.8v0.6l1 0.2 0.6 2.1 0.5 3.3-0.1 1.8-0.6 2-2.2 4.7-0.2 0.3-0.3 0.2-0.8 0.1-0.3 0.2-0.2 0.8 0.1 1.6-0.1 0.7-0.2 0.4-0.8 0.5-0.2 0.3 0.1 0.4 0.4 0.5v0.5l-0.5 0.9-0.6 0.4-0.4-0.3-0.4-1-0.6-0.8-0.7-0.3-0.4 0.4-0.4 1.7-0.5 0.6-0.8-0.1-0.7-0.6-0.6-0.5-0.7 0.4-0.1 0.7 0.3 0.8v0.6l-1 0.2-0.4-0.1-0.4-0.3h-0.4l-0.3 0.3-0.4 1.1-3.6 4.1-1.9 0.2-1.5-0.5 0.1-1.3-0.4-0.4-0.6-0.4-0.6 1-1.5 3.9-0.5 0.7-0.2 0.5 0.2 1.2-0.2 0.5-0.3 0.1-0.6 0.1-0.5 0.2-0.4 1-0.3 0.6-0.6 0.7h-1l-0.8-0.5-0.6-0.8-0.7-0.7 0.1 1.8-0.1 0.6-0.3 0.6-0.5 0.4h-0.4l-0.1-0.5-0.2-1.3-0.5-0.6-0.8-0.2-2 0.1-0.8 0.2-0.2 0.6 0.8 1.2v0.8l-1 0.6-3.3 1h-0.5l-0.5-0.3-0.2-0.3-0.6-1.2-0.7-0.2h-0.3l-0.4 0.4-0.4 0.5-0.2 0.6-0.3 1-0.5 1.1-0.7 0.6h-0.6l-0.2-1.1-0.2-0.2h-0.3l-0.4 0.3-0.1 0.7-0.1 1.2-0.2 0.2-0.4 0.3-0.5 0.1-1.1-0.1h-0.5l-2.1 0.7-0.3-0.1-0.4-0.5-0.3-0.2 0.4-0.9-0.3-0.6-0.7 0.2-0.7 0.5-0.4 0.5-0.3 1.2-0.2 1.4-0.4 1.2-1 0.5h-1.2l-0.4 0.2 0.1 2.1-0.3 2.5-0.3 1.2-0.3 0.6-1 0.4-2.6 2.3-1.2 0.2-0.9-0.3-0.9-0.4-1-0.3-0.8 0.4 0.5 0.9 1.5 1.5 0.8 1.1-0.2 0.6h-0.8l-1.1-0.6-0.5 0.2h-1.1l-0.5 0.2-0.1 0.4-0.4 1.5-1-0.2-1.1-1-0.8-0.3-1 0.4-0.8 0.9-0.6 1-1.8 1.4-0.5 0.2-0.5-0.1-1-0.4-0.7 0.1-0.8 0.7-0.1 1.1-0.3 0.9-1 0.4h-0.5l-0.4 0.2-0.2 0.3-0.1 0.5 0.1 1.2-0.5 0.9-2.2 2.6-0.3 0.5-1.2 0.3-0.5 0.1-0.4-0.2-0.2-0.3-0.3-0.2-0.7 0.3-0.2 0.3-0.5 1.3-1.2 1-0.2 0.4-0.1 0.4-0.2 0.4-0.5 0.1-0.6-0.2-0.1-0.5v-0.5l-0.2-0.3-1.1-0.3-0.6 0.8z" name="Misiones">
  <title>Misiones</title>
 </path>
 <path d="m765.9 735.2-0.3 0.9-1.1 1.1-1.8 0.3-1.3 1.3-1.9 3.6-4.9-3.9-1-3.5 1.1-5.2 3.3-2.8 1.1 0.7 0.9 0.5 1 0.8 1.7 1.1 0.8 0.8 0.9 1.3 0.7 1.5 0.8 1.5z" name="Ciudad de Buenos Aires"/>
 <circle cx="415.8" cy="543.8"/>
 <circle cx="412.9" cy="362.1"/>
 <circle cx="471.2" cy="329.3"/>
</svg>
