<?xml version="1.0" encoding="UTF-8" standalone="no"?>
<svg
   xmlns:dc="http://purl.org/dc/elements/1.1/"
   xmlns:cc="http://creativecommons.org/ns#"
   xmlns:rdf="http://www.w3.org/1999/02/22-rdf-syntax-ns#"
   xmlns:svg="http://www.w3.org/2000/svg"
   xmlns="http://www.w3.org/2000/svg"
   xmlns:sodipodi="http://sodipodi.sourceforge.net/DTD/sodipodi-0.dtd"
   xmlns:inkscape="http://www.inkscape.org/namespaces/inkscape"
   inkscape:version="1.0 (4035a4fb49, 2020-05-01)"
   sodipodi:docname="Bandera_de_El_Chalten.svg"
   viewBox="0 0 500.00001 326.33951"
   height="326.33951"
   width="500"
   id="svg10"
   version="1.1">
  <metadata
     id="metadata16">
    <rdf:RDF>
      <cc:Work
         rdf:about="">
        <dc:format>image/svg+xml</dc:format>
        <dc:type
           rdf:resource="http://purl.org/dc/dcmitype/StillImage" />
        <dc:title></dc:title>
      </cc:Work>
    </rdf:RDF>
  </metadata>
  <defs
     id="defs14" />
  <sodipodi:namedview
     inkscape:current-layer="g22"
     inkscape:window-maximized="1"
     inkscape:window-y="-8"
     inkscape:window-x="-8"
     inkscape:cy="213.68921"
     inkscape:cx="-92.831342"
     inkscape:zoom="0.87226797"
     showgrid="false"
     id="namedview12"
     inkscape:window-height="705"
     inkscape:window-width="1366"
     inkscape:pageshadow="2"
     inkscape:pageopacity="0"
     guidetolerance="10"
     gridtolerance="10"
     objecttolerance="10"
     borderopacity="1"
     bordercolor="#666666"
     pagecolor="#ffffff" />
  <g
     transform="translate(-158.21824,20.062642)"
     id="g18"
     inkscape:label="Image"
     inkscape:groupmode="layer">
    <g
       transform="translate(157.06183,-20.062642)"
       id="g22">
      <g
         id="g943">
        <path
           style="fill:#faf8f8;stroke-width:3.28087"
           d="m 501.15641,0 v 321.64567 h -500 V 0 Z"
           id="path30"
           sodipodi:nodetypes="ccccc" />
        <path
           style="fill:#9dbce2;stroke-width:0.696191"
           d="m 1.15641,0 h 500 v 92.462862 h -500 z"
           id="path26"
           sodipodi:nodetypes="ccccc" />
        <path
           sodipodi:nodetypes="ccccc"
           id="path26-4"
           d="m 1.15641,233.87666 h 500 v 92.46285 h -500 z"
           style="fill:#9dbce2;stroke-width:0.696191" />
        <path
           style="fill:#f8aaaf;stroke-width:0.696191"
           d="m 1.15641,217.55968 v -24.62125 c 0,-1.54689 6.4953922,-4.52399 7.4594043,-6.38819 0.5434641,-1.05094 2.5473357,-3.05537 4.4530477,-4.4543 1.905711,-1.39891 3.648055,-3.12046 3.871875,-3.82565 0.223819,-0.7052 1.72841,-2.1396 3.343536,-3.18758 1.615126,-1.04795 3.750796,-2.66268 4.745935,-3.58824 l 1.809342,-1.68285 2.038458,1.94402 c 1.121152,1.06919 2.664215,2.7579 3.429032,3.75269 0.764816,0.99477 2.47945,2.17928 3.810301,2.63225 3.243042,1.10379 4.293399,1.98945 6.483165,5.46662 2.364622,3.75483 3.788788,4.08949 12.947245,3.0423 4.664828,-0.53338 8.120098,-0.60974 9.444572,-0.20876 1.148715,0.34777 2.625058,0.44288 3.280761,0.21133 2.07347,-0.73219 9.160909,-8.14489 11.500528,-12.02831 2.149169,-3.56729 5.060152,-12.95039 5.060152,-16.31059 0,-4.02498 2.910552,-1.41453 5.123806,4.59551 0.634543,1.72306 1.551232,5.14181 2.037097,7.59718 0.682351,3.44836 1.310175,4.78297 2.758754,5.8645 2.759283,2.0601 5.215536,0.79503 5.822169,-2.99867 0.45297,-2.83272 1.66295,-3.91873 1.66295,-1.49259 0,1.45509 2.15607,3.10041 4.97039,3.79292 1.18914,0.29261 1.99376,1.07465 2.28029,2.21626 0.24351,0.97025 1.56777,3.00934 2.94277,4.5313 3.79862,4.20462 8.12409,3.64851 9.61256,-1.23589 0.61877,-2.0305 1.32659,-1.97465 4.41173,0.34809 4.65237,3.50271 10.97853,11.46751 12.96252,16.3201 2.76225,6.75622 2.46889,6.50229 7.25297,6.27806 3.89116,-0.18236 4.56621,2.3e-4 6.91677,1.87077 5.41687,4.31066 8.02945,3.30273 10.4684,-4.03873 0.95681,-2.88002 1.91306,-4.31488 3.66788,-5.5037 1.30551,-0.88442 2.94788,-2.51498 3.64971,-3.62345 1.37536,-2.17223 1.6173,-2.28286 7.57252,-3.46264 2.92927,-0.58032 5.15187,-1.67735 8.56018,-4.2251 4.25739,-3.18246 4.90224,-3.44145 8.57486,-3.44386 2.73982,-0.002 4.67811,-0.43356 6.25072,-1.39239 1.74514,-1.064 3.5081,-1.38977 7.52099,-1.38977 4.44382,0 5.63135,-0.26488 7.80289,-1.74048 3.48378,-2.36728 6.28999,-2.24405 9.62645,0.42279 3.26276,2.6079 5.59013,3.57918 7.28638,3.0408 0.69476,-0.22049 2.67063,-2.9829 4.39085,-6.13869 2.56706,-4.70935 3.77611,-6.15796 6.74546,-8.08205 2.74877,-1.78113 3.88561,-2.17533 4.73269,-1.641 0.61318,0.38678 2.78468,3.49124 4.82556,6.89878 4.30189,7.18268 5.76526,8.89568 8.60387,10.07147 1.78107,0.73773 2.30488,0.67381 3.81964,-0.46617 0.96551,-0.72663 2.60235,-2.8655 3.63744,-4.75303 1.03507,-1.88752 2.18319,-3.53222 2.55137,-3.65489 0.36817,-0.12267 1.63217,1.73496 2.80888,4.12806 2.52307,5.13122 4.7163,6.40906 7.80925,4.54991 1.44022,-0.8657 2.02544,-1.9292 2.47371,-4.49545 0.93791,-5.36923 2.38035,-8.80332 6.36068,-15.14323 2.05048,-3.26606 5.06269,-8.44293 6.69379,-11.50419 3.44522,-6.46597 6.23563,-9.78312 8.22966,-9.78312 1.12196,0 1.64805,0.82264 2.55996,4.0031 1.43816,5.01585 1.87207,5.543 5.41347,6.57671 1.58192,0.46175 3.03285,1.01322 3.22431,1.2255 1.23614,1.37055 5.67074,4.20594 7.16461,4.58089 3.44923,0.86569 4.4177,-0.12077 8.89465,-9.05995 2.37498,-4.74221 5.61493,-10.09586 7.19985,-11.897 2.6568,-3.01925 3.22085,-3.32119 7.22797,-3.8692 5.77893,-0.79031 9.50115,-2.8001 12.15256,-6.56169 2.41679,-3.42874 4.62468,-4.00181 7.15767,-1.85784 2.48815,2.106 6.48617,7.82098 6.9506,9.93554 0.53857,2.45206 2.72111,4.13917 5.35473,4.13917 1.43215,0 2.00214,0.39826 2.24187,1.56643 2.10381,10.25104 4.39347,16.18642 10.67551,27.67358 4.74922,8.68431 5.90092,9.23671 11.51068,5.52097 l 3.32204,-2.20043 4.79218,1.54088 c 5.29345,1.70208 7.85307,1.51925 11.73381,-0.83812 1.26399,-0.76782 2.76403,-2.10702 3.33339,-2.976 0.80694,-1.23152 1.91226,-1.66935 5.01185,-1.98528 2.18712,-0.22292 4.91645,-0.5949 6.06516,-0.82661 3.05404,-0.61603 4.96029,1.48956 5.96308,6.58669 1.0446,5.30956 3.03457,7.35278 7.00688,7.19437 1.89452,-0.0756 3.65748,-0.7525 5.36834,-2.06138 2.28918,-1.75131 3.2,-1.97333 8.98433,-2.19004 l 6.4369,-0.24115 4.70215,4.76638 c 2.58619,2.62152 5.95531,5.88809 7.48692,7.25904 1.53163,1.37097 3.57961,3.53634 4.5511,4.81197 1.47215,1.933 2.07198,2.24259 3.60135,1.85875 1.00925,-0.25332 2.79902,-1.27172 3.97725,-2.26313 l 2.83887,-1.80256 v 28.31951 z m 153.81032,-16.45956 c -2.72206,-2.22198 -4.43886,-2.62529 -7.60248,-1.78594 -1.55551,0.4127 -1.94437,0.23369 -2.32973,-1.07244 -2.41844,-8.19697 -16.00661,-22.86048 -22.75311,-24.55375 -2.00106,-0.50223 -4.04376,1.45235 -4.34021,4.153 -0.11,1.00203 -0.40182,2.02371 -0.64851,2.27039 -0.59509,0.59509 -2.32616,-1.79145 -2.8833,-3.97508 -0.6138,-2.40568 -2.19117,-3.99226 -4.83725,-4.86553 -1.23458,-0.40746 -2.63103,-1.46271 -3.10323,-2.345 -0.97879,-1.82889 -4.19806,-3.92853 -6.02345,-3.92853 -0.676574,0 -1.796531,0.51258 -2.488781,1.13906 -1.026923,0.92936 -1.31225,0.9614 -1.549853,0.17406 -1.824897,-6.04715 -3.851349,-10.27374 -6.017542,-12.55088 -2.948055,-3.09906 -4.425762,-3.30832 -7.715186,-1.09264 -1.859951,1.25283 -2.484059,2.25726 -2.919895,4.69929 -1.448503,8.11607 -2.028102,10.32648 -3.591294,13.69608 -0.92576,1.99556 -3.290255,5.1611 -5.254439,7.03453 l -3.571231,3.40624 -9.861973,0.48814 c -7.404805,0.36651 -9.931189,0.28049 -10.139772,-0.34526 -0.616213,-1.84864 -5.234332,-6.20979 -7.986462,-7.54208 -1.610712,-0.77972 -4.332048,-2.87017 -6.047412,-4.64542 -5.192502,-5.37379 -9.085506,-6.18345 -11.153368,-2.3196 -0.416036,0.77736 -2.454992,2.49996 -4.531012,3.82796 -2.07602,1.32802 -4.218402,3.26941 -4.760849,4.31422 -0.542447,1.04482 -2.457437,2.99615 -4.2555351,4.33632 -1.7980978,1.34016 -3.6878485,3.24271 -4.1994459,4.22786 -0.5115976,0.98514 -2.6453951,2.19832 -3.245,2.69596 v -77.76124 h 500 v 73.97028 l -3.70314,2.53336 -2.9697,2.53338 -6.64689,-6.36243 c -3.65579,-3.49933 -7.40203,-7.3632 -8.325,-8.58639 -1.55286,-2.05796 -2.07521,-2.2595 -6.99813,-2.69988 -7.88763,-0.70564 -14.01778,0.12028 -16.25045,2.18944 -2.47413,2.29294 -4.39999,2.2051 -4.91981,-0.2244 -2.04767,-9.57001 -6.4985,-13.27163 -13.74256,-11.42921 -1.61205,0.41 -4.45522,0.68218 -6.31813,0.60484 -2.8612,-0.11879 -3.56383,0.11453 -4.52525,1.50259 -2.75617,3.9794 -4.1563,4.97059 -7.02132,4.97059 -1.54751,0 -4.69582,-0.65137 -6.99626,-1.44748 l -4.18264,-1.44749 -2.3557,1.4559 c -1.29562,0.80075 -2.76109,1.94438 -3.25659,2.54142 -0.78927,0.95103 -1.10552,0.75591 -2.55245,-1.57485 -5.36378,-8.64005 -11.32318,-23.48003 -11.32318,-28.19673 0,-2.99997 -1.98603,-5.23118 -5.19163,-5.83256 -2.00778,-0.37665 -2.6742,-0.99503 -3.97361,-3.68705 -1.78974,-3.7079 -6.95062,-9.50606 -9.74948,-10.9534 -2.30966,-1.19438 -5.957,-1.2347 -8.01345,-0.0886 -0.83445,0.46506 -2.46936,2.16076 -3.63315,3.76819 -2.65132,3.66208 -3.84029,4.29332 -9.1274,4.84593 -7.14989,0.74731 -11.42466,5.0626 -18.02449,18.19533 -1.59603,3.1759 -3.36051,5.95033 -3.92106,6.16543 -0.5755,0.22085 -2.10555,-0.56276 -3.51475,-1.80006 -1.37257,-1.20513 -3.40275,-2.37257 -4.5115,-2.59433 -2.4079,-0.48158 -2.93681,-1.10706 -4.02569,-4.76061 -1.24883,-4.19031 -3.72083,-6.84182 -6.30997,-6.7682 -5.04906,0.14354 -10.35262,5.34595 -14.1106,13.8415 -0.78505,1.77473 -2.91764,5.4519 -4.7391,8.1715 -4.06952,6.07618 -6.5781,10.97952 -7.64586,14.94491 l -0.81184,3.01494 -2.21754,-3.70715 c -2.67876,-4.47823 -5.0186,-5.61642 -7.79977,-3.79415 -1.02358,0.67069 -2.37933,2.17524 -3.01277,3.34345 -0.63341,1.16821 -1.81358,2.9243 -2.6226,3.90243 l -1.47093,1.77844 -2.43069,-3.78813 c -1.33686,-2.08345 -3.47461,-5.47297 -4.75052,-7.53226 -2.50716,-4.04649 -5.53673,-6.34388 -8.37117,-6.348 -1.00287,-0.001 -3.8674,1.44704 -6.53449,3.30429 -3.89821,2.71458 -5.17141,4.11018 -7.10807,7.79144 -1.29759,2.4665 -2.47733,4.60261 -2.62164,4.74691 -0.14431,0.14431 -1.72704,-0.85562 -3.5172,-2.22209 -1.79015,-1.36645 -3.99887,-2.67121 -4.90827,-2.89945 -1.93995,-0.4869 -8.20418,1.43705 -9.41016,2.89016 -0.59082,0.7119 -2.34514,1.00614 -5.99893,1.00614 -3.79004,0 -5.89007,0.37044 -7.89323,1.39237 -1.64661,0.84005 -4.10318,1.39238 -6.19265,1.39238 -4.24462,0 -6.61555,0.85004 -8.629,3.09367 -2.0476,2.28169 -7.87996,5.26063 -10.29959,5.26063 -3.36143,0 -5.6121,1.31284 -10.31766,6.01839 -3.5076,3.50759 -4.81815,5.39123 -5.63381,8.09735 -0.58461,1.93955 -1.37259,3.61848 -1.75107,3.73095 -0.37848,0.11247 -1.8667,-0.75753 -3.30714,-1.93335 z"
           id="path28"
           sodipodi:nodetypes="csssssscssssssssssssssssssssssssssscssssssssssssssssssssssssssssssssscssssssssscssssscccssssssssssssssssscsssssssssccccccsssssssssscssssssssssssssssssscsssscsscssssssssssssssss" />
        <path
           style="fill:#11a6dc;stroke-width:0.706463"
           d="m 127.36324,324.72033 c 0.67998,-0.2041 5.84599,-1.97339 11.48003,-3.93176 9.09874,-3.1627 31.41124,-8.2826 45.21361,-10.37484 5.70491,-0.86479 5.24905,-1.4731 -2.23319,-2.97997 -4.01725,-0.80906 -12.54955,-2.55966 -18.9607,-3.89025 -15.97645,-3.31578 -19.78514,-3.85307 -38.85544,-5.48131 -15.14859,-1.29341 -26.660794,-2.48898 -40.974851,-4.25532 -12.035847,-1.4852 -18.969659,-4.34115 -17.25915,-7.10879 0.223835,-0.36218 2.268113,-1.59801 4.542831,-2.74628 4.607478,-2.32585 5.335999,-3.0547 4.054387,-4.05623 -3.617538,-2.82694 -27.690474,-5.77884 -63.397238,-7.77397 -9.1665507,-0.51218 -9.817119,-0.56357 -9.817119,-0.56357 v -3.14841 c 1.6757799,0.27541 40.363324,1.52261 55.383949,2.8609 16.734299,1.49099 36.63717,5.71184 43.668901,9.26101 5.11419,2.58132 5.23433,4.2541 0.48501,6.75373 -1.748494,0.92025 -3.271554,1.9368 -3.384587,2.259 -0.337261,0.96139 2.669337,1.45163 9.036287,1.47345 16.44408,0.0562 43.48693,2.5757 92.54662,8.62178 4.63799,0.57159 15.75746,0.91418 29.67143,0.91418 21.62949,0 22.51112,-0.0548 31.43757,-1.95568 20.97236,-4.46591 27.19881,-6.62382 27.19881,-9.42637 0,-2.80377 -7.56125,-7.62522 -18.76807,-11.96751 -3.62349,-1.40399 -6.98705,-3.03336 -7.47462,-3.62083 -1.34291,-1.61809 1.50822,-3.41209 8.2279,-5.17725 3.10843,-0.81652 9.62556,-2.73263 14.48248,-4.25803 4.85693,-1.5254 13.75836,-3.74873 19.78095,-4.94075 6.0226,-1.19202 14.60613,-2.98083 19.07449,-3.97513 6.89025,-1.53321 9.1438,-1.74066 14.83572,-1.36565 5.33667,0.35158 8.01378,0.15298 13.06956,-0.9696 3.6759,-0.8162 9.04042,-1.42176 12.71633,-1.43545 3.49699,-0.0131 8.10666,-0.49982 10.2437,-1.08176 9.71144,-2.64459 14.36886,-3.27769 20.79669,-2.82694 4.71509,0.33065 7.23986,0.17765 9.58121,-0.58064 2.9055,-0.94097 2.99669,-1.03645 1.05969,-1.10941 -1.16565,-0.0439 -8.3186,-0.53837 -15.89541,-1.09877 -36.66184,-2.7116 -38.95197,-3.02671 -39.4134,-5.42301 -0.15679,-0.81418 0.68866,-1.49794 2.8162,-2.27767 4.43906,-1.62685 14.32495,-3.18657 18.83707,-3.18657 h 3.98412 l -3.75632,0.63947 c -4.95512,0.84357 -13.86074,2.83315 -15.05879,3.57359 -2.78406,1.72064 4.28952,3.11978 20.9345,4.14082 6.60542,0.40519 18.76329,1.0726 27.01749,1.48314 15.65329,0.77853 19.91123,1.50784 18.52873,3.17365 -1.32235,1.59335 -11.34315,4.137 -26.16613,6.64194 -4.49456,0.75953 -10.69377,2.02627 -13.77602,2.81499 -3.57456,0.9147 -7.65083,1.40584 -11.25577,1.35618 -3.10845,-0.0429 -10.42033,0.48085 -16.24865,1.16364 -9.73366,1.14032 -11.02856,1.15202 -15.89541,0.14364 l -5.29846,-1.09782 -18.0148,4.57227 c -19.00444,4.82345 -28.68519,7.72905 -29.35337,8.81017 -1.02148,1.6528 9.64198,3.29377 36.41799,5.60424 26.80684,2.3131 35.04481,3.95709 34.48168,6.8812 -0.44803,2.32635 -9.98447,6.24419 -21.76536,8.94178 -9.49352,2.17383 -16.32849,3.97828 -33.55697,8.85918 -18.28124,5.17915 -24.27045,6.67563 -39.56191,9.88503 -25.413,5.33373 -36.84445,8.21034 -50.429,12.69001 l -6.62834,2.18573 h -39.82158 -41.22457 c 0.30227,-0.82944 2.00315,-1.26238 2.63929,-1.61918 z"
           id="path24"
           sodipodi:nodetypes="cssssssssssccsssscssssssssssssssssssssscsssssssssscsssssssscscc" />
        <g
           id="g94"
           style="fill:#f5e21c;fill-opacity:1"
           transform="matrix(1.0877984,0,0,1.0877984,-0.10153093,0)">
          <path
             id="path61"
             d="m 136.19434,67.308756 c 0.0198,-0.02474 0.94911,-1.04297 2.06519,-2.262695 l 2.02924,-2.217684 -0.65912,-2.982241 c -0.58276,-2.636729 -0.65302,-2.985766 -0.60644,-3.012658 0.0466,-0.0269 0.31359,0.208429 2.30592,2.032326 l 2.25323,2.062747 2.98273,-0.659772 c 2.63736,-0.58338 2.98625,-0.653674 3.01315,-0.60709 0.0269,0.04658 -0.20849,0.313734 -2.03188,2.306095 l -2.0623,2.253412 0.65888,2.981888 c 0.51789,2.343838 0.6501,2.989478 0.61792,3.017363 -0.023,0.01986 -0.0618,0.01909 -0.0883,-0.0017 -0.026,-0.02048 -1.04519,-0.950233 -2.26479,-2.066121 l -2.21744,-2.028882 -2.9348,0.648342 c -1.61415,0.356589 -2.96056,0.652032 -2.99202,0.656539 -0.0314,0.0045 -0.068,-0.01047 -0.0812,-0.03329 -0.0131,-0.02282 -0.008,-0.06175 0.012,-0.08651 z"
             style="fill:#f5e21c;fill-opacity:1;stroke-width:0.0306601" />
          <path
             style="fill:#f5e21c;fill-opacity:1;stroke-width:0.0306601"
             d="m 103.62494,56.971955 c 0.0198,-0.02474 0.94911,-1.04297 2.06519,-2.262695 l 2.02924,-2.217684 -0.65912,-2.982241 c -0.58276,-2.636729 -0.65302,-2.985766 -0.60644,-3.012658 0.0466,-0.0269 0.31359,0.208429 2.30592,2.032326 l 2.25323,2.062747 2.98273,-0.659772 c 2.63736,-0.58338 2.98625,-0.653674 3.01315,-0.60709 0.0269,0.04658 -0.20849,0.313734 -2.03188,2.306095 l -2.0623,2.253412 0.65888,2.981888 c 0.51789,2.343838 0.6501,2.989478 0.61792,3.017363 -0.023,0.01986 -0.0618,0.01909 -0.0883,-0.0017 -0.026,-0.02048 -1.04519,-0.950233 -2.26479,-2.066121 l -2.21744,-2.028882 -2.9348,0.648342 c -1.61415,0.356589 -2.96056,0.652032 -2.99202,0.656539 -0.0314,0.0045 -0.068,-0.01047 -0.0812,-0.03329 -0.0131,-0.02282 -0.008,-0.06175 0.012,-0.08651 z"
             id="path61-8" />
          <path
             style="fill:#f5e21c;fill-opacity:1;stroke-width:0.0306601"
             d="m 156.76558,27.420805 c 0.0198,-0.02474 0.94911,-1.042969 2.06519,-2.262694 l 2.02924,-2.217684 -0.65912,-2.982241 c -0.58276,-2.636729 -0.65302,-2.985766 -0.60644,-3.012658 0.0466,-0.0269 0.31359,0.208429 2.30592,2.032326 l 2.25323,2.062747 2.98273,-0.659772 c 2.63736,-0.58338 2.98625,-0.653674 3.01315,-0.60709 0.0269,0.04658 -0.20849,0.313734 -2.03188,2.306095 l -2.0623,2.253412 0.65888,2.981887 c 0.51789,2.343838 0.6501,2.989478 0.61792,3.017363 -0.023,0.01986 -0.0618,0.01909 -0.0883,-0.0017 -0.026,-0.02048 -1.04519,-0.950233 -2.26479,-2.066121 l -2.21744,-2.028881 -2.9348,0.648342 c -1.61415,0.356588 -2.96056,0.652031 -2.99202,0.656538 -0.0314,0.0045 -0.068,-0.01047 -0.0812,-0.03329 -0.0131,-0.02282 -0.008,-0.06175 0.012,-0.08651 z"
             id="path61-4" />
          <path
             style="fill:#f5e21c;fill-opacity:1;stroke-width:0.0306601"
             d="m 113.05768,31.719943 c 0.0198,-0.02474 0.94911,-1.04297 2.06519,-2.262695 l 2.02924,-2.217684 -0.65912,-2.982241 c -0.58276,-2.636729 -0.65302,-2.985766 -0.60644,-3.012658 0.0466,-0.0269 0.31359,0.208429 2.30592,2.032326 l 2.25323,2.062747 2.98273,-0.659772 c 2.63736,-0.58338 2.98625,-0.653674 3.01315,-0.60709 0.0269,0.04658 -0.20849,0.313734 -2.03188,2.306095 l -2.0623,2.253412 0.65888,2.981888 c 0.51789,2.343838 0.6501,2.989478 0.61792,3.017363 -0.023,0.01986 -0.0618,0.01909 -0.0883,-0.0017 -0.026,-0.02048 -1.04519,-0.950233 -2.26479,-2.066121 l -2.21744,-2.028882 -2.9348,0.648342 c -1.61415,0.356589 -2.96056,0.652032 -2.99202,0.656539 -0.0314,0.0045 -0.068,-0.01047 -0.0812,-0.03329 -0.0131,-0.02282 -0.008,-0.06175 0.012,-0.08651 z"
             id="path61-7" />
        </g>
      </g>
    </g>
  </g>
</svg>
