<?xml version="1.0" encoding="UTF-8"?>
<!DOCTYPE svg PUBLIC "-//W3C//DTD SVG 1.1//EN" "http://www.w3.org/Graphics/SVG/1.1/DTD/svg11.dtd">
<!-- Creator: CorelDRAW 2019 (64-Bit) -->
<svg xmlns="http://www.w3.org/2000/svg" xml:space="preserve" width="150cm" height="90cm" version="1.1" style="shape-rendering:geometricPrecision; text-rendering:geometricPrecision; image-rendering:optimizeQuality; fill-rule:evenodd; clip-rule:evenodd"
viewBox="0 0 149987.62 89992.57"
 xmlns:xlink="http://www.w3.org/1999/xlink">
 <defs>
  <style type="text/css">
   <![CDATA[
    .fil0 {fill:#FEFEFE}
    .fil2 {fill:#7AABDE;fill-rule:nonzero}
    .fil1 {fill:#991426;fill-rule:nonzero}
    .fil3 {fill:#8F734A;fill-rule:nonzero}
   ]]>
  </style>
 </defs>
 <g id="Capa_x0020_1">
  <metadata id="CorelCorpID_0Corel-Layer"/>
  <g id="_2589870546016">
   <polygon class="fil0" points="-0,0 149987.62,0 149987.62,89992.56 -0,89992.56 "/>
   <polygon class="fil1" points="0.01,0.31 49877.71,0.31 49877.71,89992.57 0.01,89992.57 "/>
   <polygon class="fil2" points="100048.8,0 149987.61,0 149987.61,89992.57 100048.8,89992.57 "/>
   <g>
    <path class="fil3" d="M58768.4 57090.83c361.91,-211.21 937.11,-639.42 1311.62,-1474.22l354.11 -263.48c699.47,130.38 1028.38,267.98 1646.14,205.84 532.4,-65.08 1321.33,-820.6 2059.43,-2169.27 477.44,-571.53 612.88,-865.91 1927.12,-1032.34 23.59,13.94 47.94,29.2 73.05,45.79l-6501.4 8280.72 7907.52 -6532.5c-446.81,660.17 -1220.82,1363.74 -1313.01,2106.22l-310.01 2271.14 -1389.94 998.69c-256.4,157.39 -507.28,324.67 -487.69,493.32 28.59,685.17 -38.52,1773 -189.68,2311.08 -182.3,518.22 -507.23,996.07 -938.6,1361.12 626.4,-325.89 1277.45,-745.55 1610.92,-1394.19 255.41,-331.77 628.45,-1008.32 668.02,-1933.4l155.47 -271.75c689.31,-132.1 1117.47,-171.51 1666.43,-462.55 468.7,-261 914.23,-1258.19 1089.49,-2785.63 233.37,-730.47 268.55,-1038.13 1528.66,-1727.66l-2761.94 10143.12 4775.09 -9070.28c-159.53,779.34 -598.12,1725.68 -397.75,2443.07l594.96 2195.99 -902.43 1476.33c-175.93,244.17 -342.88,495.27 -259.68,643.27 290.68,621.08 648.24,1650.79 716.28,2205.5 31.59,548.43 -83.92,1114.64 -341.12,1617.9 372.71,-538.29 883.07,-1079.61 948.64,-1907.96 107.65,-404.4 191.02,-1172.35 -121.5,-2034.76l30.67 -317.01c585.29,-388.03 965.11,-589.34 1359.36,-1069.5 331.58,-421.45 358.33,-1513.49 -77.73,-2981.71 -74.74,-752.68 -377.47,-693.26 507.14,-1802.63 3.63,-0.74 7.21,-1.52 10.89,-2.23l1334.34 10483.74 1205.08 -10180.58c131.9,784.11 59.47,1824.81 505,2424.42l1343.73 1831.81 -313.96 1706.55c-76.75,290.95 -142.53,585.39 -11.74,693.57 493.91,475.61 1197.03,1308.39 1459.46,1802.1 226.12,500.6 321.37,1070.46 261.7,1632.44 154.86,-636.19 437.32,-1324.16 201.42,-2121 -44.46,-416.26 -242.16,-1162.95 -852.71,-1859.21l-72.73 -307.53c404.49,-568.21 686.89,-892.52 882.91,-1482.06 158.33,-512.28 -208.22,-1541.43 -1136.9,-2766.63 -335.88,-689.41 -552.12,-927.47 -117.47,-2296.6l5039.49 9232.91 -2813.11 -9855.97c424.26,675.07 758.79,1659.82 1399.64,2040.36l1946.28 1171.99 368.49 1695.69c41.38,298.11 94.16,594.89 256.63,644.49 639.13,248.29 1609.01,745.44 2041.53,1099.78 401.76,374.6 709.42,863.76 870.99,1405.26 -102.46,-646.69 -107.29,-1390.56 -632.2,-2034.74 -201.52,-366.76 -671.7,-979.59 -1503.72,-1386.49l-188.51 -287.24c157,-648.62 292.37,-1056.68 245.99,-1676.31 -51.54,-533.76 -786.79,-1341.89 -2115.93,-2114.21 -559.45,-492.29 -816.05,-661.2 -948.43,-1983.69l8125.04 6670.21 -6321.82 -8067.41c646.46,463.95 1328.22,1250.9 2058.74,1363.14l2287.96 355.93 944.23 1425.77c150.7,260.34 311.49,515.43 480.64,500.14 685.61,-11.07 1771.33,83.73 2305.51,248.77 513.3,195.62 982.75,532.54 1336.7,973.07 -338.63,-560.25 -623.76,-1247.46 -1352.67,-1646.05 -325.05,-263.79 -991.66,-653.87 -1906.37,-721.74l-292.26 -190.25c-99.21,-660.08 -127.57,-1089.18 -404.35,-1645.36 -248.85,-475.25 -1234.38,-946.2 -2756.83,-1160.37 -724.36,-252.01 -1030.9,-295.08 -1687.91,-1572.4l10068.96 3020.65 -8945.19 -5005.62c774.98,178.09 1708.39,642.38 2415.01,466.9l2259.52 -557.01 1422.71 953.01c237.8,180.72 484.68,353.95 634.69,274.6 628.44,-274.6 1666.77,-605.79 2223.2,-659.61 548.99,-17.46 1111.92,112.37 1608.51,382.34 -528.57,-386.47 -1056.46,-910.37 -1882.89,-997.1 -401.6,-117.87 -1167.23,-220.94 -2037.26,69.4l-342.93 -62.99c-346.2,-570.75 -537.81,-955.5 -1007.65,-1362.02 -412.79,-342.29 -1503.89,-396.97 -2991.09,-7.47 -765.38,46.83 -1440.69,-411.16 -2141.71,-1111.39l10570.84 -1448.93 -10202.06 -976.54c782.38,-148.81 1821.42,-100.91 2396.58,-545.77l1807.57 -1398.65 1719.83 276.64c292.54,70.16 588.37,129.33 693.72,-3.78 464.28,-504.64 1281.15,-1226.14 1768.78,-1499.56 495.4,-237.33 1062.98,-345.39 1626.3,-298.39 -639.57,-140.59 -1333.93,-407.35 -2125.11,-153.72 -415.2,53.93 -1157.35,268.17 -1836.53,884.49l-339.33 80.59c-546.76,-382.93 -877.18,-657.9 -1471.03,-840.58 -515.79,-146.84 -1536.34,242.86 -2740.42,1198.69 -681.67,351.29 -924.11,543.73 -2302.62,139.99l9126.78 -5216.45 -9785.5 3031.71c662.28,-438 1637.93,-794.56 2012.82,-1450.18l1118.84 -1965.18 1694.74 -408.69c289.2,-45.78 584.81,-105.28 630.61,-268.69 233.94,-644.68 709.34,-1625.39 1053.69,-2065.75 365.6,-410.01 847.49,-728.55 1385.38,-902.39 -644.24,116.84 -1387.66,138.43 -2019.91,677.67 -362.27,209.78 -964.43,693.72 -1353.35,1524.28l-281.94 205.28c-652.15,-142.45 -1063.1,-268.78 -1681.47,-208.33 -532.57,63.49 -1323.83,816.52 -2066.31,2162.85 -493.32,587.04 -534.23,833.65 -1961.85,992.73l6486.04 -8272.85 -7928.15 6507.86c449.03,-658.67 1225.26,-1359.96 1319.72,-2083.84l301.22 -2271.23 1409.95 -1012.65c256.07,-155.45 507.5,-322.01 488.38,-490.72 -26.39,-685.27 43.99,-1772.82 196.95,-2310.53 184.16,-517.55 510.37,-994.44 942.91,-1358.21 -552.59,351.17 -1233.2,651.57 -1615.32,1389.39 -256.34,330.91 -631.5,1006.07 -678.72,1922.02l-183.77 296.4c-657.79,114.03 -1085.89,152 -1635.85,441.11 -469.42,259.6 -918.22,1255.45 -1098.17,2782.31 -235.56,729.77 -244.94,1051.19 -1507.17,1736.95l2766.94 -10148.37 -4814.32 9108.51c151.25,-789.54 619.21,-1759.37 416.12,-2495.08l-585.72 -2190.53 909.64 -1493c181.66,-255.6 339.57,-482.17 251.46,-642.06 -291.87,-635.43 -638.55,-1648.1 -703.98,-2196.18 -29.76,-548.41 87.47,-1114.22 346.17,-1616.65 -374.43,537.12 -886.46,1076.67 -957.13,1914.68 -108.93,418.28 -187.02,1175.51 124.57,2029.2l-38.8 313.12c-586.23,386.03 -966.6,586.23 -1366.18,1069.81 -336.68,425.24 -359.33,1507.75 63.32,2985.89 64,764.16 273.18,747.02 -627.1,1866.54l-1270.05 -10478.63 -1222.41 10155.98c-154.52,-746.25 -68.12,-1863.69 -571.78,-2545.63l-1381.09 -1875.87 389.88 -1575.94c75.87,-304.21 140.7,-598.72 -1.56,-714.12 -506.54,-481.5 -1189.95,-1297.07 -1454.09,-1789.91 -227.63,-499.91 -324.59,-1069.43 -266.87,-1631.64 -350.21,1457.54 -401.24,2771.42 663.94,3978.31l52.41 371.22c-405.36,573.18 -662.78,830.45 -856.88,1420.65 -156.8,512.94 213.25,1540.76 1151.87,2769.79 344.57,694.91 519.41,927.64 89.14,2298.21l-5039.33 -9225.63 2846.66 9852.24c-426.9,-673.06 -730.79,-1647.1 -1374.7,-2026.7l-1983.85 -1180.26 -373.86 -1694.52c-42.24,-297.89 -95.96,-594.5 -258.59,-643.66 -639.91,-246.18 -1611.35,-740.51 -2045,-1093.35 -402.9,-373.37 -712.06,-861.48 -875.58,-1402.41 52.55,710.77 177.73,1470.97 643.47,2041.22 207.52,374.76 670.21,968.88 1503.33,1373.23l187.38 250.6c-152.97,685.19 -287.02,1093.54 -238.53,1712.97 53.04,533.84 790.79,1339.43 2122.5,2107.64 563.64,492.68 818.8,642.04 954.67,1980.64l-8146.07 -6644.52 6348.32 8048.63c-648.71,-462.65 -1332.9,-1247.88 -2070.94,-1356.44l-2245.72 -344.41 -985.12 -1428.51c-151.64,-259.92 -313.21,-514.41 -482.33,-498.56 -685.59,13.24 -1771.63,-78.28 -2306.31,-241.55 -513.86,-193.9 -984.37,-529.38 -1339.7,-968.86 340.46,559.26 627.64,1245.47 1365.68,1648.02 338.62,268.34 1000.1,645.5 1910.12,704.91l276.08 208.91c110.34,664.56 144.86,1086.5 416.92,1629.09 250.41,474.3 1237.44,942.31 2760.58,1151.71 725,249.73 1031.7,291.7 1692.93,1567.01l-10078.44 -2988.89 8960.72 4977.58c-776.64,-176.48 -1710.61,-637.11 -2416.43,-459.38l-2218.87 558.48 -1461.25 -939.68c-241.66,-183.21 -488.99,-355.67 -638.83,-275.86 -627.44,276.58 -1664.76,611.05 -2221.03,666.57 -548.93,19.24 -1112.35,-108.81 -1609.73,-377.29 529.79,384.65 1059.35,907.06 1886,991.14 402.05,116.73 1167.83,217.3 2048.01,-82.92l278.68 37.08c374.71,593.73 594.25,985.81 1065.31,1390.94 414.06,341.02 1505.16,392.2 2991.2,-2.02 765.15,-49.21 1432.47,324.61 2135.6,1022.41l-10556.73 1564.44 10207.99 944.07c-781.55,151.53 -1823.08,106.29 -2410.54,566.53l-1796.87 1390.44 -1714.13 -270.2c-292.87,-69.32 -588.7,-127.44 -693.66,5.92 -462.73,506.05 -1277.31,1230.22 -1764.14,1505.19 -494.59,238.83 -1061.84,348.56 -1625.16,303.43 639.91,138.43 1335.1,403.3 2125.5,147.06 414.98,-55.26 1156.34,-271.72 1837.2,-900.18l342.03 -55.85c557.15,378.14 886.96,643.51 1467.15,820.03 516.41,145.35 1535.62,-247.79 2736.79,-1207.32 680.42,-353.37 922.36,-546.46 2302.14,-147.23l-9110.34 5245.09 9784.16 -3066.66c-662.78,442.09 -1620.65,796.35 -1985.59,1448.08l-1137.26 1996.79 -1691.9 396.29c-296.86,48.91 -592.25,109.29 -637.63,272.86 -231.81,645.46 -704.15,1627.78 -1047.17,2069.28 -364.27,410.93 -845.27,731.02 -1333.29,901.98 693,-123.5 1338.07,-138.04 1968.6,-679.29zm26521.21 -12027.28c0,5860.25 -4623.83,10610.84 -10327.82,10610.84 -5703.94,0 -10327.77,-4750.6 -10327.77,-10610.84 0,-5860.07 4623.83,-10610.56 10327.77,-10610.56 5703.99,0 10327.82,4750.5 10327.82,10610.56z"/>
    <g>
     <path class="fil3" d="M58659.87 56904.9c169.6,-98.97 388.66,-248.27 607.34,-468.76 220.04,-221.87 441.69,-516.75 616.78,-907.03 15.61,-34.96 39.44,-63.71 68.15,-84.97l354.11 -263.48c51.01,-37.82 113.29,-49.68 170.97,-37.89 193.26,36.1 337.35,67.51 469.28,96.26 395.9,86.29 682.67,148.76 1107.76,106.72l-0.06 -0.48 0.49 -0.06c54.35,-6.68 114.23,-24.04 179,-51.85 3.38,-1.45 6.79,-2.83 10.21,-4.1 67.79,-29.96 140.2,-71.04 216.59,-123.12 444,-302.65 976.81,-939.98 1490.76,-1879.08 6.91,-12.69 14.95,-24.4 23.86,-35.09l-0.3 -0.25c24.09,-28.84 67.89,-82.34 110.06,-133.84 430.91,-526.27 663.06,-809.77 1955.04,-973.39 49.15,-6.22 96.52,4.69 136.1,28.1l0.2 -0.33c1.98,1.17 11.26,7.16 40.17,25.27l42.15 26.41c98.97,65.51 126.09,198.86 60.57,297.84 -3.25,4.91 -6.66,9.63 -10.24,14.19l0.14 0.11 -5268.81 6710.8 6368.68 -5261.26c91.53,-75.73 227.15,-62.92 302.88,28.61 64.78,78.29 64.8,188.8 6.16,266.55l-0.37 0.5 -1.06 1.38 -3.23 4.13c-135.01,197.68 -289.94,390.03 -447.59,585.75 -372.41,462.34 -761.08,944.87 -818.96,1411.12 -0.73,6.01 -1.72,11.92 -2.92,17.74l-307.93 2255.93c-8.61,64.09 -44.66,117.74 -94.72,150.74l-1382.72 993.5c-4.46,3.21 -8.98,6.2 -13.6,9.02l0.14 0.24c-120.14,73.74 -237.95,148.89 -316.21,218.88 -42.16,37.71 -70,63.72 -69.67,66.62 1.11,9.75 1.57,19.39 1.38,28.93 3.66,92.64 5.61,195.46 5.88,305.87 0.27,112.71 -1.31,229.1 -4.7,346.44 -17.86,617 -85.64,1308.86 -198.97,1712.29 -1.28,4.57 -2.7,9.04 -4.25,13.45l0.04 0.01 -0.06 0.17c-1.24,3.53 -2.55,6.98 -3.96,10.4 -26.48,74.38 -55.47,147.47 -86.79,218.96 -20.11,45.88 -41,90.87 -62.67,135.01 173.2,-166.72 322.3,-354.08 432.05,-567.56 7.26,-14.08 15.89,-27.03 25.59,-38.75 29.34,-38.45 62.33,-85.06 98.71,-140.58 37.06,-56.57 74.5,-118.16 110.93,-184.1 193.4,-350.15 382.5,-854.82 409.24,-1479.95 1.4,-35.77 11.5,-69.17 28.15,-98.22l-0.38 -0.22 155.47 -271.75c34.14,-59.67 92.53,-96.82 155.66,-106.1 73.62,-14 197.38,-36.36 315.31,-57.67 490.32,-88.62 849.06,-153.48 1277.11,-379.45l-0.05 -0.1 0.16 -0.09c3.36,-1.88 6.76,-3.65 10.17,-5.34 44.53,-26.2 90.24,-63.01 136.68,-110.05 54.18,-54.88 108.36,-122.93 161.93,-203.61 296.88,-447.17 549.87,-1238.58 672.02,-2303.32 2.29,-20.1 7.32,-39.26 14.61,-57.11 19.32,-60.65 3.6,-12.95 31.24,-100.79 221.21,-703.4 327.33,-1040.79 1593.88,-1733.83 104.08,-56.69 234.42,-18.26 291.11,85.82 27.54,50.57 32.65,107.31 18.67,158.82l0.68 0.19 -2247.31 8253.19 3862.5 -7336.83c55.3,-105.01 185.25,-145.32 290.27,-90.02 90.11,47.45 132.6,149.85 107.89,244.31 -47.37,228.21 -116.37,466.41 -186.61,708.9 -165.66,571.82 -338.78,1169.46 -212.17,1622.79l0.48 1.79 0.36 -0.1 594.96 2195.99c16.77,62.77 3.98,126.45 -29.84,176.32l-896.99 1467.44c-4.86,7.97 -10.13,15.49 -15.82,22.59 -78.54,109.26 -154.23,219.23 -200.26,315.75 -24.5,51.36 -40.4,86.06 -39.4,87.85 5.2,9.29 9.65,18.78 13.35,28.43 39.92,85.82 80.88,178.73 122.05,276.52 41.82,99.34 85.34,207.74 129.54,322.72 221.92,577.21 426.57,1242.26 477.43,1656.92 1.14,9.38 1.68,18.67 1.61,27.88 3.99,75.27 5.25,153.28 3.84,233.74 -0.81,46.38 -2.55,92.68 -5.28,138.93 92.84,-206.67 159.29,-431.02 179.11,-681.36 1.35,-17.19 4.73,-33.76 9.8,-49.48 13.17,-50.57 25.6,-105.33 36.41,-163.23 11.76,-63.05 22.47,-134.27 31.24,-213.71 43.88,-397.11 25.2,-934.63 -186.32,-1518.32 -12.14,-33.5 -15.39,-68.06 -11.03,-101.11l29.92 -309.28c6.35,-67.17 43.04,-124.21 95.21,-158.81l-0.14 -0.21c80.7,-53.5 181.48,-118.78 277.08,-180.71 419.88,-271.98 726.79,-470.81 1033.9,-844.37 33.05,-42.6 62.85,-96.84 89.04,-162.08 28.62,-71.26 52.24,-154.97 70.46,-250.41 100.6,-526.61 27.18,-1351.85 -276.36,-2373.87 -4.51,-15.33 -7.18,-30.78 -8.23,-46.09 -14.86,-145.54 -40.81,-265.08 -63.03,-367.59 -98.74,-455.21 -138.21,-637.15 616.26,-1583.3 35.17,-44.24 84.28,-70.92 136.08,-78.76l0.17 -0.03c116.16,-23.69 229.55,51.27 253.24,167.43 1.59,7.79 2.74,15.55 3.46,23.29l1112.5 8740.76 999.43 -8443.21c13.93,-118.02 120.92,-202.39 238.94,-188.46 101.06,11.93 177.42,92.08 188.53,188.98 39.1,236.06 60.09,483.37 81.43,735.16 50.16,591.65 102.58,1209.69 382.27,1586.1l0.69 0.95 0.15 -0.11 1343.73 1831.81c38.17,52.08 49.4,115.61 36.33,174.04l-312.43 1698.25c-0.99,5.41 -2.21,10.7 -3.58,15.93l0.22 0.06c-35.55,134.75 -68.5,269.53 -76.96,377.47 -4.43,56.56 -6.88,94.49 -5.45,95.67 5.26,4.36 10.23,8.9 14.98,13.63l0.16 -0.16 0.11 0.11c2.72,2.72 5.32,5.48 7.87,8.31 67.87,65.67 139.29,137.55 212.63,213.91 80.94,84.29 160.57,169.79 236.91,254.45 413.28,458.24 842.66,1005.75 1039.8,1376.64 3.95,7.43 7.38,14.98 10.38,22.63 31.33,70.04 60.96,143.4 88.79,219.75 15.99,43.87 30.94,87.7 44.92,131.5 12.56,-226.32 -5.85,-459.78 -77.23,-700.91 -3.7,-12.59 -6.21,-25.25 -7.56,-37.86l-0.02 0 -0.06 -0.56c-5.87,-54.9 -14.33,-114.53 -25.93,-177.33 -11.7,-63.36 -27.25,-133.46 -47.4,-209.87 -101.92,-386.31 -313.94,-881.61 -727.16,-1352.81 -24.05,-27.5 -39.85,-59.41 -47.56,-92.65l-0.4 0.09 -72.73 -307.53c-15.58,-66.89 1.87,-133.8 41.77,-183.53 46.88,-65.65 118.1,-163.44 185.54,-256.09 292.31,-401.5 507.23,-696.75 660.11,-1154.45l-0.24 -0.07 0.4 -1.34 -0.46 -0.15 0.06 -0.19c1.08,-3.42 2.23,-6.81 3.46,-10.14 14.09,-50.2 21.71,-108.09 22.76,-173.16 1.21,-75.15 -6.87,-162.01 -24.33,-259.82 -94.28,-528.19 -457.96,-1275.07 -1105.2,-2128.97 -8.52,-11.28 -15.75,-23.16 -21.73,-35.41l-0.14 0.07c-26.92,-55.27 -52.62,-106.68 -77.25,-156.03 -313.42,-627.51 -477.62,-956.25 -51.16,-2299.59 35.78,-112.91 156.32,-175.44 269.23,-139.66 54.99,17.42 97.99,54.93 123.55,101.87l0.13 -0.07 4113.97 7537.26 -2283.02 -7998.78c-32.52,-114.3 33.78,-233.35 148.08,-265.87 92.22,-26.24 187.51,11.85 237.98,87.58l0.12 -0.08 0.08 0.12c4.29,6.44 8.17,13.02 11.68,19.72 126.38,202.83 239.04,418.88 353.58,638.58 274.89,527.27 561.53,1077.06 964.47,1316.32l1.61 0.97 0.08 -0.13 1946.28 1171.99c52.89,31.88 87.1,82.89 99.2,138.84l0.07 -0.02 368.49 1695.69c1.93,8.95 3.25,17.88 4.03,26.77 18.87,134.96 40.21,267.94 72.98,367.64 17.71,53.88 30,89.76 31.54,90.23 102.9,30.68 209.63,83.45 308.38,126.32 111.4,48.37 217.85,96.48 316.83,143.2 558.4,263.56 1165.82,603.09 1490.36,868.96 6.99,5.72 13.5,11.78 19.58,18.15 57.23,53.78 112.46,109.5 165.49,166.94 31.42,34.04 62.17,68.75 92.22,104.15 -75.65,-213.61 -182.62,-421.84 -341.38,-616.67 -8.32,-10.24 -15.57,-21.05 -21.71,-32.22l-0.23 0.13c-26.97,-49.09 -57.81,-100.98 -92.29,-153.81 -35.16,-53.86 -76.49,-112.51 -124.59,-175.32 -243.01,-317.27 -629.62,-692.77 -1192.54,-968.07 -35.98,-17.6 -64.84,-43.97 -85.26,-75.23l-0.55 0.36 -188.51 -287.24c-36.72,-56.13 -43.84,-123.08 -25.19,-182.44 31.87,-131.56 46.95,-191.69 61.37,-249.3 121.97,-486.96 212.55,-848.66 175.31,-1346.37 -0.18,-2.4 -0.32,-4.8 -0.42,-7.18 -6.2,-50.9 -21.69,-107.42 -46.31,-169.03 -28.61,-71.57 -69.42,-148.66 -122.21,-230.47 -290.93,-450.98 -914.36,-999.65 -1840.14,-1537.58 -12.44,-7.21 -23.89,-15.48 -34.3,-24.62l-0.2 0.22c-196.85,-173.25 -19.31,-17.75 -71.47,-63.41 -552.97,-484.05 -813.47,-712.08 -948.47,-2060.77 -11.62,-118.02 74.64,-223.12 192.66,-234.74 61.73,-6.08 119.9,14.6 163.03,52.63l6608.79 5425.46 -5116.67 -6529.5c-72.94,-93.39 -56.38,-228.25 37.02,-301.2 76.63,-59.87 181.16,-59.45 256.52,-5.77l0.09 -0.12 0.35 0.25c2.83,2.01 5.57,4.07 8.27,6.19 195.1,140.67 384.98,301.93 578.05,465.91 451.29,383.27 921.4,782.54 1379.52,852.92 6.26,0.94 12.41,2.14 18.45,3.59l2270.35 353.19c62.14,9.62 113.89,44.99 146.08,93.59l0.32 -0.21 944.23 1425.77c3.21,4.85 6.16,9.75 8.93,14.75 69.5,119.95 140.63,237.6 209.32,318.49 36.79,43.32 61.88,71.99 63.83,71.82 6.41,-0.58 12.76,-0.87 19.08,-0.89l0.62 -0.01 1.18 -0.01c98.74,-1.53 204.84,-0.95 315.61,1.64 116.92,2.73 233.53,7.27 347.1,13.48 615.03,33.68 1303.51,119.14 1704.37,242.98 4.58,1.41 9.07,2.95 13.48,4.63l0.14 -0.37c71.61,27.29 147.43,59.74 227.1,97.11 43.74,20.52 85.71,41.18 125.94,61.97 -150.64,-169.56 -328.13,-322.15 -548.37,-442.58 -11.06,-6.02 -21.4,-12.9 -30.93,-20.46l-0.2 0.26 -0.29 -0.23c-3.17,-2.52 -6.26,-5.13 -9.25,-7.79 -39.69,-31.89 -84.87,-65.78 -135.39,-100.79 -55.68,-38.59 -116.42,-77.73 -181.57,-116.04 -343.82,-202.14 -841.53,-404.63 -1461.25,-450.61 -42.45,-2.99 -81.15,-18.15 -112.96,-41.77l-281.1 -182.98c-53.61,-34.82 -86.53,-89.55 -95.37,-148.16l-0.54 0.08c-9.67,-64.35 -24.56,-169.03 -38.81,-269.35 -70.56,-496.43 -123.01,-865.28 -345.34,-1312.07 -1.49,-2.98 -2.89,-6 -4.23,-9.02 -24.79,-43.93 -60,-89.64 -105.32,-136.76 -53.2,-55.3 -119.88,-111.19 -199.54,-167.07 -439.41,-308.24 -1223.87,-581.38 -2284.52,-730.58 -17.33,-2.4 -33.91,-6.84 -49.49,-12.97 -59.71,-20.73 -18.39,-5.92 -108.15,-36.7 -697.36,-239.08 -1031.66,-353.71 -1691.81,-1637.16 -54.36,-105.47 -12.92,-235.06 92.55,-289.42 51.37,-26.48 108.45,-30.24 159.79,-14.93l0.06 -0.21 8193.09 2457.9 -7235.91 -4049.13c-103.61,-58.08 -140.52,-189.17 -82.44,-292.79 49.46,-88.22 151.82,-128.1 245.11,-102.13 228.24,53.05 472.55,131.01 720.73,210.17 561.23,179.06 1144.07,364.98 1585.46,255.38l2259.52 -557.01c64.13,-15.77 128.6,-0.95 178.08,35.17l1415.43 948.13c6.76,4.53 13.15,9.37 19.23,14.5 106.8,80.98 214.56,159.24 308.32,206.86 50.83,25.82 85.38,42.6 87.54,41.46 4.48,-2.36 8.98,-4.55 13.54,-6.56l-0.07 -0.17 0.7 -0.31c3.96,-1.74 7.92,-3.37 11.93,-4.85 90.51,-39.36 185.28,-78.36 282.16,-116.25 104.18,-40.75 213.66,-81.53 325.88,-121.41 579.92,-206.08 1249.37,-393.03 1668.99,-433.61 6.01,-0.57 11.98,-0.89 17.91,-0.96 82.11,-2.52 163.74,-2.01 244.54,1.51 46.89,2.03 92.75,4.87 137.59,8.58 -204.17,-98.13 -426.61,-170.31 -676.11,-196.48 -13.42,-1.37 -26.44,-3.98 -38.93,-7.65 -49.99,-14.66 -107.85,-29.4 -173.43,-43.38 -66.91,-14.26 -138.04,-27 -211.95,-37.08 -395.97,-54.04 -933.93,-49.15 -1522.93,147.41 -36.22,12.12 -73.41,13.99 -108.42,7.28l-341.35 -62.7c-66.64,-12.21 -120.45,-54.01 -150.31,-109.32 -38.96,-64.35 -87.31,-145.56 -133.97,-223.88l-0.37 0.22c-256.18,-430.04 -446.66,-749.78 -821.67,-1075.1l-0.22 0.26c-43.42,-35.94 -97.12,-67.78 -160.5,-95.19 -68.72,-29.72 -151.68,-55.33 -248.22,-76.45 -525.39,-114.99 -1355.08,-64.66 -2390.94,206.62 -13.76,3.57 -27.57,5.68 -41.24,6.5l0.01 0.23c-426.41,26.09 -824.77,-86.79 -1211.93,-302.47 -371.81,-207.13 -730.74,-508.48 -1093.84,-871.18 -84.09,-83.63 -84.47,-219.62 -0.84,-303.71 34.7,-34.89 78.39,-55.37 123.67,-61.41l0 -0.01 8741.89 -1198.24 -8364.69 -800.66c-118.02,-11.15 -204.66,-115.87 -193.51,-233.89 9.2,-97.29 81.96,-173.3 173.37,-190.72l-0.05 -0.26 0.98 -0.19c2.86,-0.55 5.69,-1.03 8.54,-1.46 235.13,-44.21 486.78,-71 742.27,-98.2 586.64,-62.45 1195.23,-127.26 1553.93,-404.7l1807.57 -1398.65c50.29,-38.84 112.31,-51.89 170.25,-41.21l1714.49 275.78c8.74,1.39 17.24,3.27 25.53,5.64 132.23,31.59 263.87,60.25 369.65,66.16 57.23,3.2 95.55,4.85 96.62,3.5 3.12,-3.94 6.32,-7.75 9.65,-11.42l-0.4 -0.36 0.1 -0.11c1.39,-1.53 2.79,-3.04 4.21,-4.52 63.96,-69.4 136.75,-145.06 216.4,-225.09 80.13,-80.52 163.85,-162 249.15,-242.48 448.78,-423.43 986.5,-864.89 1352.77,-1070.26 4.19,-2.35 8.42,-4.54 12.7,-6.58l-0.07 -0.15 0.63 -0.3c5.48,-2.61 10.99,-4.96 16.56,-7.07 72.13,-34.12 142.19,-64.39 209.84,-90.77 42.53,-16.58 86.02,-32.51 130.48,-47.7 -226.54,-7.6 -459.28,15.95 -698.16,92.52 -14.42,4.63 -28.97,7.62 -43.46,9.14 -50.55,6.72 -107.85,16.39 -171.5,29.6 -62.04,12.89 -131.87,30.03 -209.46,52.27 -383.81,110.04 -873.59,331.13 -1333.03,748.06 -27.95,25.43 -60.79,42.08 -95.14,50.19l0.07 0.29 -339.33 80.59c-68.75,16.29 -137.64,-2.41 -187.96,-44.52 -96.9,-67.93 -153.32,-108.1 -206.68,-146.12 -407.66,-290.37 -710.76,-506.25 -1184.81,-652.82l-0.1 0.35 -0.21 -0.06c-54.01,-15.36 -116.17,-22.85 -185.74,-22.41 -77.17,0.49 -163.54,10.27 -258.31,29.39 -525.48,106.05 -1263.88,486.55 -2103.5,1153.06 -13.23,10.51 -27.33,19.18 -41.97,26.11 -38.83,20.06 -31.8,16.87 -102.5,53.7 -653.43,340.47 -966.67,503.67 -2351.66,98.04 -113.83,-32.99 -179.38,-152.03 -146.39,-265.86 16.15,-55.71 52.88,-99.86 99.55,-126.55l-0.28 -0.49 7427.69 -4245.34 -7916.46 2452.66c-113.37,34.85 -233.54,-28.81 -268.39,-142.18 -28.67,-93.26 9.31,-191.13 86.8,-242.32l-0.04 -0.06c198.56,-131.31 418.18,-252.34 642.02,-375.69 520.35,-286.76 1065.23,-587.03 1302.55,-1002.07 2.2,-3.84 4.49,-7.59 6.88,-11.24l1111.96 -1953.1c31.76,-55.95 84.81,-92.2 143.22,-104.31l1550.1 -373.81c6.46,-1.56 150.63,-36.03 157.08,-36.98 132.56,-21.02 265.63,-44.95 366.18,-80.57 52.63,-18.65 88.03,-31.81 88.57,-33.75 1.27,-4.56 2.68,-9.04 4.23,-13.45l-0.02 -0.01 0.06 -0.17 0.58 -1.6 0.35 -0.97c1.05,-2.87 2.15,-5.72 3.31,-8.51 34.81,-95.53 71.97,-191.62 110.57,-286.31 38.53,-94.47 84.56,-201.94 137.06,-319.94 250.52,-563.09 576.32,-1177.48 835.42,-1508.83 2.89,-3.69 5.86,-7.27 8.93,-10.73l-0.39 -0.35c52.92,-59.34 110.33,-118.89 172.01,-178.45 32.61,-31.49 66.69,-63.01 102.27,-94.48 -212,80.31 -417.72,191.8 -608.59,354.6 -10.17,8.7 -20.92,16.26 -32.1,22.73l0.03 0.05c-45.94,26.6 -96.78,58.52 -151.57,96.04 -58.88,40.31 -117.43,83.18 -173.16,127.78 -311.53,249.33 -678.28,642.42 -941.87,1205.33 -16.95,36.26 -42.79,65.5 -73.66,86.47l-276.42 201.26c-51.39,37.42 -113.85,48.63 -171.47,36.21l-0.17 0.81c-36.11,-7.88 -153.83,-34.59 -265.57,-59.92 -488.11,-110.7 -851.14,-193.01 -1345.29,-145.52l0.06 0.47 -0.5 0.06c-54.79,6.57 -114.74,23.69 -179.2,51.13 -72.48,30.86 -148.5,73.08 -227.25,126.42 -444.01,300.67 -978.53,936.43 -1496.14,1875.02 -9.71,17.68 -21.56,33.41 -35.02,47.14 -36.33,43.65 -86.09,105.33 -133.06,163.5 -409.84,507.53 -598.14,740.72 -1958.68,892.32 -118.02,13.01 -224.25,-72.12 -237.26,-190.14 -6.96,-63.1 14.13,-122.85 53.31,-166.77l5270.79 -6722.8 -6416.21 5266.77c-91.53,75.27 -226.77,62.08 -302.05,-29.45 -62.13,-75.55 -64.01,-180.91 -11.28,-257.73l-0.21 -0.14c135.86,-199.24 300.16,-401.43 467.09,-606.84 372.06,-457.85 758.27,-933.1 817,-1383.2l301.22 -2271.23c8.31,-63.72 43.77,-117.28 93.22,-150.5l1404.23 -1008.54c6.93,-4.98 14.03,-9.51 21.31,-13.55 114.96,-69.9 227.96,-141.9 308.4,-213.38 42.48,-37.74 70.59,-63.65 70.32,-66.07 -1.03,-9.31 -1.45,-18.56 -1.29,-27.68 -3.41,-93.42 -5.06,-196.4 -4.98,-306.44 0.08,-113.68 2.03,-230.36 5.77,-347.26 19.79,-617.27 89.63,-1308.93 204.18,-1711.6 2.17,-7.62 4.72,-15.03 7.62,-22.2 27.08,-75.39 56.51,-148.96 88.15,-220.5 18.25,-41.27 38.16,-83.66 59.76,-127.11 -166,154.39 -314.49,335.33 -429.97,558.31 -6.37,12.36 -13.79,23.81 -22.07,34.35l0.19 0.15 -0.33 0.42c-2.18,2.77 -4.44,5.45 -55.04,76.41 -85.88,125.26 -123.61,186.71 -159.93,251.82 -194.54,348.64 -386.01,851.02 -418,1471.38 -2.09,41.04 -15.61,78.75 -37.26,110.33l-178.49 287.87c-33.69,54.56 -87.89,88.71 -146.49,98.74l0.09 0.53c-59.91,10.38 -166.22,27.95 -268.43,44.82 -492.8,81.37 -859.25,141.93 -1298.48,371.82l0.05 0.08 -0.16 0.09c-4.89,2.74 -9.86,5.24 -14.86,7.56 -42.72,25.6 -87.27,61.76 -133.29,108.08 -54.64,55.02 -109.06,122.87 -162.65,203.05 -297.95,445.81 -553.26,1236.09 -678.68,2300.31 -2.15,18.84 -6.71,36.8 -13.27,53.68 -10.87,34.13 -29.64,94.36 -47.97,153.16 -209.16,670.42 -318.67,1021.42 -1556.99,1694.18 -104.08,56.69 -234.42,18.26 -291.11,-85.82 -28.7,-52.69 -33.03,-112.11 -16.8,-165.29l2254 -8267.06 -3905.98 7389.96c-55.3,105.01 -185.25,145.32 -290.27,90.02 -85.72,-45.14 -128.33,-140.06 -111.01,-230.52l-0.04 -0.01 0.06 -0.31c47.72,-248.96 124.83,-511.83 203.42,-779.79 167.21,-570.01 341.72,-1164.95 216.83,-1617.39l-0.47 -1.79 -0.37 0.1 -585.72 -2190.53c-16.79,-62.86 -3.94,-126.69 29.98,-176.59l904.07 -1483.84c3.79,-6.22 7.83,-12.18 12.13,-17.87 83.41,-117.39 160.92,-227.76 203.84,-318.85 22.52,-47.8 35.23,-81.26 30.44,-89.95 -2.31,-4.2 -4.46,-8.47 -6.45,-12.75l-0.28 0.13 -0.27 -0.58c-2.67,-5.73 -5.06,-11.53 -7.19,-17.37 -42.22,-92.41 -82.78,-185.6 -121.05,-277.85 -41.91,-101.02 -85,-209.82 -128.31,-324 -218.51,-576.01 -416.54,-1230.46 -465.67,-1642 -1.07,-9.08 -1.58,-18.11 -1.52,-27.02 -3.8,-75.95 -4.84,-154.24 -3.17,-234.64 0.96,-46.08 2.82,-91.98 5.63,-137.65 -94.22,208.3 -162.2,435.3 -183.65,689.77 -1.48,17.99 -5.17,35.26 -10.73,51.61 -12.62,49.89 -24.71,104.97 -35.66,164.74 -11.81,64.43 -22.38,136.09 -30.87,214.87 -42.92,398.45 -21.8,929.04 189.2,1507.13 11.91,32.87 15.27,66.73 11.27,99.21l0.51 0.06 -38.8 313.12c-8.79,72.01 -52.23,131.32 -111.53,163.38 -126.01,82.89 -194.46,126.98 -259.62,168.91 -421.32,271.12 -729.43,469.41 -1042.21,847.66 -33.84,43.44 -64.04,97.85 -90.33,162.64 -29.35,72.31 -53.29,155.71 -71.45,249.48 -101.9,525.79 -28.9,1348.86 265.57,2378.67 3.91,13.74 6.36,27.53 7.5,41.24l0.07 -0.01c8.8,105.11 18.54,188.35 27.08,261.47 66.73,571.02 74.58,638.28 -760.39,1676.59 -74.34,92.46 -209.58,107.15 -302.05,32.81 -45.67,-36.72 -72.35,-88.3 -78.72,-142.23l-0.36 0.04 -1049.56 -8659.49 -956.39 8415.92c-13.01,118.02 -119.24,203.15 -237.26,190.14 -99.49,-10.97 -175.59,-88.21 -189.23,-182.9 -47.63,-234.85 -72.51,-497.71 -98.44,-772.05 -56.35,-596.05 -118.2,-1250.24 -433.02,-1676.5l-0.68 -0.95 -0.16 0.11 -1381.09 -1875.87c-39.11,-53.36 -49.95,-118.78 -35.33,-178.37l-0.01 0 0.37 -1.51 0.04 -0.14 389.47 -1574.29c35.47,-142.24 68.32,-281.38 75.13,-390 3.72,-59.44 3.68,-100.39 -3.5,-106.21 -4.4,-3.57 -8.6,-7.32 -12.64,-11.16l-0.1 0.11c-72.48,-68.9 -148.86,-144.87 -227.4,-225.97 -73.29,-75.68 -153.08,-161.17 -237.54,-254.44 -421.21,-465.1 -887.23,-969.26 -1116.73,-1567.66 -3.56,179.28 3.67,355.87 23.81,529.74 71.78,619.9 309.75,1210.87 809.73,1777.37 29.13,32.92 46.31,72.26 51.88,112.78l0.29 -0.04 52.41 371.22c7.76,56.12 -6.88,110.14 -37.11,153.08l0.08 0.05c-82.37,116.49 -167.96,232.19 -247.07,339.15 -256.87,347.3 -438.53,592.91 -579.52,1019.24l-0.06 0.2c-1.35,4.52 -2.83,8.95 -4.44,13.31 -13.69,49.75 -21.02,107.51 -21.85,172.69 -0.99,77.56 7.17,164.46 24.57,259.89 96.22,527.81 463.72,1274.74 1118.33,2131.88 10,13.1 18.29,26.95 24.85,41.34 59.62,120.27 39.44,79.92 46.29,93.62 337.45,674.57 487,973.53 52.5,2357.61 -35.31,113.37 -155.86,176.65 -269.23,141.34 -59.79,-18.62 -105.6,-60.96 -130.42,-113.43l-4096.13 -7498.9 2303.95 7973.92c32.99,113.83 -32.56,232.87 -146.39,265.86 -93.89,27.21 -191.28,-12.65 -241.05,-91.3l-0.49 0.31 -1.53 -2.44 -0.08 0.05 -0.08 -0.13 -1.63 -2.76c-128.29,-203.07 -248.5,-438.42 -370.17,-676.68 -261.89,-512.86 -531.33,-1040.46 -928.77,-1274.77l-1983.85 -1180.26c-57.55,-34 -93.4,-90.65 -103.01,-151.91l-370.97 -1681.43c-1.24,-5.62 -2.22,-11.27 -3,-16.88l-0.37 0.05c-19.81,-139.74 -41.87,-277.81 -74.89,-377.25 -17.7,-53.29 -30.39,-88.92 -33.09,-89.73 -11.86,-3.58 -23.15,-8.11 -33.87,-13.45 -98.37,-38.1 -190.54,-75.65 -274.89,-111.95 -89.43,-38.49 -195.72,-86.54 -316.44,-143.06 -558.88,-261.66 -1167.27,-599.4 -1493.01,-864.43 -3.73,-3.04 -7.31,-6.19 -10.78,-9.42l-0.15 0.16 -0.15 -0.14c-60.13,-55.73 -118.34,-113.9 -174.49,-174.34 -32.24,-34.7 -64.97,-71.78 -98.21,-111.16 84.75,227.62 198.72,441.88 353.71,631.66 9.37,11.53 17.36,23.73 23.97,36.4 26.89,48.26 57.31,98.94 91.21,150.57 35.3,53.74 76.78,112.15 125.14,174.78 242.6,314.16 625.49,679.55 1189.81,953.44 32.24,15.56 58.85,38.1 78.85,64.94l0.23 -0.17 187.38 250.6c42.71,57.22 52.69,128.69 33.21,192.08 -34.61,154.8 -52.64,231.68 -69.77,304.8 -114.33,487.91 -197.82,844.22 -159.9,1328.82l0.36 5.59c6.33,51.43 22.05,108.45 47.05,170.48 28.97,71.89 69.77,148.56 122.15,229.22 292.59,450.56 917.87,997.45 1845.26,1532.4 12.47,7.17 23.96,15.4 34.4,24.51l0.1 -0.11c17.86,15.61 54.55,47.4 90.21,78.3 544.47,471.85 799.82,693.15 936.81,2042.83 11.62,118.02 -74.64,223.12 -192.66,234.74 -58.66,5.77 -114.11,-12.65 -156.5,-47.12l-0.34 -0.28 -0.73 -0.6 -6628.62 -5406.77 5136.51 6512.25c73.41,93.39 57.22,228.62 -36.18,302.04 -80.34,63.15 -191.61,59.97 -267.9,-1.61 -192.11,-137.88 -381.62,-297.68 -574.41,-460.25 -454.09,-382.93 -927.85,-782.45 -1392.68,-850.82l-0.82 -0.13 -0.02 0.13 -2245.72 -344.41c-66.53,-9.99 -121.32,-49.47 -153.18,-103.14l-976.66 -1416.24c-3.11,-4.51 -6.01,-9.12 -8.73,-13.77l-0.52 0.31c-71.4,-122.39 -144.14,-242.32 -211.89,-321.56 -37.09,-43.38 -62.59,-72.06 -65.15,-71.82 -5.37,0.48 -10.69,0.75 -15.98,0.83l0 0.01 -3.11 0.06c-98.72,1.85 -205.21,1.61 -316.74,-0.64 -116.44,-2.34 -233.08,-6.51 -347.13,-12.4 -614.39,-31.68 -1303.01,-115.1 -1704.95,-237.83 -4.28,-1.29 -8.46,-2.74 -12.6,-4.28l-0.03 0.08 -0.16 -0.06 -0.73 -0.29 -0.11 0.29c-80.69,-30.45 -156.85,-62.35 -228.2,-95.56 -40.12,-18.67 -81.5,-39.2 -124.17,-61.43 152.63,170.51 332.82,324.47 556.87,446.67 11.06,6.03 21.41,12.86 30.95,20.43l0.18 -0.23 0.34 0.27c3.57,2.84 7.03,5.74 10.37,8.76 40.85,31.94 86.6,65.53 137.25,99.92 55.85,37.93 117.39,76.73 184.35,115.29 346.75,199.64 840.91,394.15 1457.5,434.39 43.72,2.74 83.57,18.35 116.08,42.95l0.03 -0.04 276.08 208.91c48.7,36.76 77.34,90.21 83.99,146.37 10.92,66.25 27.32,170.25 43.1,270.33 77.65,492.3 134.54,852.73 350.15,1284.21l0.32 -0.17c25.57,48.41 62.99,98.09 111.81,148.5 53.04,54.77 119.93,110.4 200.18,166.32 440.99,307.23 1226.42,578.22 2286.98,724.02 14.25,1.91 27.98,5.18 41.09,9.66l0.14 -0.4c99.84,34.39 106.89,36.77 116.79,40.13 698.03,236.9 1032.85,350.54 1697.29,1632.06 54.36,105.47 12.92,235.06 -92.55,289.42 -51.12,26.34 -107.87,30.18 -159.01,15.14l-8204.01 -2433.01 7251.19 4027.96c103.61,57.61 140.9,188.32 83.29,291.94 -47.43,85.3 -144.38,125.6 -234.98,105.06l-0.01 0.05 -0.54 -0.12 -0.04 0.18 -0.26 -0.06c-2.81,-0.64 -5.58,-1.37 -8.34,-2.12 -239.71,-55.02 -478.64,-130.41 -721.24,-206.98 -562.62,-177.58 -1146.45,-361.86 -1586.47,-251.06l-2218.87 558.48c-62.08,15.52 -124.59,2.3 -173.57,-31.18l-1455.95 -936.27c-4.62,-2.97 -9.07,-6.1 -13.39,-9.35l-0.08 0.1c-113.29,-85.89 -226.66,-168.64 -321.03,-216.37 -51.18,-25.89 -85.6,-42.7 -87.26,-41.82 -4.8,2.56 -9.64,4.89 -14.54,7.05l0.23 0.52 -0.68 0.3c-93.29,41.11 -191.69,82.07 -292.83,122 -88.02,34.75 -197.38,75.6 -325.47,121.58 -580.69,208.42 -1249.91,397.82 -1667.66,439.52 -6.63,0.65 -13.19,0.98 -19.72,1.02 -47.1,-1.89 -335.67,-5.46 -380.65,-9.02 204.45,97.52 427.09,169.07 676.64,194.44 16.38,1.61 32.17,5 47.15,10 47.8,13.63 102.89,27.36 165.41,40.46 66.47,13.93 137.63,26.37 212.29,36.24 396.14,52.34 935.94,44.19 1533.13,-159.52 36.69,-12.43 74.44,-14.42 109.92,-7.51l265.52 35.33c65.95,8.6 121,46.28 153.91,98.47l0.05 -0.03c26.12,41.39 47.09,75.55 114.73,183.61 298.83,477.42 511.36,816.96 908.51,1158.52l2.37 2.07c41.01,32.69 93.07,62.63 155.72,89.48 71.02,30.45 154.11,56.04 248.53,76.38 525.38,113.23 1354.77,60.14 2390.24,-214.55 13.75,-3.62 27.55,-5.82 41.23,-6.69l0 -0.04c422.49,-27.16 816.44,61.69 1200.43,252.96 371.38,184.99 732,466.45 1100.07,831.71 84.09,83.63 84.47,219.62 0.84,303.71 -34.07,34.26 -76.8,54.61 -121.2,61.05l0.05 0.37 -8788.9 1302.46 8428.38 779.49c118.02,10.68 205.03,115.03 194.35,233.05 -8.84,97.59 -81.7,173.95 -173.4,191.42l0.08 0.4 -1.04 0.2c-233.37,45.18 -484.65,72.98 -740.45,101.26 -590.97,65.34 -1207.93,133.59 -1577.35,423.01l-0.94 0.71 0.1 0.13 -1796.87 1390.44c-50.98,39.38 -114.03,52.22 -172.64,40.72l-1705.55 -268.85c-5.37,-0.83 -10.65,-1.89 -15.86,-3.1l-0.13 0.58c-137.67,-32.58 -274.57,-62.47 -379.44,-67.99 -56.81,-2.99 -94.96,-4.38 -96.32,-2.65 -7.1,9.03 -14.77,17.32 -22.93,24.89 -73.56,80.18 -142.76,153 -206.33,217.27 -70.4,71.18 -153.85,152.62 -248.42,242.41 -446.52,423.97 -982.92,866.91 -1350.4,1074.46 -3.97,2.24 -7.97,4.32 -12.01,6.26l0.23 0.47 -0.66 0.32c-74.98,36.19 -150.73,69.33 -226.93,99.32 -42.18,16.6 -85.45,32.54 -129.81,47.84 226.72,6.86 459.65,-17.43 698.73,-94.93 14.22,-4.56 28.57,-7.58 42.86,-9.11 50.26,-6.82 107.66,-16.68 171.97,-30.27 66.31,-14.01 136.32,-31.28 208.49,-52.31 382.95,-111.55 872.35,-336.12 1333.96,-762.22 34.41,-31.66 76.37,-50 119.5,-55.23l333.58 -54.47c60.87,-9.9 119.94,6.8 165.3,41.6 102.02,69.28 162.07,110.73 219.65,150.48 412.27,284.51 713.46,492.37 1174.86,633.43l0.1 -0.37 0.57 0.15 0.06 -0.21 0.21 0.06c2.27,0.65 4.53,1.32 6.75,2.04 51.93,13.68 111.56,20.26 178.3,19.64 76.74,-0.72 163.09,-10.82 258.24,-30.33 525.45,-107.77 1262.88,-490.8 2100.64,-1160.02 13.12,-10.43 27.1,-19.08 41.61,-25.99 28.81,-14.99 65.78,-34.39 101.6,-53.2 652.89,-342.8 965.85,-507.11 2352.44,-105.9 113.83,32.99 179.38,152.03 146.39,265.86 -16.83,58.08 -56.06,103.55 -105.56,129.82l-7408.46 4265.27 7917.78 -2481.67c113.37,-35.31 233.92,27.97 269.23,141.34 30.4,97.59 -12.24,200.47 -97.02,249.75 -194.33,128.75 -408.43,248.19 -625.73,369.42 -514.93,287.24 -1049.48,585.45 -1280.5,998.03 -2.15,3.84 -4.4,7.56 -6.75,11.22l-1131.35 1986.42c-30.82,54.3 -81.7,89.98 -138.06,103.12l0.08 0.36 -1691.9 396.29c-8.29,1.93 -16.56,3.31 -24.82,4.25 -133.12,22.07 -264.62,46.69 -364.74,82.45 -53.72,19.18 -89.49,32.43 -89.89,33.88 -1.33,4.83 -2.81,9.55 -4.46,14.21l0.25 0.09 -0.06 0.17c-1.83,5.2 -3.82,10.27 -6,15.23 -33.82,93.56 -70.07,188.11 -107.87,281.69 -44.11,109.19 -89.53,216.8 -135.22,320.38 -249.05,564.68 -573.07,1180.59 -830.84,1512.38 -6.63,8.53 -13.76,16.41 -21.33,23.65 -52.05,58.11 -104.99,113.31 -158.55,165.45 -38.07,37.06 -76.59,72.91 -115.56,107.57 211.79,-80.84 418.77,-195.57 621.14,-369.29 9.94,-8.5 20.45,-15.97 31.35,-22.35l-0.22 -0.37zm18971.12 6867.52c-120.14,-107.03 -152.62,-266.37 -138.12,-451.16 10.79,-137.55 48.39,-293.62 89.07,-448.11l295.17 -1604.39 -1289.08 -1757.31 0.15 -0.11c-161.65,-217.9 -261.36,-478.55 -327.24,-759.52l-995.97 8413.98 -0.62 -0.07c-11.24,95.67 -86.29,175.07 -186.15,187.69 -117.56,14.87 -224.92,-68.37 -239.79,-185.93l-1269.2 -9971.9c-309.42,441.99 -281.24,572.24 -227.03,822.11 23.22,107.09 50.24,231.52 68.27,401.83 319.15,1081.86 392.71,1972.82 281.03,2557.37 -23.2,121.43 -44.87,328.11 -247.41,617.31 -273.57,412.61 -758.56,675.38 -1134.45,918.86 -57.1,36.99 -116.4,75.39 -188.59,122.84l-16.14 166.89c222.92,639.96 241.85,1228.31 193.52,1665.74 -9.37,84.88 -21.89,166.77 -36.3,243.99 -13.02,69.73 -26.9,132.17 -41.03,187.17 -63.82,737.43 -439.3,1248.08 -787.79,1721.93 -69.89,95.04 -138.71,188.6 -197.06,272.68 -60.38,87.49 -177.41,118.85 -274.36,69.3 -105.47,-53.9 -147.29,-183.1 -93.39,-288.58 172.38,-337.28 276.47,-705.17 310.36,-1075.59 6.61,-72.21 10.56,-144.29 11.81,-215.91 1.15,-65.51 -0.12,-133.32 -3.83,-203.17 -47.17,-383.83 -240.37,-1009.15 -450.43,-1555.5 -39.82,-103.58 -81.65,-207.48 -124.5,-309.25 -39.13,-92.95 -77.86,-180.84 -115.39,-261.55 -81.95,-146.11 -55.96,-310.86 26.13,-482.93 57.89,-121.35 147.7,-252.11 240.28,-380.89l851.75 -1393.42 -571.02 -2107.64 0.36 -0.1c-72.46,-260.74 -71.72,-540 -32.16,-826.53l-3940.99 7485.92c-42.37,95.45 -149.19,148.4 -253.1,120.21 -114.77,-31.13 -182.57,-149.41 -151.45,-264.18l2623.78 -9635.74c-694.58,442.11 -782.77,722.34 -939.98,1222.24 -5.51,17.53 13.27,-41.98 -31.12,96.87 -131.04,1125.48 -409.32,1977.25 -738.91,2473.72 -68.58,103.32 -140.23,192.73 -214.08,267.55 -74.1,75.06 -151.01,135.81 -229.98,181.65 -486.22,257.78 -892.77,338.39 -1424.63,434.52 -61.27,11.07 -125.2,22.62 -222.22,40.92l-81.35 142.21c-38.56,680.83 -246.3,1230.94 -458.65,1615.4 -43.62,78.95 -86.57,149.85 -127.77,212.72 -36.25,55.33 -394.56,658.73 -854.4,1027.74 -297.39,238.47 -627.98,431.74 -950.64,599.62l-0.15 -0.28c-87.11,45.38 -197.07,26.25 -263.19,-51.89 -76.66,-90.6 -65.36,-226.21 25.24,-302.87 289.39,-244.89 527.37,-544.25 701.31,-872.82 34.53,-65.23 66.01,-130.26 94.31,-194.82 27.78,-63.35 53.05,-127.03 75.71,-190.71l0.01 -0.03c103.61,-371.26 166.02,-1020.4 182.93,-1604.69 3.38,-116.73 4.96,-229.16 4.7,-334.66 -0.24,-99 -2.19,-196.01 -5.87,-288.8 -17.96,-164.54 69.64,-305.64 211.31,-432.34 105.33,-94.21 239.62,-180.68 374.51,-263.56l1305.44 -937.98 296.13 -2171.18c91.96,-481.43 198.2,-628.13 291.76,-786.22l-6534.88 5398.55c-76.32,63.25 -188.97,67.1 -270.07,3.36 -93.39,-73.41 -109.59,-208.64 -36.18,-302.04l6216.04 -7917.25c-767.78,146.78 -955.48,375.89 -1267.38,756.8 -26.61,32.5 -54.36,66.38 -101.34,122.73 -545.12,990.89 -1122.79,1673.21 -1613.91,2007.98 -98.26,66.97 -194.4,121.13 -287.54,162.17 -88.82,38.14 -215.99,88.25 -313.93,89.31 -497.66,50.06 -811.6,-18.37 -1245.69,-112.98 -117.25,-25.55 -243.25,-53.04 -369.12,-77.91l-234.24 174.3c-195.55,418.91 -438.77,739.19 -680.5,982.93 -246.86,248.9 -490.43,417.21 -680.74,529.48 -569.03,480.66 -1132.63,567.88 -1727.16,659.81 -93.44,14.44 -188.02,29.08 -327.04,53.85l-0.09 -0.49c-101.83,17.89 -204.56,-40.05 -239.69,-140.85 -39.03,-111.98 20.11,-234.41 132.09,-273.44 326.51,-114.38 650.57,-301.37 933.97,-540.63 56.08,-47.33 109.71,-95.85 160.55,-145.34 48.92,-47.62 95.12,-95.6 138.25,-143.69l1.25 -1.65c236.1,-303.89 540.06,-884.31 776.99,-1421.51 48.82,-110.69 92.56,-213.81 130.18,-306.92 39.75,-98.38 74.46,-188.35 103.18,-267.64 1.19,-4.17 2.49,-8.31 3.95,-12.46l0.06 -0.17 0.06 0.02c48.76,-153.66 180.65,-248.48 354.86,-310.69 127.23,-45.45 282.93,-74.83 439.08,-100.72l1598.28 -374.36 1085 -1905.05c1.48,-2.95 3.02,-5.88 4.65,-8.79 133.32,-238.08 330.23,-436.27 559.29,-611.74l-8106.31 2540.77 -0.16 -0.52c-93.82,29.3 -198.71,-9.16 -249.72,-97.91 -59.01,-102.68 -23.6,-233.78 79.08,-292.79l8654.98 -4982.93c-805.64,-176.58 -1065.8,-40.02 -1530.25,203.84 -27.45,14.41 -55.51,29.13 -91.66,47.95 -885.3,704.5 -1682.72,1111.88 -2266.61,1231.64 -121.23,24.86 -235.16,37.76 -340.69,38.75 -107.71,1 -206.11,-10.31 -294.25,-33.81 -3.99,-0.9 -7.98,-1.88 -11.95,-3.01l-0.21 -0.06 0.19 -0.68 -3.55 -1.01c-529.17,-161 -853.71,-384.98 -1298.42,-691.88 -53.91,-37.2 -109.4,-75.53 -156.18,-107.67l-194.74 31.8c-504.32,450.37 -1037.01,692.05 -1457.62,814.58 -86.72,25.26 -167.1,45.23 -240.47,60.72 -66.14,13.97 -129.59,24.9 -188.96,33.26 -705.15,222.72 -1319.69,71.29 -1890.04,-69.34 -105.8,-26.09 -209.92,-51.78 -326.34,-76.99 -104.97,-21.36 -179.98,-118.13 -171.39,-227.65 9.29,-118.48 112.89,-207 231.37,-197.71 378.74,30.33 758.87,-14.07 1113.71,-124.28 66.8,-20.75 134.85,-44.76 203.93,-71.93 67.51,-26.57 133.15,-55.23 196.63,-85.86l0.66 -0.32c333.49,-191.42 831.01,-604.99 1252.81,-1005.48 75.23,-71.43 155.32,-150.07 238.32,-233.99 80.19,-81.07 146.42,-149.86 196.72,-204.38l0.58 -0.76c103.58,-131.61 265.87,-170.63 456.41,-160.58 142.49,7.51 299.97,41.37 455.15,78.09l1607.01 253.31 1723.95 -1334 0.09 0.12c213.95,-167.34 472.48,-273.68 752.33,-346.7l-8423.28 -779.02c-103.18,-2.14 -192.76,-78.43 -208.19,-183.93 -17.19,-117.56 64.17,-226.8 181.73,-243.99l10112.29 -1498.58c-222.58,-189.19 -442.69,-340.97 -664.9,-451.66 -310.54,-154.69 -626.45,-228.33 -961.62,-210.38 -1093.69,287.77 -1986.36,339.31 -2567.63,214.04 -121.56,-26.2 -231.09,-60.25 -327.62,-101.62 -98.68,-42.3 -184.76,-92.9 -257.43,-151.26 -3.98,-2.95 -7.89,-6.03 -11.71,-9.29 -444.79,-382.54 -672.5,-746.3 -992.65,-1257.8 -4.73,-7.57 -7.55,-12.16 -60.96,-96.82l-129.19 -17.19c-651.17,213.01 -1241.9,219.99 -1679.19,162.22 -89.47,-11.82 -171,-25.94 -244.25,-41.3 -66.32,-13.9 -128.91,-29.54 -186.68,-45.85 -735.88,-80.72 -1237.45,-467.14 -1702.94,-825.87 -85.93,-66.21 -170.51,-131.39 -268.3,-202.41l0.09 -0.12c-86.27,-62.06 -115.26,-179.99 -63.57,-276.11 56.22,-104.54 186.56,-143.72 291.11,-87.5 333.21,179.86 698.54,292.13 1068,334.37 75.28,8.61 147.22,14.31 215.5,17.05 70.02,2.81 139.65,3.12 208.62,0.92 383.37,-39.31 1009.9,-218.05 1559.79,-415.42 92.3,-33.13 197.1,-72.83 312.01,-118.2 101.82,-40.2 195.25,-78.95 277.69,-115.28l0.68 -0.3 0.11 0.25c144.35,-69.64 303.41,-39.32 468.27,44.1 125.52,63.49 254.94,156.99 381.71,252.97l1374.38 883.82 2128.96 -535.86c253.42,-63.81 524.27,-56.87 802.4,-11.95l-7391.42 -4105.85c-90.84,-45.78 -138.93,-151.24 -109.23,-252.32 33.45,-113.83 152.87,-179 266.7,-145.55l9574.74 2839.52c-426.72,-704.93 -704.86,-799.34 -1201.17,-967.78 -49.4,-16.77 -80.57,-27.26 -101.06,-34.21 -1120.58,-156.59 -1964.09,-453.37 -2451.63,-793.03 -100.97,-70.35 -188.68,-144.02 -262.44,-220.17 -77.95,-80.49 -139.59,-163.39 -184.16,-247.77l0.4 -0.21 -2.08 -4 -0.07 -0.14c-247.08,-492.77 -308.5,-882.05 -392.46,-1414.32 -8.53,-54.09 -17.4,-110.45 -30.54,-190.75l-157.48 -119.16c-662.82,-54.45 -1198.19,-267.81 -1578.44,-486.74 -76.85,-44.26 -147.36,-88.71 -211.27,-132.11 -58.5,-39.72 -111.64,-78.68 -159.28,-115.89 -655.62,-363.53 -970.74,-915.7 -1262.55,-1427.21 -55.51,-97.29 -110.12,-193.02 -167.9,-287.97l-0.16 -0.27 -0.25 -0.4 -2.52 -4.21 -0.07 -0.12 0.03 -0.02c-52.43,-90.24 -32.55,-207.69 51.29,-275.1 92.46,-74.34 227.7,-59.66 302.05,32.81 238.31,294.76 532.19,539.27 856.59,720.43 58.32,32.57 122.84,65.32 193.32,98.12 68.04,31.67 133.52,59.4 196.14,83.09 368.45,110.03 1010.33,185.92 1590.79,215.86 119.78,6.18 231.87,10.35 333.67,12.4 105.09,2.13 205.03,2.37 297.34,0.7 162.75,-11.73 299.93,78.26 421.67,220.63 93.12,108.92 176.98,246.1 257.16,383.52l923.07 1338.55 2153.97 330.34 -0.02 0.13c268.13,39.6 522.98,153.45 768.53,305.75l-5246.96 -6652.29 0.3 -0.24c-60.78,-77.17 -62.34,-188.74 2.22,-268.15 74.8,-92 210.04,-105.93 302.05,-31.13l7725.2 6301.23c-129.68,-718.75 -341.44,-902.31 -718.7,-1229.24 -20.43,-17.7 -41.51,-36.01 -76.88,-66.89 -978.71,-567.27 -1648.27,-1160.27 -1972.18,-1659.06 -67.94,-104.65 -121.68,-206.08 -160.85,-303.27 -39.34,-97.61 -64.46,-192.35 -75.13,-283.25 -1.16,-6.79 -2.05,-13.68 -2.57,-20.69 -43,-549.4 46.9,-933.06 170,-1458.39 18.08,-77.12 36.77,-156.86 51.6,-220.75l-97.93 -130.97c-608.7,-305.52 -1026.38,-706.95 -1294.28,-1053.89 -52.28,-67.7 -100.21,-135.55 -143.66,-201.69 -39.27,-59.79 -72.97,-115.32 -101.58,-166.03 -246.74,-307.05 -403.53,-661.25 -505.43,-1032.61 -100.01,-364.53 -146.36,-741 -173.51,-1103.36 -12.7,-102.17 49.56,-201.66 151.44,-232.43 113.83,-34.38 234,30.04 268.38,143.87 110.2,364.57 290.05,702.22 521.52,991.49 41.76,52.2 89,106.68 141.57,163.26 47.95,51.62 97.74,101.42 149.19,149.25 300.62,242.2 869.09,556.09 1396.45,803 91.34,42.76 193.72,88.57 304.66,136.32 101.95,43.88 189.45,80.1 260.08,107.64l3.24 0.94c159.91,48.33 255.42,185.61 315.78,367.37 44.64,134.39 70.52,291.94 92.8,448.64l350.97 1590.79 1903.85 1132.67c217.42,128.18 396.66,310.18 553.53,521.43l-2340.15 -8099.17c-41.47,-206.23 122.38,-260.96 132.51,-264.62 97.99,-35.43 209.86,4.96 261.23,99.28l4787.66 8764.89c198.74,-805.93 71.99,-1059.38 -167.66,-1538.45 -34.13,-68.21 -25.63,-50.5 -41.47,-82.27 -689.04,-905.74 -1079.66,-1713.64 -1186.69,-2300.68 -22.25,-122.03 -32.65,-235.93 -31.31,-340.64 1.3,-101.77 14.74,-211.53 44.87,-309.03 162.78,-494.96 362.41,-764.86 645.14,-1147.12 57.84,-78.2 119.6,-161.69 191.41,-261.97l-31.62 -224.01c-535.65,-625.23 -793.13,-1278.17 -872.46,-1963.08 -79.43,-685.92 22.29,-1398.54 201.1,-2145.68 19.62,-109.55 120.74,-187.08 233.28,-175.57 118.02,12.08 203.9,117.56 191.82,235.58 -38.66,376.47 -2.51,757.34 100.04,1115.75 20.12,70.35 42.49,138.98 66.99,205.61 24.76,67.32 54.81,139.41 81.02,197.73 184.26,339.21 575.75,839.15 964.09,1267.97 71.98,79.49 148.32,160.96 227.44,242.66 72.72,75.09 144.05,146.03 212.39,211.09 127.55,109.48 164.19,270.34 152.4,458.57 -9,143.52 -46.53,303.77 -86.91,465.73l-365.74 1478.36 1321.61 1795.09 -0.15 0.11c195.79,265.49 309.58,580.89 382.25,912.5l964.92 -8490.92c6.61,-101.55 84.83,-187.11 189.52,-199.47 118.02,-13.93 225.01,70.44 238.94,188.46l1207.83 9965.33c399.32,-522.13 388.58,-615.26 348.92,-954.63 -8.8,-75.37 -18.77,-160.52 -26.99,-254.16 -308.54,-1086.91 -381.25,-1973.29 -268.17,-2556.78 23.8,-122.81 139.6,-448.2 273.91,-592.72 354.67,-429.23 665.28,-655.28 1120.24,-948.05 65.33,-42.04 132.85,-85.51 188.17,-121.33l20.48 -165.28c-220.82,-631.38 -242.09,-1210.69 -194.89,-1648.86 9.28,-86.17 21.65,-168.9 35.93,-246.83 12.53,-68.37 26.47,-131.86 41.06,-189.76 67.58,-747.2 446.52,-1259.29 797.55,-1733.56 66.04,-89.23 131.08,-177.14 186.56,-256.12 60.52,-87.3 187.6,-132.82 284.58,-82.84 105.47,54.36 146.91,183.94 92.55,289.42 -173.57,337.1 -278.86,704.58 -313.9,1074.39 -6.88,72.65 -11.08,144.69 -12.56,215.82 -1.37,66.18 -0.33,134.25 3.16,204.02 45.31,377.46 232.69,992.53 440.28,1539.77 39.59,104.38 80.99,208.67 123.25,310.54 108.08,260.62 232.79,457.18 96.38,746.68 -57.7,122.44 -146.16,248.81 -241,382.32l-858.41 1408.9 562.05 2102 -0.37 0.1c75.01,273.1 70.09,565.36 24.45,864.65l3976.17 -7522.77 0.29 0.15c45.77,-87.11 147.35,-133.93 246.22,-107 114.3,31.13 181.73,149.04 150.61,263.34l-2628.77 9641.61c668.2,-428.08 756.65,-711.14 903.93,-1183.21 11.4,-36.58 23.49,-75.35 46.8,-147.77 134.62,-1124.17 415.7,-1974.78 746.96,-2470.43 69.14,-103.46 141.03,-192.69 214.82,-266.99 416.49,-419.32 1128.63,-517.36 1682.3,-608.78 48.62,-8.03 98.84,-16.35 170.11,-28.5l103.64 -167.16c44.24,-672.44 254.74,-1219.4 468.58,-1602.63 45.54,-81.62 184.03,-295.97 239.59,-368.79 345.43,-654.28 889.28,-978.57 1394.05,-1279.47 91.2,-54.37 181.02,-107.91 287.72,-175.72l0.42 0.67c89.26,-56.84 209.04,-40.2 279.01,43.01 76.19,90.6 64.52,225.84 -26.08,302.04 -289.97,243.87 -528.87,542.76 -704.18,871.38 -31.7,59.4 -63.12,124.31 -94.16,194.48 -28.24,63.82 -53.81,127.46 -76.58,190.78 -104.9,371.46 -169.32,1020.03 -188.03,1603.67 -3.75,117.11 -5.7,229.27 -5.77,333.8 -0.07,100.25 1.56,197.81 4.94,290.47 17.23,164.78 -70.54,305.45 -212.02,431.12 -100.52,89.3 -234.46,174.95 -369.97,257.38l-1329.78 955.07 -288.97 2178.89c-34.08,261.18 -141.62,512.37 -287.43,756.35l6543.41 -5371.19c75.95,-65.16 189.77,-70.03 271.68,-6.06 93.39,72.94 109.96,207.8 37.02,301.2l-6157.5 7853.79c720.74,-129.78 873.29,-318.54 1149.73,-660.89 35.84,-44.38 73.85,-91.49 134.88,-164.38 548.5,-990.64 1129.7,-1672.67 1623.57,-2007.09 104.17,-70.54 204.38,-126.26 299.61,-166.8 103.27,-43.97 198.26,-68.14 292.62,-79.46 -4.99,0.52 253.51,-42.02 1494.81,149.77 42.65,9.67 85.98,19.49 169.38,37.87l158.99 -115.75c294.47,-606.19 696.08,-1033.69 1039.02,-1308.15 73.36,-58.72 139.52,-107.67 198.39,-147.98 56.94,-39 111.49,-73.53 162.48,-103.55 567.36,-475.82 1192.81,-571.01 1773.42,-659.3 116.25,-17.68 230.65,-35.09 312.28,-49.41 6,-1.61 12.13,-2.99 18.36,-4.1 104.27,-18.74 210.82,42.42 244.09,146.07 36.24,112.91 -25.91,233.83 -138.82,270.07 -360.99,116.66 -694.85,303.18 -980.59,541.02 -53.28,44.34 -107.06,92.71 -161.14,144.93 -49.46,47.76 -99,99.44 -148.45,154.89l-0.06 -0.05c-235.53,305.53 -537.04,878.03 -773.23,1408.9 -42.68,95.94 -86.48,198.93 -130.34,306.48 -41.02,100.57 -76.61,191.94 -105.75,271.8l-0.01 0.03c-46.97,157.73 -181.08,254.34 -357.65,316.91 -127.92,45.34 -282.84,73.76 -435.81,98.1l-1596.29 384.94 -1069.72 1879.33c-0.88,1.98 1.14,-1.91 3.07,-5.81 -136.57,238.84 -343.34,449.3 -575.87,625.16l8078.52 -2502.86c97.47,-37.54 210.43,0.64 263.89,94.09 59.01,103.15 23.23,234.62 -79.92,293.63l-8670.08 4955.42c803.79,178.59 1064.54,42.8 1529.81,-199.63l91.98 -47.4c887.33,-701.57 1686.06,-1106.24 2270.41,-1224.17 121.75,-24.57 235.69,-37.15 340.76,-37.81 112.67,-0.71 214.8,11.84 307.42,38.43 525.31,175.63 855.42,389.12 1305.19,709.22 154.24,109.36 157.33,103.78 342.05,59.92 505.7,-445.67 1040.45,-685.06 1462.16,-805.98 81.38,-23.32 162.04,-42.85 239.77,-58.99 66.93,-13.89 130.7,-24.71 190.02,-32.86 706.78,-220.42 1320.71,-67.06 1890.6,75.36 107.56,26.88 213.43,53.34 320.8,77.04 107.28,19.9 184.18,118.25 175.05,229.32 -9.75,118.48 -113.73,206.62 -232.21,196.87 -378.76,-31.6 -758.76,11.56 -1113.47,120.55 -67.28,20.67 -135.43,44.47 -204.18,71.27 -64.94,25.33 -136.4,57.09 -192.69,83.53 3.66,-1.86 -3.51,2.04 0,0 -335.83,190.09 -837.56,603.88 -1261.75,1004.11 -85,80.2 -165.32,158.28 -239.07,232.38 -71.75,72.09 -140.69,143.91 -206.11,214.98 -83.8,206.05 -259.82,159.8 -448.58,149.23 -136.01,-7.6 -290.95,-41.06 -444.64,-77.78l-1622.61 -261 -1734.18 1341.87c-206.88,160.01 -458.13,262 -731.27,332.16l8417.72 805.74c100.8,5.64 186.68,82.08 200.63,185.85 15.8,117.56 -66.69,225.67 -184.25,241.47l-10126.29 1388c226.97,201.38 451.71,370.3 677.89,496.3 311.07,173.3 626.88,265.78 958.79,249.64 1094.65,-284.24 1987.24,-332.96 2567.54,-205.95 119.28,26.1 228.71,60.74 327.29,103.37 103.94,44.96 192.55,97.63 264.83,157.45l0.76 0.94 109.08 98.36 -107.84 -97.07c429.43,371.55 637.05,718.55 914.12,1183.68l-0.19 0.53 -0.19 -0.31c26.9,45.16 55.03,92.37 88.65,148.25l194.76 35.77c642.58,-204.24 1228.52,-207.82 1663.02,-148.54 89.9,12.26 171.26,26.65 243.91,42.14 66.95,14.27 129.75,30.1 187.39,46.57 735.11,83.27 1235.12,471.09 1699.2,831.12 88.41,68.59 175.47,136.13 268.03,203.81l-0.15 0.21c85.75,62.44 114.05,180.34 61.94,276.02 -56.69,104.08 -187.02,142.51 -291.11,85.82 -331.86,-180.42 -696.45,-293.62 -1065.85,-337.07 -75.39,-8.87 -147.57,-14.82 -216.27,-17.8 -70.61,-3.07 -140.42,-3.64 -209.16,-1.66 -381.76,38.06 -1008.96,215.09 -1560.73,411.17 -108.42,38.53 -213.38,77.61 -312.42,116.35 -97.74,38.23 -187.46,74.97 -271.86,111.82 -1.6,0.87 1.71,-0.72 4.99,-2.37 -144.59,70.22 -314.08,44.16 -478.92,-39.59 -120.98,-61.44 -248.85,-154.05 -373.94,-248.92l-1342.77 -899.46 -2167.72 534.39c-253.53,62.95 -524.69,54.79 -803.18,8.66l7383.66 4131.8c166.23,111.13 97.38,271.94 92.77,281.71 -44.6,94.42 -152.66,144.76 -255.81,114.02l-9565.34 -2869.56c424.27,705.76 702.24,801.11 1198.29,971.18 17,5.83 -29.52,-10.12 97.64,34.12 1121.01,159.91 1964.76,459.73 2452.21,801.66 101.13,70.93 188.63,144.86 261.8,220.9 71.4,74.22 129.25,151.23 172.98,230.3 4.44,6.84 8.57,14.01 12.29,21.49 252.77,507.95 309.46,906.68 385.74,1443.32 7.1,49.98 14.4,101.41 24.67,171.15l164.5 107.08c671.17,59.47 1213.57,282.34 1592.2,504.95 77.36,45.49 146.87,90.14 208.49,132.86 57.54,39.88 109.47,78.72 155.57,115.57 645.96,360.28 957.69,910.74 1246.94,1421.65 53.32,94.19 105.82,186.92 169.07,291.57l0.72 1.76 -0.96 -1.61c52.4,90.24 34.49,211.06 -49.33,278.46 -92.46,74.34 -227.7,59.66 -302.05,-32.81 -237.2,-295.23 -530.54,-540.7 -855.02,-723.27 -67.52,-37.99 -131.65,-71.24 -192.15,-99.64 -59.87,-28.09 -125.69,-55.86 -197.29,-83.17 -368.59,-111.27 -1009.01,-189.08 -1587.95,-220.78 -120.22,-6.58 -232.32,-11.12 -333.64,-13.48 -105.82,-2.46 -206.15,-3.08 -298.5,-1.71 -163.16,11.06 -300.22,-79.47 -421.53,-222.29 -89.55,-105.45 -172.29,-241.4 -251.69,-378.36l-888.96 -1342.32c-906.33,-140.99 -2133.88,-134.69 -2952.59,-647.4l5221.2 6662.89c63.29,77.57 65.35,191.51 -0.68,271.81 -75.27,91.53 -210.51,104.72 -302.05,29.45l-7703.29 -6323.98c130.34,719.98 347.14,909.85 732.02,1246.76 95.73,83.81 -62.43,-55.88 58.8,50.78 976.21,570.07 1643.75,1165.36 1966.39,1665.49 66.98,103.83 120.17,205.12 159.23,302.82 38.87,97.24 63.7,191.62 74.28,282.28 1.26,7.13 2.19,14.42 2.74,21.8 42.4,566.45 -55.41,956.95 -187.08,1482.68 -14.87,59.38 -30.1,120.08 -42.42,169.52l106.24 161.88c605.53,307.78 1024.73,717.54 1291.14,1065.38 52.5,68.54 100.25,136.6 143.09,202.23 39.46,60.45 72.85,115.78 100.69,165.54 461.4,576.29 542.63,1204 617.92,1786.65 14.05,108.78 27.9,215.9 43.9,318.66 25.35,109.74 -38.74,221.74 -148.17,254.35 -113.83,33.92 -233.62,-30.88 -267.54,-144.71 -108.41,-363.36 -287.4,-701.43 -518.81,-992.52 -45.08,-56.71 -92.15,-111.63 -141.03,-164.57 -46.24,-50.09 -93.93,-98.24 -142.87,-144.26 -298.65,-244.16 -1947.53,-1051.81 -1974.56,-1062.34 -2.72,-0.96 -5.43,-1.95 -8.14,-3.02 -150.83,-53.33 -241.63,-187.28 -299.17,-362.34 -42.61,-129.64 -67.92,-285.04 -89.67,-440.53l-347.85 -1600.68 -1866.77 -1124.12 0.08 -0.14c-232.58,-138.51 -424.7,-340 -593.6,-573.3l2325.02 8145.9 -0.55 0.16c26.96,94.43 -13.93,198.26 -103.78,247.2 -104.08,56.69 -234.42,18.26 -291.11,-85.82l-4787.82 -8771.83c-184.76,771.14 -52.21,1036.73 168.84,1479.27 22.72,45.48 46.27,92.65 70.12,141.38 681.65,903.07 1068.24,1710.46 1172.89,2296.75 21.35,119.63 31.11,233.54 29.39,340.59 -8.32,517.49 -322.28,972.19 -768.54,1585.16 -38.05,52.28 -77.43,106.29 -132.76,183.49l38.48 162.69c441.9,518.3 671.7,1059.64 783.82,1484.58 22.05,83.6 39.9,164.84 54.12,241.85 12.93,70.02 22.36,133.82 28.93,190.92 204.02,709.83 36.87,1320.28 -118.4,1886.96 -28.86,105.36 -57.3,209.05 -83.73,317.01 -21.1,108.24 -121.88,184.23 -233.59,172.37 -118.02,-12.54 -203.52,-118.4 -190.98,-236.42 40.01,-376.77 5.15,-757.76 -96.19,-1116.07 -20.03,-70.84 -42.18,-139.55 -66.33,-205.84 -22.66,-62.19 -48.36,-125.4 -76.96,-189.34 -181.36,-339.99 -585.64,-853.4 -977.88,-1288.32 -80.46,-89.22 -156.64,-171.29 -226.81,-244.35 -69.81,-72.68 -137.46,-140.79 -201.39,-202.65l-10.26 -9.15zm-18970.9 -6867.15l-0.22 -0.37 0.22 0.37zm12576.14 9989.04l-0.08 0.31 0.08 -0.31zm6405.02 -3112.74c-3.49,-2.93 -6.91,-5.96 -10.26,-9.15l10.26 9.15zm14102.76 -16720.07l0.29 0.11 -0.29 -0.11zm1873.74 -4906.8l0.43 -0.22 -0.05 -0.04 -0.7 0.77 0.32 -0.51zm-2476.79 -2178.88l0.17 -0.18 -0.17 0.18zm2096.89 -7911.68l0.84 -0.47 -0.84 0.47zm-7732.86 12999.42l0 0.08 -0.84 0c-0.02,2988.44 -1179.14,5694.11 -3085.5,7652.72 -1907.87,1960.15 -4544.18,3172.55 -7456.71,3172.59l0 0.84 -0.14 0 -0.07 0 0 -0.84c-2912.55,-0.02 -5548.9,-1212.44 -7456.78,-3172.64 -1906.32,-1958.59 -3085.41,-4664.21 -3085.45,-7652.6l-0.84 0 0 -0.15 0 -0.08 0.84 0c0.02,-2988.34 1179.14,-5693.94 3085.5,-7652.51 1907.86,-1960.11 4544.15,-3172.48 7456.66,-3172.52l0 -0.84 0.14 0 0.07 0 0 0.84c2912.58,0.02 5548.94,1212.42 7456.82,3172.57 1906.33,1958.54 3085.42,4664.09 3085.46,7652.39l0.84 0 0 0.15zm-429.92 0.08l-0.84 0 0 -0.08 0 -0.15 0.84 0c-0.03,-2871.59 -1132.84,-5471.23 -2964.31,-7352.87 -1829.97,-1880.09 -4357.53,-3042.99 -7148.89,-3043l0 0.84 -0.07 0 -0.14 0 0 -0.84c-2791.29,0.03 -5318.78,1162.89 -7148.73,3042.95 -1831.52,1881.66 -2964.34,4481.35 -2964.35,7352.99l0.84 0 0 0.08 0 0.15 -0.84 0c0.03,2871.68 1132.83,5471.39 2964.3,7353.08 1829.97,1880.14 4357.52,3043.06 7148.85,3043.07l0 -0.84 0.07 0 0.14 0 0 0.84c2791.31,-0.03 5318.82,-1162.92 7148.78,-3043.02 1831.52,-1881.7 2964.34,-4481.46 2964.35,-7353.2z"/>
    </g>
   </g>
  </g>
 </g>
</svg>
